G04 EAGLE Gerber RS-274X export*
G75*
%MOMM*%
%FSLAX34Y34*%
%LPD*%
%INSoldermask Bottom*%
%IPPOS*%
%AMOC8*
5,1,8,0,0,1.08239X$1,22.5*%
G01*
%ADD10R,0.803200X0.803200*%
%ADD11R,0.553200X2.153200*%
%ADD12C,0.657200*%
%ADD13R,1.053200X0.703200*%
%ADD14R,1.003200X1.103200*%
%ADD15C,0.838200*%
%ADD16C,1.203200*%
%ADD17C,1.270000*%
%ADD18C,1.703200*%

G36*
X1261429Y547256D02*
X1261429Y547256D01*
X1261446Y547253D01*
X1261495Y547275D01*
X1261547Y547290D01*
X1261558Y547303D01*
X1261574Y547310D01*
X1261603Y547355D01*
X1261639Y547395D01*
X1261641Y547412D01*
X1261651Y547427D01*
X1261662Y547500D01*
X1261662Y583250D01*
X1261645Y583308D01*
X1261633Y583366D01*
X1261624Y583378D01*
X1261623Y583384D01*
X1261615Y583391D01*
X1261589Y583426D01*
X1255089Y589926D01*
X1255036Y589955D01*
X1254986Y589988D01*
X1254972Y589990D01*
X1254966Y589993D01*
X1254956Y589993D01*
X1254913Y589999D01*
X1225413Y589999D01*
X1225396Y589994D01*
X1225379Y589997D01*
X1225330Y589975D01*
X1225278Y589960D01*
X1225267Y589947D01*
X1225251Y589940D01*
X1225222Y589895D01*
X1225186Y589855D01*
X1225184Y589838D01*
X1225174Y589824D01*
X1225163Y589750D01*
X1225163Y547500D01*
X1225168Y547484D01*
X1225166Y547467D01*
X1225187Y547417D01*
X1225203Y547366D01*
X1225215Y547355D01*
X1225222Y547339D01*
X1225267Y547309D01*
X1225308Y547274D01*
X1225325Y547271D01*
X1225339Y547262D01*
X1225413Y547251D01*
X1261413Y547251D01*
X1261429Y547256D01*
G37*
G36*
X1036334Y547256D02*
X1036334Y547256D01*
X1036351Y547253D01*
X1036400Y547275D01*
X1036452Y547290D01*
X1036463Y547303D01*
X1036479Y547310D01*
X1036509Y547355D01*
X1036544Y547395D01*
X1036547Y547412D01*
X1036556Y547427D01*
X1036567Y547500D01*
X1036567Y583250D01*
X1036550Y583308D01*
X1036538Y583366D01*
X1036530Y583378D01*
X1036528Y583384D01*
X1036520Y583391D01*
X1036494Y583426D01*
X1029994Y589926D01*
X1029941Y589955D01*
X1029891Y589988D01*
X1029877Y589990D01*
X1029871Y589993D01*
X1029861Y589993D01*
X1029818Y589999D01*
X1000318Y589999D01*
X1000301Y589994D01*
X1000284Y589997D01*
X1000235Y589975D01*
X1000184Y589960D01*
X1000172Y589947D01*
X1000157Y589940D01*
X1000127Y589895D01*
X1000092Y589855D01*
X1000089Y589838D01*
X1000080Y589824D01*
X1000069Y589750D01*
X1000069Y547500D01*
X1000073Y547484D01*
X1000071Y547467D01*
X1000093Y547417D01*
X1000108Y547366D01*
X1000121Y547355D01*
X1000128Y547339D01*
X1000173Y547309D01*
X1000213Y547274D01*
X1000230Y547271D01*
X1000244Y547262D01*
X1000318Y547251D01*
X1036318Y547251D01*
X1036334Y547256D01*
G37*
G36*
X1711568Y547256D02*
X1711568Y547256D01*
X1711585Y547253D01*
X1711634Y547275D01*
X1711686Y547290D01*
X1711697Y547303D01*
X1711713Y547310D01*
X1711742Y547355D01*
X1711778Y547395D01*
X1711780Y547412D01*
X1711790Y547427D01*
X1711801Y547500D01*
X1711801Y583250D01*
X1711784Y583308D01*
X1711772Y583366D01*
X1711763Y583378D01*
X1711761Y583384D01*
X1711754Y583391D01*
X1711728Y583426D01*
X1705228Y589926D01*
X1705175Y589955D01*
X1705125Y589988D01*
X1705111Y589990D01*
X1705105Y589993D01*
X1705095Y589993D01*
X1705051Y589999D01*
X1675551Y589999D01*
X1675535Y589994D01*
X1675518Y589997D01*
X1675469Y589975D01*
X1675417Y589960D01*
X1675406Y589947D01*
X1675390Y589940D01*
X1675361Y589895D01*
X1675325Y589855D01*
X1675323Y589838D01*
X1675313Y589824D01*
X1675302Y589750D01*
X1675302Y547500D01*
X1675307Y547484D01*
X1675304Y547467D01*
X1675326Y547417D01*
X1675341Y547366D01*
X1675354Y547355D01*
X1675361Y547339D01*
X1675406Y547309D01*
X1675447Y547274D01*
X1675464Y547271D01*
X1675478Y547262D01*
X1675551Y547251D01*
X1711551Y547251D01*
X1711568Y547256D01*
G37*
G36*
X1486498Y547256D02*
X1486498Y547256D01*
X1486515Y547253D01*
X1486565Y547275D01*
X1486616Y547290D01*
X1486627Y547303D01*
X1486643Y547310D01*
X1486673Y547355D01*
X1486708Y547395D01*
X1486711Y547412D01*
X1486720Y547427D01*
X1486731Y547500D01*
X1486731Y583250D01*
X1486714Y583308D01*
X1486702Y583366D01*
X1486694Y583378D01*
X1486692Y583384D01*
X1486684Y583391D01*
X1486658Y583426D01*
X1480158Y589926D01*
X1480106Y589955D01*
X1480056Y589988D01*
X1480041Y589990D01*
X1480036Y589993D01*
X1480025Y589993D01*
X1479982Y589999D01*
X1450482Y589999D01*
X1450466Y589994D01*
X1450449Y589997D01*
X1450399Y589975D01*
X1450348Y589960D01*
X1450337Y589947D01*
X1450321Y589940D01*
X1450291Y589895D01*
X1450256Y589855D01*
X1450253Y589838D01*
X1450244Y589824D01*
X1450233Y589750D01*
X1450233Y547500D01*
X1450238Y547484D01*
X1450235Y547467D01*
X1450257Y547417D01*
X1450272Y547366D01*
X1450285Y547355D01*
X1450292Y547339D01*
X1450337Y547309D01*
X1450377Y547274D01*
X1450394Y547271D01*
X1450409Y547262D01*
X1450482Y547251D01*
X1486482Y547251D01*
X1486498Y547256D01*
G37*
G36*
X811265Y547256D02*
X811265Y547256D01*
X811282Y547253D01*
X811331Y547275D01*
X811383Y547290D01*
X811394Y547303D01*
X811410Y547310D01*
X811439Y547355D01*
X811475Y547395D01*
X811477Y547412D01*
X811487Y547427D01*
X811498Y547500D01*
X811498Y583250D01*
X811481Y583308D01*
X811469Y583366D01*
X811460Y583378D01*
X811458Y583384D01*
X811451Y583391D01*
X811425Y583426D01*
X804925Y589926D01*
X804872Y589955D01*
X804822Y589988D01*
X804808Y589990D01*
X804802Y589993D01*
X804792Y589993D01*
X804748Y589999D01*
X775248Y589999D01*
X775232Y589994D01*
X775215Y589997D01*
X775166Y589975D01*
X775114Y589960D01*
X775103Y589947D01*
X775087Y589940D01*
X775058Y589895D01*
X775022Y589855D01*
X775020Y589838D01*
X775010Y589824D01*
X774999Y589750D01*
X774999Y547500D01*
X775004Y547484D01*
X775001Y547467D01*
X775023Y547417D01*
X775038Y547366D01*
X775051Y547355D01*
X775058Y547339D01*
X775103Y547309D01*
X775144Y547274D01*
X775161Y547271D01*
X775175Y547262D01*
X775248Y547251D01*
X811248Y547251D01*
X811265Y547256D01*
G37*
G36*
X136006Y547256D02*
X136006Y547256D01*
X136023Y547253D01*
X136072Y547275D01*
X136124Y547290D01*
X136135Y547303D01*
X136151Y547310D01*
X136180Y547355D01*
X136216Y547395D01*
X136218Y547412D01*
X136228Y547427D01*
X136239Y547500D01*
X136239Y583250D01*
X136222Y583308D01*
X136210Y583366D01*
X136201Y583378D01*
X136199Y583384D01*
X136192Y583391D01*
X136166Y583426D01*
X129666Y589926D01*
X129613Y589955D01*
X129563Y589988D01*
X129549Y589990D01*
X129543Y589993D01*
X129533Y589993D01*
X129489Y589999D01*
X99989Y589999D01*
X99973Y589994D01*
X99956Y589997D01*
X99907Y589975D01*
X99855Y589960D01*
X99844Y589947D01*
X99828Y589940D01*
X99799Y589895D01*
X99763Y589855D01*
X99761Y589838D01*
X99751Y589824D01*
X99740Y589750D01*
X99740Y547500D01*
X99745Y547484D01*
X99742Y547467D01*
X99764Y547417D01*
X99779Y547366D01*
X99792Y547355D01*
X99799Y547339D01*
X99844Y547309D01*
X99885Y547274D01*
X99902Y547271D01*
X99916Y547262D01*
X99989Y547251D01*
X135989Y547251D01*
X136006Y547256D01*
G37*
G36*
X586170Y547256D02*
X586170Y547256D01*
X586187Y547253D01*
X586236Y547275D01*
X586288Y547290D01*
X586299Y547303D01*
X586315Y547310D01*
X586344Y547355D01*
X586380Y547395D01*
X586382Y547412D01*
X586392Y547427D01*
X586403Y547500D01*
X586403Y583250D01*
X586386Y583308D01*
X586374Y583366D01*
X586365Y583378D01*
X586364Y583384D01*
X586356Y583391D01*
X586330Y583426D01*
X579830Y589926D01*
X579777Y589955D01*
X579727Y589988D01*
X579713Y589990D01*
X579707Y589993D01*
X579697Y589993D01*
X579654Y589999D01*
X550154Y589999D01*
X550137Y589994D01*
X550120Y589997D01*
X550071Y589975D01*
X550019Y589960D01*
X550008Y589947D01*
X549992Y589940D01*
X549963Y589895D01*
X549927Y589855D01*
X549925Y589838D01*
X549915Y589824D01*
X549904Y589750D01*
X549904Y547500D01*
X549909Y547484D01*
X549907Y547467D01*
X549928Y547417D01*
X549944Y547366D01*
X549956Y547355D01*
X549963Y547339D01*
X550008Y547309D01*
X550049Y547274D01*
X550066Y547271D01*
X550080Y547262D01*
X550154Y547251D01*
X586154Y547251D01*
X586170Y547256D01*
G37*
G36*
X361101Y547256D02*
X361101Y547256D01*
X361118Y547253D01*
X361167Y547275D01*
X361218Y547290D01*
X361230Y547303D01*
X361245Y547310D01*
X361275Y547355D01*
X361310Y547395D01*
X361313Y547412D01*
X361322Y547427D01*
X361333Y547500D01*
X361333Y583250D01*
X361317Y583308D01*
X361305Y583366D01*
X361296Y583378D01*
X361294Y583384D01*
X361286Y583391D01*
X361260Y583426D01*
X354760Y589926D01*
X354708Y589955D01*
X354658Y589988D01*
X354644Y589990D01*
X354638Y589993D01*
X354628Y589993D01*
X354584Y589999D01*
X325084Y589999D01*
X325068Y589994D01*
X325051Y589997D01*
X325002Y589975D01*
X324950Y589960D01*
X324939Y589947D01*
X324923Y589940D01*
X324893Y589895D01*
X324858Y589855D01*
X324855Y589838D01*
X324846Y589824D01*
X324835Y589750D01*
X324835Y547500D01*
X324840Y547484D01*
X324837Y547467D01*
X324859Y547417D01*
X324874Y547366D01*
X324887Y547355D01*
X324894Y547339D01*
X324939Y547309D01*
X324979Y547274D01*
X324996Y547271D01*
X325011Y547262D01*
X325084Y547251D01*
X361084Y547251D01*
X361101Y547256D01*
G37*
G36*
X795250Y108506D02*
X795250Y108506D01*
X795267Y108503D01*
X795316Y108525D01*
X795368Y108540D01*
X795379Y108553D01*
X795395Y108560D01*
X795424Y108605D01*
X795460Y108645D01*
X795462Y108662D01*
X795472Y108677D01*
X795483Y108750D01*
X795483Y151000D01*
X795478Y151016D01*
X795481Y151033D01*
X795459Y151083D01*
X795444Y151134D01*
X795431Y151145D01*
X795424Y151161D01*
X795379Y151191D01*
X795338Y151226D01*
X795321Y151229D01*
X795307Y151238D01*
X795234Y151249D01*
X759234Y151249D01*
X759217Y151244D01*
X759200Y151247D01*
X759151Y151225D01*
X759099Y151210D01*
X759088Y151197D01*
X759072Y151190D01*
X759043Y151145D01*
X759007Y151105D01*
X759005Y151088D01*
X758995Y151074D01*
X758984Y151000D01*
X758984Y115250D01*
X759001Y115192D01*
X759013Y115134D01*
X759022Y115122D01*
X759024Y115116D01*
X759031Y115109D01*
X759057Y115074D01*
X765557Y108574D01*
X765610Y108545D01*
X765660Y108512D01*
X765674Y108510D01*
X765680Y108507D01*
X765690Y108507D01*
X765734Y108501D01*
X795234Y108501D01*
X795250Y108506D01*
G37*
G36*
X1695578Y108506D02*
X1695578Y108506D01*
X1695595Y108503D01*
X1695645Y108525D01*
X1695696Y108540D01*
X1695707Y108553D01*
X1695723Y108560D01*
X1695753Y108605D01*
X1695788Y108645D01*
X1695791Y108662D01*
X1695800Y108677D01*
X1695811Y108750D01*
X1695811Y151000D01*
X1695806Y151016D01*
X1695809Y151033D01*
X1695787Y151083D01*
X1695772Y151134D01*
X1695759Y151145D01*
X1695752Y151161D01*
X1695707Y151191D01*
X1695667Y151226D01*
X1695650Y151229D01*
X1695636Y151238D01*
X1695562Y151249D01*
X1659562Y151249D01*
X1659546Y151244D01*
X1659529Y151247D01*
X1659479Y151225D01*
X1659428Y151210D01*
X1659417Y151197D01*
X1659401Y151190D01*
X1659371Y151145D01*
X1659336Y151105D01*
X1659333Y151088D01*
X1659324Y151074D01*
X1659313Y151000D01*
X1659313Y115250D01*
X1659330Y115192D01*
X1659342Y115134D01*
X1659350Y115122D01*
X1659352Y115116D01*
X1659360Y115109D01*
X1659386Y115074D01*
X1665886Y108574D01*
X1665938Y108545D01*
X1665989Y108512D01*
X1666003Y108510D01*
X1666008Y108507D01*
X1666019Y108507D01*
X1666062Y108501D01*
X1695562Y108501D01*
X1695578Y108506D01*
G37*
G36*
X1020345Y108506D02*
X1020345Y108506D01*
X1020362Y108503D01*
X1020411Y108525D01*
X1020463Y108540D01*
X1020474Y108553D01*
X1020490Y108560D01*
X1020519Y108605D01*
X1020555Y108645D01*
X1020557Y108662D01*
X1020567Y108677D01*
X1020578Y108750D01*
X1020578Y151000D01*
X1020573Y151016D01*
X1020575Y151033D01*
X1020554Y151083D01*
X1020538Y151134D01*
X1020526Y151145D01*
X1020519Y151161D01*
X1020474Y151191D01*
X1020433Y151226D01*
X1020416Y151229D01*
X1020402Y151238D01*
X1020328Y151249D01*
X984328Y151249D01*
X984312Y151244D01*
X984295Y151247D01*
X984246Y151225D01*
X984194Y151210D01*
X984183Y151197D01*
X984167Y151190D01*
X984138Y151145D01*
X984102Y151105D01*
X984100Y151088D01*
X984090Y151074D01*
X984079Y151000D01*
X984079Y115250D01*
X984096Y115192D01*
X984108Y115134D01*
X984117Y115122D01*
X984118Y115116D01*
X984126Y115109D01*
X984152Y115074D01*
X990652Y108574D01*
X990705Y108545D01*
X990755Y108512D01*
X990769Y108510D01*
X990775Y108507D01*
X990785Y108507D01*
X990828Y108501D01*
X1020328Y108501D01*
X1020345Y108506D01*
G37*
G36*
X345086Y108506D02*
X345086Y108506D01*
X345103Y108503D01*
X345152Y108525D01*
X345204Y108540D01*
X345215Y108553D01*
X345231Y108560D01*
X345260Y108605D01*
X345296Y108645D01*
X345298Y108662D01*
X345308Y108677D01*
X345319Y108750D01*
X345319Y151000D01*
X345314Y151016D01*
X345316Y151033D01*
X345295Y151083D01*
X345279Y151134D01*
X345267Y151145D01*
X345260Y151161D01*
X345215Y151191D01*
X345174Y151226D01*
X345157Y151229D01*
X345143Y151238D01*
X345069Y151249D01*
X309069Y151249D01*
X309053Y151244D01*
X309036Y151247D01*
X308987Y151225D01*
X308935Y151210D01*
X308924Y151197D01*
X308908Y151190D01*
X308879Y151145D01*
X308843Y151105D01*
X308841Y151088D01*
X308831Y151074D01*
X308820Y151000D01*
X308820Y115250D01*
X308837Y115192D01*
X308849Y115134D01*
X308858Y115122D01*
X308859Y115116D01*
X308867Y115109D01*
X308893Y115074D01*
X315393Y108574D01*
X315446Y108545D01*
X315496Y108512D01*
X315510Y108510D01*
X315516Y108507D01*
X315526Y108507D01*
X315569Y108501D01*
X345069Y108501D01*
X345086Y108506D01*
G37*
G36*
X570181Y108506D02*
X570181Y108506D01*
X570198Y108503D01*
X570247Y108525D01*
X570298Y108540D01*
X570310Y108553D01*
X570325Y108560D01*
X570355Y108605D01*
X570390Y108645D01*
X570393Y108662D01*
X570402Y108677D01*
X570413Y108750D01*
X570413Y151000D01*
X570409Y151016D01*
X570411Y151033D01*
X570389Y151083D01*
X570374Y151134D01*
X570361Y151145D01*
X570354Y151161D01*
X570309Y151191D01*
X570269Y151226D01*
X570252Y151229D01*
X570238Y151238D01*
X570164Y151249D01*
X534164Y151249D01*
X534148Y151244D01*
X534131Y151247D01*
X534082Y151225D01*
X534030Y151210D01*
X534019Y151197D01*
X534003Y151190D01*
X533973Y151145D01*
X533938Y151105D01*
X533935Y151088D01*
X533926Y151074D01*
X533915Y151000D01*
X533915Y115250D01*
X533932Y115192D01*
X533944Y115134D01*
X533952Y115122D01*
X533954Y115116D01*
X533962Y115109D01*
X533988Y115074D01*
X540488Y108574D01*
X540541Y108545D01*
X540591Y108512D01*
X540605Y108510D01*
X540611Y108507D01*
X540621Y108507D01*
X540664Y108501D01*
X570164Y108501D01*
X570181Y108506D01*
G37*
G36*
X1245414Y108506D02*
X1245414Y108506D01*
X1245431Y108503D01*
X1245480Y108525D01*
X1245532Y108540D01*
X1245543Y108553D01*
X1245559Y108560D01*
X1245589Y108605D01*
X1245624Y108645D01*
X1245627Y108662D01*
X1245636Y108677D01*
X1245647Y108750D01*
X1245647Y151000D01*
X1245642Y151016D01*
X1245645Y151033D01*
X1245623Y151083D01*
X1245608Y151134D01*
X1245595Y151145D01*
X1245588Y151161D01*
X1245543Y151191D01*
X1245503Y151226D01*
X1245486Y151229D01*
X1245471Y151238D01*
X1245398Y151249D01*
X1209398Y151249D01*
X1209381Y151244D01*
X1209364Y151247D01*
X1209315Y151225D01*
X1209264Y151210D01*
X1209252Y151197D01*
X1209237Y151190D01*
X1209207Y151145D01*
X1209172Y151105D01*
X1209169Y151088D01*
X1209160Y151074D01*
X1209149Y151000D01*
X1209149Y115250D01*
X1209165Y115192D01*
X1209177Y115134D01*
X1209186Y115122D01*
X1209188Y115116D01*
X1209196Y115109D01*
X1209222Y115074D01*
X1215722Y108574D01*
X1215774Y108545D01*
X1215824Y108512D01*
X1215838Y108510D01*
X1215844Y108507D01*
X1215854Y108507D01*
X1215898Y108501D01*
X1245398Y108501D01*
X1245414Y108506D01*
G37*
G36*
X1470509Y108506D02*
X1470509Y108506D01*
X1470526Y108503D01*
X1470575Y108525D01*
X1470627Y108540D01*
X1470638Y108553D01*
X1470654Y108560D01*
X1470683Y108605D01*
X1470719Y108645D01*
X1470721Y108662D01*
X1470731Y108677D01*
X1470742Y108750D01*
X1470742Y151000D01*
X1470737Y151016D01*
X1470740Y151033D01*
X1470718Y151083D01*
X1470703Y151134D01*
X1470690Y151145D01*
X1470683Y151161D01*
X1470638Y151191D01*
X1470597Y151226D01*
X1470580Y151229D01*
X1470566Y151238D01*
X1470493Y151249D01*
X1434493Y151249D01*
X1434476Y151244D01*
X1434459Y151247D01*
X1434410Y151225D01*
X1434358Y151210D01*
X1434347Y151197D01*
X1434331Y151190D01*
X1434302Y151145D01*
X1434266Y151105D01*
X1434264Y151088D01*
X1434254Y151074D01*
X1434243Y151000D01*
X1434243Y115250D01*
X1434260Y115192D01*
X1434272Y115134D01*
X1434281Y115122D01*
X1434283Y115116D01*
X1434290Y115109D01*
X1434316Y115074D01*
X1440816Y108574D01*
X1440869Y108545D01*
X1440919Y108512D01*
X1440933Y108510D01*
X1440939Y108507D01*
X1440949Y108507D01*
X1440993Y108501D01*
X1470493Y108501D01*
X1470509Y108506D01*
G37*
G36*
X120016Y108506D02*
X120016Y108506D01*
X120033Y108503D01*
X120083Y108525D01*
X120134Y108540D01*
X120145Y108553D01*
X120161Y108560D01*
X120191Y108605D01*
X120226Y108645D01*
X120229Y108662D01*
X120238Y108677D01*
X120249Y108750D01*
X120249Y151000D01*
X120244Y151016D01*
X120247Y151033D01*
X120225Y151083D01*
X120210Y151134D01*
X120197Y151145D01*
X120190Y151161D01*
X120145Y151191D01*
X120105Y151226D01*
X120088Y151229D01*
X120074Y151238D01*
X120000Y151249D01*
X84000Y151249D01*
X83984Y151244D01*
X83967Y151247D01*
X83917Y151225D01*
X83866Y151210D01*
X83855Y151197D01*
X83839Y151190D01*
X83809Y151145D01*
X83774Y151105D01*
X83771Y151088D01*
X83762Y151074D01*
X83751Y151000D01*
X83751Y115250D01*
X83768Y115192D01*
X83780Y115134D01*
X83788Y115122D01*
X83790Y115116D01*
X83798Y115109D01*
X83824Y115074D01*
X90324Y108574D01*
X90376Y108545D01*
X90427Y108512D01*
X90441Y108510D01*
X90446Y108507D01*
X90457Y108507D01*
X90500Y108501D01*
X120000Y108501D01*
X120016Y108506D01*
G37*
G36*
X1504424Y192531D02*
X1504424Y192531D01*
X1504433Y192535D01*
X1504459Y192536D01*
X1508293Y193370D01*
X1508302Y193375D01*
X1508327Y193380D01*
X1512004Y194752D01*
X1512011Y194757D01*
X1512036Y194766D01*
X1515480Y196647D01*
X1515486Y196654D01*
X1515510Y196666D01*
X1518651Y199017D01*
X1518656Y199025D01*
X1518678Y199041D01*
X1521452Y201815D01*
X1521457Y201824D01*
X1521475Y201842D01*
X1523827Y204983D01*
X1523830Y204992D01*
X1523846Y205013D01*
X1525726Y208457D01*
X1525728Y208466D01*
X1525741Y208489D01*
X1527112Y212165D01*
X1527113Y212175D01*
X1527122Y212199D01*
X1527956Y216033D01*
X1527956Y216043D01*
X1527961Y216069D01*
X1528241Y219982D01*
X1528236Y220008D01*
X1528240Y220033D01*
X1528221Y220075D01*
X1528212Y220119D01*
X1528193Y220137D01*
X1528183Y220161D01*
X1528145Y220186D01*
X1528113Y220218D01*
X1528088Y220224D01*
X1528066Y220238D01*
X1527993Y220249D01*
X1517993Y220249D01*
X1517986Y220247D01*
X1517979Y220249D01*
X1517919Y220228D01*
X1517858Y220210D01*
X1517854Y220205D01*
X1517847Y220202D01*
X1517808Y220152D01*
X1517766Y220105D01*
X1517765Y220098D01*
X1517761Y220092D01*
X1517744Y220020D01*
X1517530Y217302D01*
X1516898Y214669D01*
X1515862Y212169D01*
X1514448Y209861D01*
X1512690Y207802D01*
X1510632Y206044D01*
X1508324Y204630D01*
X1505823Y203594D01*
X1503191Y202962D01*
X1500493Y202750D01*
X1497794Y202962D01*
X1495162Y203594D01*
X1492661Y204630D01*
X1490353Y206044D01*
X1488295Y207802D01*
X1488241Y207865D01*
X1487816Y208364D01*
X1487815Y208364D01*
X1487603Y208613D01*
X1487390Y208862D01*
X1487177Y209112D01*
X1486751Y209610D01*
X1486538Y209859D01*
X1486537Y209861D01*
X1485123Y212169D01*
X1484087Y214669D01*
X1483455Y217302D01*
X1483241Y220020D01*
X1483239Y220026D01*
X1483240Y220033D01*
X1483214Y220091D01*
X1483191Y220150D01*
X1483186Y220155D01*
X1483183Y220161D01*
X1483130Y220196D01*
X1483079Y220234D01*
X1483072Y220234D01*
X1483066Y220238D01*
X1482993Y220249D01*
X1472993Y220249D01*
X1472968Y220242D01*
X1472942Y220244D01*
X1472902Y220223D01*
X1472858Y220210D01*
X1472841Y220190D01*
X1472818Y220178D01*
X1472796Y220139D01*
X1472766Y220105D01*
X1472763Y220079D01*
X1472750Y220056D01*
X1472744Y219982D01*
X1473024Y216069D01*
X1473027Y216059D01*
X1473029Y216033D01*
X1473863Y212199D01*
X1473868Y212191D01*
X1473873Y212165D01*
X1475244Y208489D01*
X1475250Y208481D01*
X1475259Y208457D01*
X1477139Y205013D01*
X1477146Y205006D01*
X1477159Y204983D01*
X1479510Y201842D01*
X1479518Y201836D01*
X1479533Y201815D01*
X1482308Y199041D01*
X1482316Y199036D01*
X1482335Y199017D01*
X1485476Y196666D01*
X1485485Y196663D01*
X1485506Y196647D01*
X1488949Y194766D01*
X1488959Y194764D01*
X1488982Y194752D01*
X1492658Y193380D01*
X1492668Y193380D01*
X1492692Y193370D01*
X1496526Y192536D01*
X1496536Y192537D01*
X1496561Y192531D01*
X1500475Y192251D01*
X1500484Y192253D01*
X1500510Y192251D01*
X1504424Y192531D01*
G37*
G36*
X829165Y192531D02*
X829165Y192531D01*
X829174Y192535D01*
X829200Y192536D01*
X833034Y193370D01*
X833043Y193375D01*
X833068Y193380D01*
X836745Y194752D01*
X836752Y194757D01*
X836777Y194766D01*
X840221Y196647D01*
X840227Y196654D01*
X840251Y196666D01*
X843392Y199017D01*
X843397Y199025D01*
X843419Y199041D01*
X846193Y201815D01*
X846198Y201824D01*
X846216Y201842D01*
X848568Y204983D01*
X848571Y204992D01*
X848587Y205013D01*
X850467Y208457D01*
X850469Y208466D01*
X850482Y208489D01*
X851853Y212165D01*
X851854Y212175D01*
X851863Y212199D01*
X852697Y216033D01*
X852697Y216043D01*
X852702Y216069D01*
X852982Y219982D01*
X852977Y220008D01*
X852981Y220033D01*
X852962Y220075D01*
X852953Y220119D01*
X852934Y220137D01*
X852924Y220161D01*
X852886Y220186D01*
X852854Y220218D01*
X852829Y220224D01*
X852807Y220238D01*
X852734Y220249D01*
X842734Y220249D01*
X842727Y220247D01*
X842720Y220249D01*
X842660Y220228D01*
X842599Y220210D01*
X842595Y220205D01*
X842588Y220202D01*
X842549Y220152D01*
X842507Y220105D01*
X842506Y220098D01*
X842502Y220092D01*
X842485Y220020D01*
X842271Y217302D01*
X841639Y214669D01*
X840603Y212169D01*
X839189Y209861D01*
X837431Y207802D01*
X835373Y206044D01*
X833065Y204630D01*
X830564Y203594D01*
X827932Y202962D01*
X825234Y202750D01*
X822535Y202962D01*
X819903Y203594D01*
X817402Y204630D01*
X815094Y206044D01*
X813036Y207802D01*
X812982Y207865D01*
X812557Y208364D01*
X812556Y208364D01*
X812344Y208613D01*
X812131Y208862D01*
X811918Y209112D01*
X811492Y209610D01*
X811279Y209859D01*
X811278Y209861D01*
X809864Y212169D01*
X808828Y214669D01*
X808196Y217302D01*
X807982Y220020D01*
X807980Y220026D01*
X807981Y220033D01*
X807955Y220091D01*
X807932Y220150D01*
X807927Y220155D01*
X807924Y220161D01*
X807871Y220196D01*
X807820Y220234D01*
X807813Y220234D01*
X807807Y220238D01*
X807734Y220249D01*
X797734Y220249D01*
X797709Y220242D01*
X797683Y220244D01*
X797643Y220223D01*
X797599Y220210D01*
X797582Y220190D01*
X797559Y220178D01*
X797537Y220139D01*
X797507Y220105D01*
X797504Y220079D01*
X797491Y220056D01*
X797485Y219982D01*
X797765Y216069D01*
X797768Y216059D01*
X797770Y216033D01*
X798604Y212199D01*
X798609Y212191D01*
X798614Y212165D01*
X799985Y208489D01*
X799991Y208481D01*
X800000Y208457D01*
X801880Y205013D01*
X801887Y205006D01*
X801900Y204983D01*
X804251Y201842D01*
X804259Y201836D01*
X804274Y201815D01*
X807049Y199041D01*
X807057Y199036D01*
X807076Y199017D01*
X810217Y196666D01*
X810226Y196663D01*
X810247Y196647D01*
X813690Y194766D01*
X813700Y194764D01*
X813723Y194752D01*
X817399Y193380D01*
X817409Y193380D01*
X817433Y193370D01*
X821267Y192536D01*
X821277Y192537D01*
X821302Y192531D01*
X825216Y192251D01*
X825225Y192253D01*
X825251Y192251D01*
X829165Y192531D01*
G37*
G36*
X1279329Y192531D02*
X1279329Y192531D01*
X1279338Y192535D01*
X1279364Y192536D01*
X1283198Y193370D01*
X1283207Y193375D01*
X1283233Y193380D01*
X1286909Y194752D01*
X1286917Y194757D01*
X1286941Y194766D01*
X1290385Y196647D01*
X1290392Y196654D01*
X1290415Y196666D01*
X1293556Y199017D01*
X1293562Y199025D01*
X1293583Y199041D01*
X1296357Y201815D01*
X1296362Y201824D01*
X1296380Y201842D01*
X1298732Y204983D01*
X1298735Y204992D01*
X1298751Y205013D01*
X1300631Y208457D01*
X1300634Y208466D01*
X1300646Y208489D01*
X1302017Y212165D01*
X1302018Y212175D01*
X1302027Y212199D01*
X1302861Y216033D01*
X1302861Y216043D01*
X1302867Y216069D01*
X1303146Y219982D01*
X1303141Y220008D01*
X1303145Y220033D01*
X1303126Y220075D01*
X1303117Y220119D01*
X1303099Y220137D01*
X1303088Y220161D01*
X1303050Y220186D01*
X1303018Y220218D01*
X1302993Y220224D01*
X1302971Y220238D01*
X1302898Y220249D01*
X1292898Y220249D01*
X1292891Y220247D01*
X1292884Y220249D01*
X1292825Y220228D01*
X1292764Y220210D01*
X1292759Y220205D01*
X1292752Y220202D01*
X1292713Y220152D01*
X1292672Y220105D01*
X1292671Y220098D01*
X1292666Y220092D01*
X1292649Y220020D01*
X1292435Y217302D01*
X1291804Y214669D01*
X1290768Y212169D01*
X1289353Y209861D01*
X1287595Y207802D01*
X1285537Y206044D01*
X1283229Y204630D01*
X1280728Y203594D01*
X1278096Y202962D01*
X1275398Y202750D01*
X1272699Y202962D01*
X1270067Y203594D01*
X1267566Y204630D01*
X1265259Y206044D01*
X1263200Y207802D01*
X1263147Y207865D01*
X1263146Y207865D01*
X1262721Y208364D01*
X1262508Y208613D01*
X1262295Y208862D01*
X1262082Y209112D01*
X1261656Y209610D01*
X1261443Y209859D01*
X1261442Y209861D01*
X1260028Y212169D01*
X1258992Y214669D01*
X1258360Y217302D01*
X1258146Y220020D01*
X1258144Y220026D01*
X1258145Y220033D01*
X1258119Y220091D01*
X1258097Y220150D01*
X1258091Y220155D01*
X1258088Y220161D01*
X1258035Y220196D01*
X1257985Y220234D01*
X1257977Y220234D01*
X1257971Y220238D01*
X1257898Y220249D01*
X1247898Y220249D01*
X1247873Y220242D01*
X1247847Y220244D01*
X1247807Y220223D01*
X1247764Y220210D01*
X1247746Y220190D01*
X1247724Y220178D01*
X1247701Y220139D01*
X1247672Y220105D01*
X1247668Y220079D01*
X1247655Y220056D01*
X1247649Y219982D01*
X1247929Y216069D01*
X1247932Y216059D01*
X1247934Y216033D01*
X1248768Y212199D01*
X1248773Y212191D01*
X1248778Y212165D01*
X1250149Y208489D01*
X1250155Y208481D01*
X1250164Y208457D01*
X1252045Y205013D01*
X1252051Y205006D01*
X1252064Y204983D01*
X1254415Y201842D01*
X1254423Y201836D01*
X1254438Y201815D01*
X1257213Y199041D01*
X1257221Y199036D01*
X1257240Y199017D01*
X1260381Y196666D01*
X1260390Y196663D01*
X1260411Y196647D01*
X1263854Y194766D01*
X1263864Y194764D01*
X1263887Y194752D01*
X1267563Y193380D01*
X1267573Y193380D01*
X1267597Y193370D01*
X1271431Y192536D01*
X1271441Y192537D01*
X1271466Y192531D01*
X1275380Y192251D01*
X1275390Y192253D01*
X1275416Y192251D01*
X1279329Y192531D01*
G37*
G36*
X153931Y192531D02*
X153931Y192531D01*
X153941Y192535D01*
X153967Y192536D01*
X157801Y193370D01*
X157809Y193375D01*
X157835Y193380D01*
X161511Y194752D01*
X161519Y194757D01*
X161543Y194766D01*
X164987Y196647D01*
X164994Y196654D01*
X165017Y196666D01*
X168158Y199017D01*
X168164Y199025D01*
X168185Y199041D01*
X170959Y201815D01*
X170964Y201824D01*
X170983Y201842D01*
X173334Y204983D01*
X173337Y204992D01*
X173353Y205013D01*
X175234Y208457D01*
X175236Y208466D01*
X175248Y208489D01*
X176620Y212165D01*
X176620Y212175D01*
X176630Y212199D01*
X177464Y216033D01*
X177463Y216043D01*
X177469Y216069D01*
X177749Y219982D01*
X177743Y220008D01*
X177747Y220033D01*
X177729Y220075D01*
X177719Y220119D01*
X177701Y220137D01*
X177690Y220161D01*
X177652Y220186D01*
X177621Y220218D01*
X177595Y220224D01*
X177574Y220238D01*
X177500Y220249D01*
X167500Y220249D01*
X167493Y220247D01*
X167486Y220249D01*
X167427Y220228D01*
X167366Y220210D01*
X167361Y220205D01*
X167354Y220202D01*
X167316Y220152D01*
X167274Y220105D01*
X167273Y220098D01*
X167268Y220092D01*
X167252Y220020D01*
X167038Y217302D01*
X166406Y214669D01*
X165370Y212169D01*
X163956Y209861D01*
X162198Y207802D01*
X160139Y206044D01*
X157831Y204630D01*
X155331Y203594D01*
X152698Y202962D01*
X150000Y202750D01*
X147302Y202962D01*
X144669Y203594D01*
X142169Y204630D01*
X139861Y206044D01*
X137802Y207802D01*
X137749Y207865D01*
X137323Y208364D01*
X137110Y208613D01*
X136897Y208862D01*
X136684Y209112D01*
X136259Y209610D01*
X136258Y209610D01*
X136046Y209859D01*
X136044Y209861D01*
X134630Y212169D01*
X133594Y214669D01*
X132962Y217302D01*
X132748Y220020D01*
X132746Y220026D01*
X132747Y220033D01*
X132721Y220091D01*
X132699Y220150D01*
X132693Y220155D01*
X132690Y220161D01*
X132637Y220196D01*
X132587Y220234D01*
X132580Y220234D01*
X132574Y220238D01*
X132500Y220249D01*
X122500Y220249D01*
X122475Y220242D01*
X122449Y220244D01*
X122409Y220223D01*
X122366Y220210D01*
X122349Y220190D01*
X122326Y220178D01*
X122304Y220139D01*
X122274Y220105D01*
X122270Y220079D01*
X122257Y220056D01*
X122251Y219982D01*
X122531Y216069D01*
X122535Y216059D01*
X122536Y216033D01*
X123370Y212199D01*
X123375Y212191D01*
X123380Y212165D01*
X124752Y208489D01*
X124757Y208481D01*
X124766Y208457D01*
X126647Y205013D01*
X126654Y205006D01*
X126666Y204983D01*
X129017Y201842D01*
X129025Y201836D01*
X129041Y201815D01*
X131815Y199041D01*
X131824Y199036D01*
X131842Y199017D01*
X134983Y196666D01*
X134992Y196663D01*
X135013Y196647D01*
X138457Y194766D01*
X138466Y194764D01*
X138489Y194752D01*
X142165Y193380D01*
X142175Y193380D01*
X142199Y193370D01*
X146033Y192536D01*
X146043Y192537D01*
X146069Y192531D01*
X149982Y192251D01*
X149992Y192253D01*
X150018Y192251D01*
X153931Y192531D01*
G37*
G36*
X604096Y192531D02*
X604096Y192531D01*
X604105Y192535D01*
X604131Y192536D01*
X607965Y193370D01*
X607973Y193375D01*
X607999Y193380D01*
X611675Y194752D01*
X611683Y194757D01*
X611708Y194766D01*
X615151Y196647D01*
X615158Y196654D01*
X615181Y196666D01*
X618322Y199017D01*
X618328Y199025D01*
X618349Y199041D01*
X621124Y201815D01*
X621128Y201824D01*
X621147Y201842D01*
X623498Y204983D01*
X623502Y204992D01*
X623517Y205013D01*
X625398Y208457D01*
X625400Y208466D01*
X625413Y208489D01*
X626784Y212165D01*
X626784Y212175D01*
X626794Y212199D01*
X627628Y216033D01*
X627627Y216043D01*
X627633Y216069D01*
X627913Y219982D01*
X627907Y220008D01*
X627911Y220033D01*
X627893Y220075D01*
X627883Y220119D01*
X627865Y220137D01*
X627854Y220161D01*
X627817Y220186D01*
X627785Y220218D01*
X627759Y220224D01*
X627738Y220238D01*
X627664Y220249D01*
X617664Y220249D01*
X617657Y220247D01*
X617650Y220249D01*
X617591Y220228D01*
X617530Y220210D01*
X617525Y220205D01*
X617518Y220202D01*
X617480Y220152D01*
X617438Y220105D01*
X617437Y220098D01*
X617433Y220092D01*
X617416Y220020D01*
X617202Y217302D01*
X616570Y214669D01*
X615534Y212169D01*
X614120Y209861D01*
X612362Y207802D01*
X610304Y206044D01*
X607996Y204630D01*
X605495Y203594D01*
X602863Y202962D01*
X600164Y202750D01*
X597466Y202962D01*
X594834Y203594D01*
X592333Y204630D01*
X590025Y206044D01*
X587967Y207802D01*
X587913Y207865D01*
X587487Y208364D01*
X587274Y208613D01*
X587061Y208862D01*
X586848Y209112D01*
X586423Y209610D01*
X586210Y209859D01*
X586209Y209861D01*
X584794Y212169D01*
X583759Y214669D01*
X583127Y217302D01*
X582913Y220020D01*
X582910Y220026D01*
X582911Y220033D01*
X582885Y220091D01*
X582863Y220150D01*
X582857Y220155D01*
X582854Y220161D01*
X582802Y220196D01*
X582751Y220234D01*
X582744Y220234D01*
X582738Y220238D01*
X582664Y220249D01*
X572664Y220249D01*
X572639Y220242D01*
X572613Y220244D01*
X572573Y220223D01*
X572530Y220210D01*
X572513Y220190D01*
X572490Y220178D01*
X572468Y220139D01*
X572438Y220105D01*
X572434Y220079D01*
X572421Y220056D01*
X572416Y219982D01*
X572695Y216069D01*
X572699Y216059D01*
X572701Y216033D01*
X573535Y212199D01*
X573539Y212191D01*
X573545Y212165D01*
X574916Y208489D01*
X574922Y208481D01*
X574931Y208457D01*
X576811Y205013D01*
X576818Y205006D01*
X576830Y204983D01*
X579182Y201842D01*
X579189Y201836D01*
X579205Y201815D01*
X581979Y199041D01*
X581988Y199036D01*
X582006Y199017D01*
X585147Y196666D01*
X585156Y196663D01*
X585177Y196647D01*
X588621Y194766D01*
X588630Y194764D01*
X588653Y194752D01*
X592329Y193380D01*
X592339Y193380D01*
X592364Y193370D01*
X596198Y192536D01*
X596207Y192537D01*
X596233Y192531D01*
X600146Y192251D01*
X600156Y192253D01*
X600182Y192251D01*
X604096Y192531D01*
G37*
G36*
X1729493Y192531D02*
X1729493Y192531D01*
X1729503Y192535D01*
X1729529Y192536D01*
X1733363Y193370D01*
X1733371Y193375D01*
X1733397Y193380D01*
X1737073Y194752D01*
X1737081Y194757D01*
X1737105Y194766D01*
X1740549Y196647D01*
X1740556Y196654D01*
X1740579Y196666D01*
X1743720Y199017D01*
X1743726Y199025D01*
X1743747Y199041D01*
X1746521Y201815D01*
X1746526Y201824D01*
X1746545Y201842D01*
X1748896Y204983D01*
X1748899Y204992D01*
X1748915Y205013D01*
X1750796Y208457D01*
X1750798Y208466D01*
X1750810Y208489D01*
X1752182Y212165D01*
X1752182Y212175D01*
X1752192Y212199D01*
X1753026Y216033D01*
X1753025Y216043D01*
X1753031Y216069D01*
X1753311Y219982D01*
X1753305Y220008D01*
X1753309Y220033D01*
X1753291Y220075D01*
X1753281Y220119D01*
X1753263Y220137D01*
X1753252Y220161D01*
X1753214Y220186D01*
X1753183Y220218D01*
X1753157Y220224D01*
X1753136Y220238D01*
X1753062Y220249D01*
X1743062Y220249D01*
X1743055Y220247D01*
X1743048Y220249D01*
X1742989Y220228D01*
X1742928Y220210D01*
X1742923Y220205D01*
X1742916Y220202D01*
X1742878Y220152D01*
X1742836Y220105D01*
X1742835Y220098D01*
X1742830Y220092D01*
X1742814Y220020D01*
X1742600Y217302D01*
X1741968Y214669D01*
X1740932Y212169D01*
X1739518Y209861D01*
X1737760Y207802D01*
X1735701Y206044D01*
X1733393Y204630D01*
X1730893Y203594D01*
X1728260Y202962D01*
X1725562Y202750D01*
X1722864Y202962D01*
X1720231Y203594D01*
X1717731Y204630D01*
X1715423Y206044D01*
X1713364Y207802D01*
X1713311Y207865D01*
X1712885Y208364D01*
X1712672Y208613D01*
X1712459Y208862D01*
X1712246Y209112D01*
X1711821Y209610D01*
X1711820Y209610D01*
X1711608Y209859D01*
X1711606Y209861D01*
X1710192Y212169D01*
X1709156Y214669D01*
X1708524Y217302D01*
X1708310Y220020D01*
X1708308Y220026D01*
X1708309Y220033D01*
X1708283Y220091D01*
X1708261Y220150D01*
X1708255Y220155D01*
X1708252Y220161D01*
X1708199Y220196D01*
X1708149Y220234D01*
X1708142Y220234D01*
X1708136Y220238D01*
X1708062Y220249D01*
X1698062Y220249D01*
X1698037Y220242D01*
X1698011Y220244D01*
X1697971Y220223D01*
X1697928Y220210D01*
X1697911Y220190D01*
X1697888Y220178D01*
X1697866Y220139D01*
X1697836Y220105D01*
X1697832Y220079D01*
X1697819Y220056D01*
X1697813Y219982D01*
X1698093Y216069D01*
X1698097Y216059D01*
X1698098Y216033D01*
X1698932Y212199D01*
X1698937Y212191D01*
X1698942Y212165D01*
X1700314Y208489D01*
X1700319Y208481D01*
X1700328Y208457D01*
X1702209Y205013D01*
X1702216Y205006D01*
X1702228Y204983D01*
X1704579Y201842D01*
X1704587Y201836D01*
X1704603Y201815D01*
X1707377Y199041D01*
X1707386Y199036D01*
X1707404Y199017D01*
X1710545Y196666D01*
X1710554Y196663D01*
X1710575Y196647D01*
X1714019Y194766D01*
X1714028Y194764D01*
X1714051Y194752D01*
X1717727Y193380D01*
X1717737Y193380D01*
X1717761Y193370D01*
X1721595Y192536D01*
X1721605Y192537D01*
X1721631Y192531D01*
X1725544Y192251D01*
X1725554Y192253D01*
X1725580Y192251D01*
X1729493Y192531D01*
G37*
G36*
X379001Y192531D02*
X379001Y192531D01*
X379010Y192535D01*
X379036Y192536D01*
X382870Y193370D01*
X382879Y193375D01*
X382904Y193380D01*
X386580Y194752D01*
X386588Y194757D01*
X386613Y194766D01*
X390056Y196647D01*
X390063Y196654D01*
X390086Y196666D01*
X393227Y199017D01*
X393233Y199025D01*
X393254Y199041D01*
X396029Y201815D01*
X396033Y201824D01*
X396052Y201842D01*
X398403Y204983D01*
X398407Y204992D01*
X398423Y205013D01*
X400303Y208457D01*
X400305Y208466D01*
X400318Y208489D01*
X401689Y212165D01*
X401690Y212175D01*
X401699Y212199D01*
X402533Y216033D01*
X402532Y216043D01*
X402538Y216069D01*
X402818Y219982D01*
X402813Y220008D01*
X402816Y220033D01*
X402798Y220075D01*
X402789Y220119D01*
X402770Y220137D01*
X402760Y220161D01*
X402722Y220186D01*
X402690Y220218D01*
X402665Y220224D01*
X402643Y220238D01*
X402569Y220249D01*
X392569Y220249D01*
X392562Y220247D01*
X392555Y220249D01*
X392496Y220228D01*
X392435Y220210D01*
X392430Y220205D01*
X392424Y220202D01*
X392385Y220152D01*
X392343Y220105D01*
X392342Y220098D01*
X392338Y220092D01*
X392321Y220020D01*
X392107Y217302D01*
X391475Y214669D01*
X390439Y212169D01*
X389025Y209861D01*
X387267Y207802D01*
X385209Y206044D01*
X382901Y204630D01*
X380400Y203594D01*
X377768Y202962D01*
X375069Y202750D01*
X372371Y202962D01*
X369739Y203594D01*
X367238Y204630D01*
X364930Y206044D01*
X362872Y207802D01*
X362818Y207865D01*
X362392Y208364D01*
X362179Y208613D01*
X361967Y208862D01*
X361966Y208862D01*
X361754Y209112D01*
X361328Y209610D01*
X361115Y209859D01*
X361114Y209861D01*
X359700Y212169D01*
X358664Y214669D01*
X358032Y217302D01*
X357818Y220020D01*
X357815Y220026D01*
X357816Y220033D01*
X357791Y220091D01*
X357768Y220150D01*
X357763Y220155D01*
X357760Y220161D01*
X357707Y220196D01*
X357656Y220234D01*
X357649Y220234D01*
X357643Y220238D01*
X357569Y220249D01*
X347569Y220249D01*
X347544Y220242D01*
X347518Y220244D01*
X347479Y220223D01*
X347435Y220210D01*
X347418Y220190D01*
X347395Y220178D01*
X347373Y220139D01*
X347343Y220105D01*
X347339Y220079D01*
X347327Y220056D01*
X347321Y219982D01*
X347601Y216069D01*
X347604Y216059D01*
X347606Y216033D01*
X348440Y212199D01*
X348444Y212191D01*
X348450Y212165D01*
X349821Y208489D01*
X349827Y208481D01*
X349836Y208457D01*
X351716Y205013D01*
X351723Y205006D01*
X351735Y204983D01*
X354087Y201842D01*
X354095Y201836D01*
X354110Y201815D01*
X356885Y199041D01*
X356893Y199036D01*
X356911Y199017D01*
X360052Y196666D01*
X360062Y196663D01*
X360082Y196647D01*
X363526Y194766D01*
X363535Y194764D01*
X363558Y194752D01*
X367235Y193380D01*
X367244Y193380D01*
X367269Y193370D01*
X371103Y192536D01*
X371112Y192537D01*
X371138Y192531D01*
X375052Y192251D01*
X375061Y192253D01*
X375087Y192251D01*
X379001Y192531D01*
G37*
G36*
X1054260Y192531D02*
X1054260Y192531D01*
X1054269Y192535D01*
X1054295Y192536D01*
X1058129Y193370D01*
X1058138Y193375D01*
X1058163Y193380D01*
X1061839Y194752D01*
X1061847Y194757D01*
X1061872Y194766D01*
X1065315Y196647D01*
X1065322Y196654D01*
X1065345Y196666D01*
X1068486Y199017D01*
X1068492Y199025D01*
X1068513Y199041D01*
X1071288Y201815D01*
X1071292Y201824D01*
X1071311Y201842D01*
X1073662Y204983D01*
X1073666Y204992D01*
X1073682Y205013D01*
X1075562Y208457D01*
X1075564Y208466D01*
X1075577Y208489D01*
X1076948Y212165D01*
X1076949Y212175D01*
X1076958Y212199D01*
X1077792Y216033D01*
X1077791Y216043D01*
X1077797Y216069D01*
X1078077Y219982D01*
X1078072Y220008D01*
X1078075Y220033D01*
X1078057Y220075D01*
X1078048Y220119D01*
X1078029Y220137D01*
X1078019Y220161D01*
X1077981Y220186D01*
X1077949Y220218D01*
X1077924Y220224D01*
X1077902Y220238D01*
X1077828Y220249D01*
X1067828Y220249D01*
X1067821Y220247D01*
X1067814Y220249D01*
X1067755Y220228D01*
X1067694Y220210D01*
X1067689Y220205D01*
X1067683Y220202D01*
X1067644Y220152D01*
X1067602Y220105D01*
X1067601Y220098D01*
X1067597Y220092D01*
X1067580Y220020D01*
X1067366Y217302D01*
X1066734Y214669D01*
X1065698Y212169D01*
X1064284Y209861D01*
X1062526Y207802D01*
X1060468Y206044D01*
X1058160Y204630D01*
X1055659Y203594D01*
X1053027Y202962D01*
X1050328Y202750D01*
X1047630Y202962D01*
X1044998Y203594D01*
X1042497Y204630D01*
X1040189Y206044D01*
X1038131Y207802D01*
X1038077Y207865D01*
X1037651Y208364D01*
X1037438Y208613D01*
X1037226Y208862D01*
X1037225Y208862D01*
X1037013Y209112D01*
X1036587Y209610D01*
X1036374Y209859D01*
X1036373Y209861D01*
X1034959Y212169D01*
X1033923Y214669D01*
X1033291Y217302D01*
X1033077Y220020D01*
X1033074Y220026D01*
X1033075Y220033D01*
X1033050Y220091D01*
X1033027Y220150D01*
X1033022Y220155D01*
X1033019Y220161D01*
X1032966Y220196D01*
X1032915Y220234D01*
X1032908Y220234D01*
X1032902Y220238D01*
X1032828Y220249D01*
X1022828Y220249D01*
X1022803Y220242D01*
X1022777Y220244D01*
X1022738Y220223D01*
X1022694Y220210D01*
X1022677Y220190D01*
X1022654Y220178D01*
X1022632Y220139D01*
X1022602Y220105D01*
X1022598Y220079D01*
X1022586Y220056D01*
X1022580Y219982D01*
X1022860Y216069D01*
X1022863Y216059D01*
X1022865Y216033D01*
X1023699Y212199D01*
X1023703Y212191D01*
X1023709Y212165D01*
X1025080Y208489D01*
X1025086Y208481D01*
X1025095Y208457D01*
X1026975Y205013D01*
X1026982Y205006D01*
X1026994Y204983D01*
X1029346Y201842D01*
X1029354Y201836D01*
X1029369Y201815D01*
X1032144Y199041D01*
X1032152Y199036D01*
X1032170Y199017D01*
X1035311Y196666D01*
X1035321Y196663D01*
X1035341Y196647D01*
X1038785Y194766D01*
X1038794Y194764D01*
X1038817Y194752D01*
X1042494Y193380D01*
X1042503Y193380D01*
X1042528Y193370D01*
X1046362Y192536D01*
X1046371Y192537D01*
X1046397Y192531D01*
X1050311Y192251D01*
X1050320Y192253D01*
X1050346Y192251D01*
X1054260Y192531D01*
G37*
G36*
X52496Y478253D02*
X52496Y478253D01*
X52503Y478251D01*
X52563Y478272D01*
X52624Y478290D01*
X52628Y478295D01*
X52635Y478298D01*
X52674Y478348D01*
X52716Y478395D01*
X52717Y478402D01*
X52721Y478408D01*
X52738Y478480D01*
X52952Y481198D01*
X53584Y483831D01*
X54620Y486331D01*
X56034Y488639D01*
X57792Y490698D01*
X59850Y492456D01*
X62158Y493870D01*
X64659Y494906D01*
X67291Y495538D01*
X69989Y495750D01*
X72688Y495538D01*
X75320Y494906D01*
X77821Y493870D01*
X80129Y492456D01*
X82187Y490698D01*
X82311Y490552D01*
X82524Y490303D01*
X82950Y489804D01*
X83163Y489555D01*
X83376Y489306D01*
X83588Y489057D01*
X83589Y489057D01*
X83801Y488807D01*
X83945Y488639D01*
X85359Y486331D01*
X86395Y483831D01*
X87027Y481198D01*
X87241Y478480D01*
X87244Y478474D01*
X87242Y478467D01*
X87268Y478409D01*
X87291Y478350D01*
X87296Y478345D01*
X87299Y478339D01*
X87352Y478304D01*
X87403Y478266D01*
X87410Y478266D01*
X87416Y478262D01*
X87489Y478251D01*
X97489Y478251D01*
X97514Y478258D01*
X97540Y478256D01*
X97580Y478277D01*
X97624Y478290D01*
X97641Y478310D01*
X97664Y478322D01*
X97686Y478361D01*
X97716Y478395D01*
X97719Y478421D01*
X97732Y478444D01*
X97738Y478518D01*
X97458Y482431D01*
X97455Y482441D01*
X97453Y482467D01*
X96619Y486301D01*
X96614Y486309D01*
X96609Y486335D01*
X95238Y490011D01*
X95232Y490019D01*
X95223Y490043D01*
X93343Y493487D01*
X93336Y493494D01*
X93323Y493517D01*
X90972Y496658D01*
X90964Y496664D01*
X90949Y496685D01*
X88174Y499459D01*
X88166Y499464D01*
X88147Y499483D01*
X85006Y501834D01*
X84997Y501837D01*
X84976Y501853D01*
X81533Y503734D01*
X81523Y503736D01*
X81500Y503748D01*
X77824Y505120D01*
X77815Y505120D01*
X77790Y505130D01*
X73956Y505964D01*
X73946Y505963D01*
X73921Y505969D01*
X70007Y506249D01*
X69998Y506247D01*
X69972Y506249D01*
X66058Y505969D01*
X66049Y505965D01*
X66023Y505964D01*
X62189Y505130D01*
X62180Y505125D01*
X62155Y505120D01*
X58478Y503748D01*
X58471Y503743D01*
X58446Y503734D01*
X55002Y501853D01*
X54996Y501846D01*
X54972Y501834D01*
X51831Y499483D01*
X51826Y499475D01*
X51805Y499459D01*
X49030Y496685D01*
X49025Y496676D01*
X49007Y496658D01*
X46655Y493517D01*
X46652Y493508D01*
X46636Y493487D01*
X44756Y490043D01*
X44754Y490034D01*
X44741Y490011D01*
X43370Y486335D01*
X43369Y486325D01*
X43360Y486301D01*
X42526Y482467D01*
X42526Y482457D01*
X42521Y482431D01*
X42241Y478518D01*
X42246Y478492D01*
X42242Y478467D01*
X42261Y478425D01*
X42270Y478381D01*
X42289Y478363D01*
X42299Y478339D01*
X42337Y478314D01*
X42369Y478282D01*
X42394Y478276D01*
X42416Y478262D01*
X42489Y478251D01*
X52489Y478251D01*
X52496Y478253D01*
G37*
G36*
X1177920Y478253D02*
X1177920Y478253D01*
X1177927Y478251D01*
X1177986Y478272D01*
X1178047Y478290D01*
X1178052Y478295D01*
X1178058Y478298D01*
X1178097Y478348D01*
X1178139Y478395D01*
X1178140Y478402D01*
X1178144Y478408D01*
X1178161Y478480D01*
X1178375Y481198D01*
X1179007Y483831D01*
X1180043Y486331D01*
X1181457Y488639D01*
X1183215Y490698D01*
X1185273Y492456D01*
X1187581Y493870D01*
X1190082Y494906D01*
X1192714Y495538D01*
X1195413Y495750D01*
X1198111Y495538D01*
X1200743Y494906D01*
X1203244Y493870D01*
X1205552Y492456D01*
X1207610Y490698D01*
X1207734Y490552D01*
X1207947Y490303D01*
X1208373Y489804D01*
X1208586Y489555D01*
X1208799Y489306D01*
X1209012Y489057D01*
X1209225Y488807D01*
X1209368Y488639D01*
X1210782Y486331D01*
X1211818Y483831D01*
X1212450Y481198D01*
X1212664Y478480D01*
X1212667Y478474D01*
X1212666Y478467D01*
X1212691Y478409D01*
X1212714Y478350D01*
X1212720Y478345D01*
X1212722Y478339D01*
X1212775Y478304D01*
X1212826Y478266D01*
X1212833Y478266D01*
X1212839Y478262D01*
X1212913Y478251D01*
X1222913Y478251D01*
X1222938Y478258D01*
X1222964Y478256D01*
X1223003Y478277D01*
X1223047Y478290D01*
X1223064Y478310D01*
X1223087Y478322D01*
X1223109Y478361D01*
X1223139Y478395D01*
X1223143Y478421D01*
X1223155Y478444D01*
X1223161Y478518D01*
X1222881Y482431D01*
X1222878Y482441D01*
X1222876Y482467D01*
X1222042Y486301D01*
X1222038Y486309D01*
X1222032Y486335D01*
X1220661Y490011D01*
X1220655Y490019D01*
X1220646Y490043D01*
X1218766Y493487D01*
X1218759Y493494D01*
X1218747Y493517D01*
X1216395Y496658D01*
X1216388Y496664D01*
X1216372Y496685D01*
X1213598Y499459D01*
X1213589Y499464D01*
X1213571Y499483D01*
X1210430Y501834D01*
X1210421Y501837D01*
X1210400Y501853D01*
X1206956Y503734D01*
X1206947Y503736D01*
X1206924Y503748D01*
X1203247Y505120D01*
X1203238Y505120D01*
X1203213Y505130D01*
X1199379Y505964D01*
X1199370Y505963D01*
X1199344Y505969D01*
X1195430Y506249D01*
X1195421Y506247D01*
X1195395Y506249D01*
X1191481Y505969D01*
X1191472Y505965D01*
X1191446Y505964D01*
X1187612Y505130D01*
X1187603Y505125D01*
X1187578Y505120D01*
X1183902Y503748D01*
X1183894Y503743D01*
X1183869Y503734D01*
X1180426Y501853D01*
X1180419Y501846D01*
X1180396Y501834D01*
X1177255Y499483D01*
X1177249Y499475D01*
X1177228Y499459D01*
X1174453Y496685D01*
X1174449Y496676D01*
X1174430Y496658D01*
X1172079Y493517D01*
X1172075Y493508D01*
X1172059Y493487D01*
X1170179Y490043D01*
X1170177Y490034D01*
X1170164Y490011D01*
X1168793Y486335D01*
X1168792Y486325D01*
X1168783Y486301D01*
X1167949Y482467D01*
X1167950Y482457D01*
X1167944Y482431D01*
X1167664Y478518D01*
X1167669Y478492D01*
X1167666Y478467D01*
X1167684Y478425D01*
X1167694Y478381D01*
X1167712Y478363D01*
X1167722Y478339D01*
X1167760Y478314D01*
X1167792Y478282D01*
X1167817Y478276D01*
X1167839Y478262D01*
X1167913Y478251D01*
X1177913Y478251D01*
X1177920Y478253D01*
G37*
G36*
X1402989Y478253D02*
X1402989Y478253D01*
X1402996Y478251D01*
X1403055Y478272D01*
X1403116Y478290D01*
X1403121Y478295D01*
X1403128Y478298D01*
X1403167Y478348D01*
X1403208Y478395D01*
X1403209Y478402D01*
X1403214Y478408D01*
X1403230Y478480D01*
X1403444Y481198D01*
X1404076Y483831D01*
X1405112Y486331D01*
X1406526Y488639D01*
X1408284Y490698D01*
X1410343Y492456D01*
X1412651Y493870D01*
X1415151Y494906D01*
X1417784Y495538D01*
X1420482Y495750D01*
X1423180Y495538D01*
X1425813Y494906D01*
X1428313Y493870D01*
X1430621Y492456D01*
X1432680Y490698D01*
X1432804Y490552D01*
X1433017Y490303D01*
X1433442Y489804D01*
X1433443Y489804D01*
X1433655Y489555D01*
X1433868Y489306D01*
X1434081Y489057D01*
X1434294Y488807D01*
X1434438Y488639D01*
X1435852Y486331D01*
X1436888Y483831D01*
X1437520Y481198D01*
X1437734Y478480D01*
X1437736Y478474D01*
X1437735Y478467D01*
X1437761Y478409D01*
X1437783Y478350D01*
X1437789Y478345D01*
X1437792Y478339D01*
X1437845Y478304D01*
X1437895Y478266D01*
X1437903Y478266D01*
X1437909Y478262D01*
X1437982Y478251D01*
X1447982Y478251D01*
X1448007Y478258D01*
X1448033Y478256D01*
X1448073Y478277D01*
X1448116Y478290D01*
X1448133Y478310D01*
X1448156Y478322D01*
X1448178Y478361D01*
X1448208Y478395D01*
X1448212Y478421D01*
X1448225Y478444D01*
X1448231Y478518D01*
X1447951Y482431D01*
X1447947Y482441D01*
X1447946Y482467D01*
X1447112Y486301D01*
X1447107Y486309D01*
X1447102Y486335D01*
X1445730Y490011D01*
X1445725Y490019D01*
X1445716Y490043D01*
X1443835Y493487D01*
X1443828Y493494D01*
X1443816Y493517D01*
X1441465Y496658D01*
X1441457Y496664D01*
X1441441Y496685D01*
X1438667Y499459D01*
X1438658Y499464D01*
X1438640Y499483D01*
X1435499Y501834D01*
X1435490Y501837D01*
X1435469Y501853D01*
X1432025Y503734D01*
X1432016Y503736D01*
X1431993Y503748D01*
X1428317Y505120D01*
X1428307Y505120D01*
X1428283Y505130D01*
X1424449Y505964D01*
X1424439Y505963D01*
X1424413Y505969D01*
X1420500Y506249D01*
X1420490Y506247D01*
X1420464Y506249D01*
X1416551Y505969D01*
X1416541Y505965D01*
X1416515Y505964D01*
X1412681Y505130D01*
X1412673Y505125D01*
X1412647Y505120D01*
X1408971Y503748D01*
X1408963Y503743D01*
X1408939Y503734D01*
X1405495Y501853D01*
X1405488Y501846D01*
X1405465Y501834D01*
X1402324Y499483D01*
X1402318Y499475D01*
X1402297Y499459D01*
X1399523Y496685D01*
X1399518Y496676D01*
X1399499Y496658D01*
X1397148Y493517D01*
X1397145Y493508D01*
X1397129Y493487D01*
X1395248Y490043D01*
X1395246Y490034D01*
X1395234Y490011D01*
X1393862Y486335D01*
X1393862Y486325D01*
X1393852Y486301D01*
X1393018Y482467D01*
X1393019Y482457D01*
X1393013Y482431D01*
X1392733Y478518D01*
X1392739Y478492D01*
X1392735Y478467D01*
X1392753Y478425D01*
X1392763Y478381D01*
X1392781Y478363D01*
X1392792Y478339D01*
X1392830Y478314D01*
X1392861Y478282D01*
X1392887Y478276D01*
X1392909Y478262D01*
X1392982Y478251D01*
X1402982Y478251D01*
X1402989Y478253D01*
G37*
G36*
X502661Y478253D02*
X502661Y478253D01*
X502668Y478251D01*
X502727Y478272D01*
X502788Y478290D01*
X502793Y478295D01*
X502799Y478298D01*
X502838Y478348D01*
X502880Y478395D01*
X502881Y478402D01*
X502885Y478408D01*
X502902Y478480D01*
X503116Y481198D01*
X503748Y483831D01*
X504784Y486331D01*
X506198Y488639D01*
X507956Y490698D01*
X510014Y492456D01*
X512322Y493870D01*
X514823Y494906D01*
X517455Y495538D01*
X520154Y495750D01*
X522852Y495538D01*
X525484Y494906D01*
X527985Y493870D01*
X530293Y492456D01*
X532351Y490698D01*
X532475Y490552D01*
X532688Y490303D01*
X533114Y489804D01*
X533327Y489555D01*
X533540Y489306D01*
X533753Y489057D01*
X533966Y488807D01*
X534109Y488639D01*
X535523Y486331D01*
X536559Y483831D01*
X537191Y481198D01*
X537405Y478480D01*
X537408Y478474D01*
X537407Y478467D01*
X537432Y478409D01*
X537455Y478350D01*
X537461Y478345D01*
X537463Y478339D01*
X537516Y478304D01*
X537567Y478266D01*
X537574Y478266D01*
X537580Y478262D01*
X537654Y478251D01*
X547654Y478251D01*
X547679Y478258D01*
X547705Y478256D01*
X547744Y478277D01*
X547788Y478290D01*
X547805Y478310D01*
X547828Y478322D01*
X547850Y478361D01*
X547880Y478395D01*
X547884Y478421D01*
X547896Y478444D01*
X547902Y478518D01*
X547622Y482431D01*
X547619Y482441D01*
X547617Y482467D01*
X546783Y486301D01*
X546779Y486309D01*
X546773Y486335D01*
X545402Y490011D01*
X545396Y490019D01*
X545387Y490043D01*
X543507Y493487D01*
X543500Y493494D01*
X543488Y493517D01*
X541136Y496658D01*
X541129Y496664D01*
X541113Y496685D01*
X538339Y499459D01*
X538330Y499464D01*
X538312Y499483D01*
X535171Y501834D01*
X535162Y501837D01*
X535141Y501853D01*
X531697Y503734D01*
X531688Y503736D01*
X531665Y503748D01*
X527988Y505120D01*
X527979Y505120D01*
X527954Y505130D01*
X524120Y505964D01*
X524111Y505963D01*
X524085Y505969D01*
X520171Y506249D01*
X520162Y506247D01*
X520136Y506249D01*
X516222Y505969D01*
X516213Y505965D01*
X516187Y505964D01*
X512353Y505130D01*
X512344Y505125D01*
X512319Y505120D01*
X508643Y503748D01*
X508635Y503743D01*
X508610Y503734D01*
X505167Y501853D01*
X505160Y501846D01*
X505137Y501834D01*
X501996Y499483D01*
X501990Y499475D01*
X501969Y499459D01*
X499194Y496685D01*
X499190Y496676D01*
X499171Y496658D01*
X496820Y493517D01*
X496816Y493508D01*
X496800Y493487D01*
X494920Y490043D01*
X494918Y490034D01*
X494905Y490011D01*
X493534Y486335D01*
X493533Y486325D01*
X493524Y486301D01*
X492690Y482467D01*
X492691Y482457D01*
X492685Y482431D01*
X492405Y478518D01*
X492410Y478492D01*
X492407Y478467D01*
X492425Y478425D01*
X492435Y478381D01*
X492453Y478363D01*
X492463Y478339D01*
X492501Y478314D01*
X492533Y478282D01*
X492558Y478276D01*
X492580Y478262D01*
X492654Y478251D01*
X502654Y478251D01*
X502661Y478253D01*
G37*
G36*
X1628058Y478253D02*
X1628058Y478253D01*
X1628065Y478251D01*
X1628125Y478272D01*
X1628186Y478290D01*
X1628190Y478295D01*
X1628197Y478298D01*
X1628236Y478348D01*
X1628278Y478395D01*
X1628279Y478402D01*
X1628283Y478408D01*
X1628300Y478480D01*
X1628514Y481198D01*
X1629146Y483831D01*
X1630182Y486331D01*
X1631596Y488639D01*
X1633354Y490698D01*
X1635412Y492456D01*
X1637720Y493870D01*
X1640221Y494906D01*
X1642853Y495538D01*
X1645551Y495750D01*
X1648250Y495538D01*
X1650882Y494906D01*
X1653383Y493870D01*
X1655691Y492456D01*
X1657749Y490698D01*
X1657873Y490552D01*
X1658086Y490303D01*
X1658512Y489804D01*
X1658725Y489555D01*
X1658938Y489306D01*
X1659150Y489057D01*
X1659151Y489057D01*
X1659363Y488807D01*
X1659507Y488639D01*
X1660921Y486331D01*
X1661957Y483831D01*
X1662589Y481198D01*
X1662803Y478480D01*
X1662806Y478474D01*
X1662804Y478467D01*
X1662830Y478409D01*
X1662853Y478350D01*
X1662858Y478345D01*
X1662861Y478339D01*
X1662914Y478304D01*
X1662965Y478266D01*
X1662972Y478266D01*
X1662978Y478262D01*
X1663051Y478251D01*
X1673051Y478251D01*
X1673076Y478258D01*
X1673102Y478256D01*
X1673142Y478277D01*
X1673186Y478290D01*
X1673203Y478310D01*
X1673226Y478322D01*
X1673248Y478361D01*
X1673278Y478395D01*
X1673281Y478421D01*
X1673294Y478444D01*
X1673300Y478518D01*
X1673020Y482431D01*
X1673017Y482441D01*
X1673015Y482467D01*
X1672181Y486301D01*
X1672176Y486309D01*
X1672171Y486335D01*
X1670800Y490011D01*
X1670794Y490019D01*
X1670785Y490043D01*
X1668905Y493487D01*
X1668898Y493494D01*
X1668885Y493517D01*
X1666534Y496658D01*
X1666526Y496664D01*
X1666511Y496685D01*
X1663736Y499459D01*
X1663728Y499464D01*
X1663709Y499483D01*
X1660568Y501834D01*
X1660559Y501837D01*
X1660538Y501853D01*
X1657095Y503734D01*
X1657085Y503736D01*
X1657062Y503748D01*
X1653386Y505120D01*
X1653377Y505120D01*
X1653352Y505130D01*
X1649518Y505964D01*
X1649508Y505963D01*
X1649483Y505969D01*
X1645569Y506249D01*
X1645560Y506247D01*
X1645534Y506249D01*
X1641620Y505969D01*
X1641611Y505965D01*
X1641585Y505964D01*
X1637751Y505130D01*
X1637742Y505125D01*
X1637717Y505120D01*
X1634040Y503748D01*
X1634033Y503743D01*
X1634008Y503734D01*
X1630564Y501853D01*
X1630558Y501846D01*
X1630534Y501834D01*
X1627393Y499483D01*
X1627388Y499475D01*
X1627367Y499459D01*
X1624592Y496685D01*
X1624587Y496676D01*
X1624569Y496658D01*
X1622217Y493517D01*
X1622214Y493508D01*
X1622198Y493487D01*
X1620318Y490043D01*
X1620316Y490034D01*
X1620303Y490011D01*
X1618932Y486335D01*
X1618931Y486325D01*
X1618922Y486301D01*
X1618088Y482467D01*
X1618088Y482457D01*
X1618083Y482431D01*
X1617803Y478518D01*
X1617808Y478492D01*
X1617804Y478467D01*
X1617823Y478425D01*
X1617832Y478381D01*
X1617851Y478363D01*
X1617861Y478339D01*
X1617899Y478314D01*
X1617931Y478282D01*
X1617956Y478276D01*
X1617978Y478262D01*
X1618051Y478251D01*
X1628051Y478251D01*
X1628058Y478253D01*
G37*
G36*
X727755Y478253D02*
X727755Y478253D01*
X727762Y478251D01*
X727822Y478272D01*
X727883Y478290D01*
X727887Y478295D01*
X727894Y478298D01*
X727933Y478348D01*
X727975Y478395D01*
X727976Y478402D01*
X727980Y478408D01*
X727997Y478480D01*
X728211Y481198D01*
X728843Y483831D01*
X729879Y486331D01*
X731293Y488639D01*
X733051Y490698D01*
X735109Y492456D01*
X737417Y493870D01*
X739918Y494906D01*
X742550Y495538D01*
X745248Y495750D01*
X747947Y495538D01*
X750579Y494906D01*
X753080Y493870D01*
X755388Y492456D01*
X757446Y490698D01*
X757570Y490552D01*
X757783Y490303D01*
X758209Y489804D01*
X758422Y489555D01*
X758635Y489306D01*
X758847Y489057D01*
X758848Y489057D01*
X759060Y488807D01*
X759204Y488639D01*
X760618Y486331D01*
X761654Y483831D01*
X762286Y481198D01*
X762500Y478480D01*
X762503Y478474D01*
X762501Y478467D01*
X762527Y478409D01*
X762550Y478350D01*
X762555Y478345D01*
X762558Y478339D01*
X762611Y478304D01*
X762662Y478266D01*
X762669Y478266D01*
X762675Y478262D01*
X762748Y478251D01*
X772748Y478251D01*
X772773Y478258D01*
X772799Y478256D01*
X772839Y478277D01*
X772883Y478290D01*
X772900Y478310D01*
X772923Y478322D01*
X772945Y478361D01*
X772975Y478395D01*
X772978Y478421D01*
X772991Y478444D01*
X772997Y478518D01*
X772717Y482431D01*
X772714Y482441D01*
X772712Y482467D01*
X771878Y486301D01*
X771873Y486309D01*
X771868Y486335D01*
X770497Y490011D01*
X770491Y490019D01*
X770482Y490043D01*
X768602Y493487D01*
X768595Y493494D01*
X768582Y493517D01*
X766231Y496658D01*
X766223Y496664D01*
X766208Y496685D01*
X763433Y499459D01*
X763425Y499464D01*
X763406Y499483D01*
X760265Y501834D01*
X760256Y501837D01*
X760235Y501853D01*
X756792Y503734D01*
X756782Y503736D01*
X756759Y503748D01*
X753083Y505120D01*
X753074Y505120D01*
X753049Y505130D01*
X749215Y505964D01*
X749205Y505963D01*
X749180Y505969D01*
X745266Y506249D01*
X745257Y506247D01*
X745231Y506249D01*
X741317Y505969D01*
X741308Y505965D01*
X741282Y505964D01*
X737448Y505130D01*
X737439Y505125D01*
X737414Y505120D01*
X733737Y503748D01*
X733730Y503743D01*
X733705Y503734D01*
X730261Y501853D01*
X730255Y501846D01*
X730231Y501834D01*
X727090Y499483D01*
X727085Y499475D01*
X727064Y499459D01*
X724289Y496685D01*
X724284Y496676D01*
X724266Y496658D01*
X721914Y493517D01*
X721911Y493508D01*
X721895Y493487D01*
X720015Y490043D01*
X720013Y490034D01*
X720000Y490011D01*
X718629Y486335D01*
X718628Y486325D01*
X718619Y486301D01*
X717785Y482467D01*
X717785Y482457D01*
X717780Y482431D01*
X717500Y478518D01*
X717505Y478492D01*
X717501Y478467D01*
X717520Y478425D01*
X717529Y478381D01*
X717548Y478363D01*
X717558Y478339D01*
X717596Y478314D01*
X717628Y478282D01*
X717653Y478276D01*
X717675Y478262D01*
X717748Y478251D01*
X727748Y478251D01*
X727755Y478253D01*
G37*
G36*
X277591Y478253D02*
X277591Y478253D01*
X277598Y478251D01*
X277657Y478272D01*
X277718Y478290D01*
X277723Y478295D01*
X277730Y478298D01*
X277769Y478348D01*
X277810Y478395D01*
X277811Y478402D01*
X277816Y478408D01*
X277833Y478480D01*
X278047Y481198D01*
X278679Y483831D01*
X279714Y486331D01*
X281129Y488639D01*
X282887Y490698D01*
X284945Y492456D01*
X287253Y493870D01*
X289754Y494906D01*
X292386Y495538D01*
X295084Y495750D01*
X297783Y495538D01*
X300415Y494906D01*
X302916Y493870D01*
X305224Y492456D01*
X307282Y490698D01*
X307406Y490552D01*
X307619Y490303D01*
X308045Y489804D01*
X308258Y489555D01*
X308470Y489306D01*
X308683Y489057D01*
X308896Y488807D01*
X309040Y488639D01*
X310454Y486331D01*
X311490Y483831D01*
X312122Y481198D01*
X312336Y478480D01*
X312338Y478474D01*
X312337Y478467D01*
X312363Y478409D01*
X312385Y478350D01*
X312391Y478345D01*
X312394Y478339D01*
X312447Y478304D01*
X312497Y478266D01*
X312505Y478266D01*
X312511Y478262D01*
X312584Y478251D01*
X322584Y478251D01*
X322609Y478258D01*
X322635Y478256D01*
X322675Y478277D01*
X322718Y478290D01*
X322736Y478310D01*
X322758Y478322D01*
X322781Y478361D01*
X322810Y478395D01*
X322814Y478421D01*
X322827Y478444D01*
X322833Y478518D01*
X322553Y482431D01*
X322550Y482441D01*
X322548Y482467D01*
X321714Y486301D01*
X321709Y486309D01*
X321704Y486335D01*
X320333Y490011D01*
X320327Y490019D01*
X320318Y490043D01*
X318437Y493487D01*
X318431Y493494D01*
X318418Y493517D01*
X316067Y496658D01*
X316059Y496664D01*
X316044Y496685D01*
X313269Y499459D01*
X313261Y499464D01*
X313242Y499483D01*
X310101Y501834D01*
X310092Y501837D01*
X310071Y501853D01*
X306628Y503734D01*
X306618Y503736D01*
X306595Y503748D01*
X302919Y505120D01*
X302909Y505120D01*
X302885Y505130D01*
X299051Y505964D01*
X299041Y505963D01*
X299016Y505969D01*
X295102Y506249D01*
X295093Y506247D01*
X295066Y506249D01*
X291153Y505969D01*
X291144Y505965D01*
X291118Y505964D01*
X287284Y505130D01*
X287275Y505125D01*
X287249Y505120D01*
X283573Y503748D01*
X283565Y503743D01*
X283541Y503734D01*
X280097Y501853D01*
X280090Y501846D01*
X280067Y501834D01*
X276926Y499483D01*
X276920Y499475D01*
X276899Y499459D01*
X274125Y496685D01*
X274120Y496676D01*
X274102Y496658D01*
X271750Y493517D01*
X271747Y493508D01*
X271731Y493487D01*
X269851Y490043D01*
X269849Y490034D01*
X269836Y490011D01*
X268465Y486335D01*
X268464Y486325D01*
X268455Y486301D01*
X267621Y482467D01*
X267621Y482457D01*
X267615Y482431D01*
X267336Y478518D01*
X267341Y478492D01*
X267337Y478467D01*
X267356Y478425D01*
X267365Y478381D01*
X267383Y478363D01*
X267394Y478339D01*
X267432Y478314D01*
X267464Y478282D01*
X267489Y478276D01*
X267511Y478262D01*
X267584Y478251D01*
X277584Y478251D01*
X277591Y478253D01*
G37*
G36*
X952825Y478253D02*
X952825Y478253D01*
X952832Y478251D01*
X952891Y478272D01*
X952952Y478290D01*
X952957Y478295D01*
X952964Y478298D01*
X953002Y478348D01*
X953044Y478395D01*
X953045Y478402D01*
X953049Y478408D01*
X953066Y478480D01*
X953280Y481198D01*
X953912Y483831D01*
X954948Y486331D01*
X956362Y488639D01*
X958120Y490698D01*
X960179Y492456D01*
X962486Y493870D01*
X964987Y494906D01*
X967619Y495538D01*
X970318Y495750D01*
X973016Y495538D01*
X975648Y494906D01*
X978149Y493870D01*
X980457Y492456D01*
X982515Y490698D01*
X982640Y490552D01*
X982852Y490303D01*
X982853Y490303D01*
X983278Y489804D01*
X983491Y489555D01*
X983704Y489306D01*
X983917Y489057D01*
X984130Y488807D01*
X984273Y488639D01*
X985688Y486331D01*
X986724Y483831D01*
X987355Y481198D01*
X987569Y478480D01*
X987572Y478474D01*
X987571Y478467D01*
X987597Y478409D01*
X987619Y478350D01*
X987625Y478345D01*
X987628Y478339D01*
X987680Y478304D01*
X987731Y478266D01*
X987738Y478266D01*
X987744Y478262D01*
X987818Y478251D01*
X997818Y478251D01*
X997843Y478258D01*
X997869Y478256D01*
X997909Y478277D01*
X997952Y478290D01*
X997969Y478310D01*
X997992Y478322D01*
X998014Y478361D01*
X998044Y478395D01*
X998048Y478421D01*
X998061Y478444D01*
X998066Y478518D01*
X997787Y482431D01*
X997783Y482441D01*
X997781Y482467D01*
X996947Y486301D01*
X996943Y486309D01*
X996937Y486335D01*
X995566Y490011D01*
X995560Y490019D01*
X995551Y490043D01*
X993671Y493487D01*
X993664Y493494D01*
X993652Y493517D01*
X991300Y496658D01*
X991293Y496664D01*
X991277Y496685D01*
X988503Y499459D01*
X988494Y499464D01*
X988476Y499483D01*
X985335Y501834D01*
X985326Y501837D01*
X985305Y501853D01*
X981861Y503734D01*
X981852Y503736D01*
X981829Y503748D01*
X978153Y505120D01*
X978143Y505120D01*
X978118Y505130D01*
X974284Y505964D01*
X974275Y505963D01*
X974249Y505969D01*
X970336Y506249D01*
X970326Y506247D01*
X970300Y506249D01*
X966386Y505969D01*
X966377Y505965D01*
X966351Y505964D01*
X962517Y505130D01*
X962509Y505125D01*
X962483Y505120D01*
X958807Y503748D01*
X958799Y503743D01*
X958774Y503734D01*
X955331Y501853D01*
X955324Y501846D01*
X955301Y501834D01*
X952160Y499483D01*
X952154Y499475D01*
X952133Y499459D01*
X949358Y496685D01*
X949354Y496676D01*
X949335Y496658D01*
X946984Y493517D01*
X946980Y493508D01*
X946965Y493487D01*
X945084Y490043D01*
X945082Y490034D01*
X945069Y490011D01*
X943698Y486335D01*
X943698Y486325D01*
X943688Y486301D01*
X942854Y482467D01*
X942855Y482457D01*
X942849Y482431D01*
X942569Y478518D01*
X942575Y478492D01*
X942571Y478467D01*
X942589Y478425D01*
X942599Y478381D01*
X942617Y478363D01*
X942628Y478339D01*
X942665Y478314D01*
X942697Y478282D01*
X942723Y478276D01*
X942744Y478262D01*
X942818Y478251D01*
X952818Y478251D01*
X952825Y478253D01*
G37*
D10*
X169060Y114330D03*
X169060Y124330D03*
D11*
X200000Y15250D03*
X195000Y15250D03*
X190000Y15250D03*
X185000Y15250D03*
X180000Y15250D03*
X175000Y15250D03*
X170000Y15250D03*
X165000Y15250D03*
X160000Y15250D03*
X155000Y15250D03*
X150000Y15250D03*
X125000Y15250D03*
X120000Y15250D03*
X115000Y15250D03*
X110000Y15250D03*
X105000Y15250D03*
X100000Y15250D03*
X95000Y15250D03*
X90000Y15250D03*
X85000Y15250D03*
X80000Y15250D03*
X75000Y15250D03*
X70000Y15250D03*
X65000Y15250D03*
X60000Y15250D03*
X55000Y15250D03*
X50000Y15250D03*
X45000Y15250D03*
X40000Y15250D03*
X35000Y15250D03*
X30000Y15250D03*
X25000Y15250D03*
X20000Y15250D03*
D12*
X129000Y210000D03*
X171000Y210000D03*
X150000Y197000D03*
D10*
X189000Y177200D03*
X179000Y177200D03*
X73200Y84000D03*
X83200Y84000D03*
D13*
X74250Y110950D03*
X74250Y123650D03*
X74250Y136350D03*
X74250Y149050D03*
X129750Y136350D03*
X129750Y149050D03*
X129750Y123650D03*
X129750Y110950D03*
D10*
X179000Y167300D03*
X189000Y167300D03*
D14*
X174500Y155300D03*
X193500Y155300D03*
X184000Y134300D03*
D15*
X52000Y210400D03*
X211800Y69700D03*
D10*
X394129Y114330D03*
X394129Y124330D03*
D11*
X425069Y15250D03*
X420069Y15250D03*
X415069Y15250D03*
X410069Y15250D03*
X405069Y15250D03*
X400069Y15250D03*
X395069Y15250D03*
X390069Y15250D03*
X385069Y15250D03*
X380069Y15250D03*
X375069Y15250D03*
X350069Y15250D03*
X345069Y15250D03*
X340069Y15250D03*
X335069Y15250D03*
X330069Y15250D03*
X325069Y15250D03*
X320069Y15250D03*
X315069Y15250D03*
X310069Y15250D03*
X305069Y15250D03*
X300069Y15250D03*
X295069Y15250D03*
X290069Y15250D03*
X285069Y15250D03*
X280069Y15250D03*
X275069Y15250D03*
X270069Y15250D03*
X265069Y15250D03*
X260069Y15250D03*
X255069Y15250D03*
X250069Y15250D03*
X245069Y15250D03*
D12*
X354069Y210000D03*
X396069Y210000D03*
X375069Y197000D03*
D10*
X414069Y177200D03*
X404069Y177200D03*
X298269Y84000D03*
X308269Y84000D03*
D13*
X299319Y110950D03*
X299319Y123650D03*
X299319Y136350D03*
X299319Y149050D03*
X354819Y136350D03*
X354819Y149050D03*
X354819Y123650D03*
X354819Y110950D03*
D10*
X404069Y167300D03*
X414069Y167300D03*
D14*
X399569Y155300D03*
X418569Y155300D03*
X409069Y134300D03*
D15*
X277069Y210400D03*
X436869Y69700D03*
D10*
X619224Y114330D03*
X619224Y124330D03*
D11*
X650164Y15250D03*
X645164Y15250D03*
X640164Y15250D03*
X635164Y15250D03*
X630164Y15250D03*
X625164Y15250D03*
X620164Y15250D03*
X615164Y15250D03*
X610164Y15250D03*
X605164Y15250D03*
X600164Y15250D03*
X575164Y15250D03*
X570164Y15250D03*
X565164Y15250D03*
X560164Y15250D03*
X555164Y15250D03*
X550164Y15250D03*
X545164Y15250D03*
X540164Y15250D03*
X535164Y15250D03*
X530164Y15250D03*
X525164Y15250D03*
X520164Y15250D03*
X515164Y15250D03*
X510164Y15250D03*
X505164Y15250D03*
X500164Y15250D03*
X495164Y15250D03*
X490164Y15250D03*
X485164Y15250D03*
X480164Y15250D03*
X475164Y15250D03*
X470164Y15250D03*
D12*
X579164Y210000D03*
X621164Y210000D03*
X600164Y197000D03*
D10*
X639164Y177200D03*
X629164Y177200D03*
X523364Y84000D03*
X533364Y84000D03*
D13*
X524414Y110950D03*
X524414Y123650D03*
X524414Y136350D03*
X524414Y149050D03*
X579914Y136350D03*
X579914Y149050D03*
X579914Y123650D03*
X579914Y110950D03*
D10*
X629164Y167300D03*
X639164Y167300D03*
D14*
X624664Y155300D03*
X643664Y155300D03*
X634164Y134300D03*
D15*
X502164Y210400D03*
X661964Y69700D03*
D10*
X844294Y114330D03*
X844294Y124330D03*
D11*
X875234Y15250D03*
X870234Y15250D03*
X865234Y15250D03*
X860234Y15250D03*
X855234Y15250D03*
X850234Y15250D03*
X845234Y15250D03*
X840234Y15250D03*
X835234Y15250D03*
X830234Y15250D03*
X825234Y15250D03*
X800234Y15250D03*
X795234Y15250D03*
X790234Y15250D03*
X785234Y15250D03*
X780234Y15250D03*
X775234Y15250D03*
X770234Y15250D03*
X765234Y15250D03*
X760234Y15250D03*
X755234Y15250D03*
X750234Y15250D03*
X745234Y15250D03*
X740234Y15250D03*
X735234Y15250D03*
X730234Y15250D03*
X725234Y15250D03*
X720234Y15250D03*
X715234Y15250D03*
X710234Y15250D03*
X705234Y15250D03*
X700234Y15250D03*
X695234Y15250D03*
D12*
X804234Y210000D03*
X846234Y210000D03*
X825234Y197000D03*
D10*
X864234Y177200D03*
X854234Y177200D03*
X748434Y84000D03*
X758434Y84000D03*
D13*
X749484Y110950D03*
X749484Y123650D03*
X749484Y136350D03*
X749484Y149050D03*
X804984Y136350D03*
X804984Y149050D03*
X804984Y123650D03*
X804984Y110950D03*
D10*
X854234Y167300D03*
X864234Y167300D03*
D14*
X849734Y155300D03*
X868734Y155300D03*
X859234Y134300D03*
D15*
X727234Y210400D03*
X887034Y69700D03*
D10*
X1069388Y114330D03*
X1069388Y124330D03*
D11*
X1100328Y15250D03*
X1095328Y15250D03*
X1090328Y15250D03*
X1085328Y15250D03*
X1080328Y15250D03*
X1075328Y15250D03*
X1070328Y15250D03*
X1065328Y15250D03*
X1060328Y15250D03*
X1055328Y15250D03*
X1050328Y15250D03*
X1025328Y15250D03*
X1020328Y15250D03*
X1015328Y15250D03*
X1010328Y15250D03*
X1005328Y15250D03*
X1000328Y15250D03*
X995328Y15250D03*
X990328Y15250D03*
X985328Y15250D03*
X980328Y15250D03*
X975328Y15250D03*
X970328Y15250D03*
X965328Y15250D03*
X960328Y15250D03*
X955328Y15250D03*
X950328Y15250D03*
X945328Y15250D03*
X940328Y15250D03*
X935328Y15250D03*
X930328Y15250D03*
X925328Y15250D03*
X920328Y15250D03*
D12*
X1029328Y210000D03*
X1071328Y210000D03*
X1050328Y197000D03*
D10*
X1089328Y177200D03*
X1079328Y177200D03*
X973528Y84000D03*
X983528Y84000D03*
D13*
X974578Y110950D03*
X974578Y123650D03*
X974578Y136350D03*
X974578Y149050D03*
X1030078Y136350D03*
X1030078Y149050D03*
X1030078Y123650D03*
X1030078Y110950D03*
D10*
X1079328Y167300D03*
X1089328Y167300D03*
D14*
X1074828Y155300D03*
X1093828Y155300D03*
X1084328Y134300D03*
D15*
X952328Y210400D03*
X1112128Y69700D03*
D10*
X1294458Y114330D03*
X1294458Y124330D03*
D11*
X1325398Y15250D03*
X1320398Y15250D03*
X1315398Y15250D03*
X1310398Y15250D03*
X1305398Y15250D03*
X1300398Y15250D03*
X1295398Y15250D03*
X1290398Y15250D03*
X1285398Y15250D03*
X1280398Y15250D03*
X1275398Y15250D03*
X1250398Y15250D03*
X1245398Y15250D03*
X1240398Y15250D03*
X1235398Y15250D03*
X1230398Y15250D03*
X1225398Y15250D03*
X1220398Y15250D03*
X1215398Y15250D03*
X1210398Y15250D03*
X1205398Y15250D03*
X1200398Y15250D03*
X1195398Y15250D03*
X1190398Y15250D03*
X1185398Y15250D03*
X1180398Y15250D03*
X1175398Y15250D03*
X1170398Y15250D03*
X1165398Y15250D03*
X1160398Y15250D03*
X1155398Y15250D03*
X1150398Y15250D03*
X1145398Y15250D03*
D12*
X1254398Y210000D03*
X1296398Y210000D03*
X1275398Y197000D03*
D10*
X1314398Y177200D03*
X1304398Y177200D03*
X1198598Y84000D03*
X1208598Y84000D03*
D13*
X1199648Y110950D03*
X1199648Y123650D03*
X1199648Y136350D03*
X1199648Y149050D03*
X1255148Y136350D03*
X1255148Y149050D03*
X1255148Y123650D03*
X1255148Y110950D03*
D10*
X1304398Y167300D03*
X1314398Y167300D03*
D14*
X1299898Y155300D03*
X1318898Y155300D03*
X1309398Y134300D03*
D15*
X1177398Y210400D03*
X1337198Y69700D03*
D10*
X1519553Y114330D03*
X1519553Y124330D03*
D11*
X1550493Y15250D03*
X1545493Y15250D03*
X1540493Y15250D03*
X1535493Y15250D03*
X1530493Y15250D03*
X1525493Y15250D03*
X1520493Y15250D03*
X1515493Y15250D03*
X1510493Y15250D03*
X1505493Y15250D03*
X1500493Y15250D03*
X1475493Y15250D03*
X1470493Y15250D03*
X1465493Y15250D03*
X1460493Y15250D03*
X1455493Y15250D03*
X1450493Y15250D03*
X1445493Y15250D03*
X1440493Y15250D03*
X1435493Y15250D03*
X1430493Y15250D03*
X1425493Y15250D03*
X1420493Y15250D03*
X1415493Y15250D03*
X1410493Y15250D03*
X1405493Y15250D03*
X1400493Y15250D03*
X1395493Y15250D03*
X1390493Y15250D03*
X1385493Y15250D03*
X1380493Y15250D03*
X1375493Y15250D03*
X1370493Y15250D03*
D12*
X1479493Y210000D03*
X1521493Y210000D03*
X1500493Y197000D03*
D10*
X1539493Y177200D03*
X1529493Y177200D03*
X1423693Y84000D03*
X1433693Y84000D03*
D13*
X1424743Y110950D03*
X1424743Y123650D03*
X1424743Y136350D03*
X1424743Y149050D03*
X1480243Y136350D03*
X1480243Y149050D03*
X1480243Y123650D03*
X1480243Y110950D03*
D10*
X1529493Y167300D03*
X1539493Y167300D03*
D14*
X1524993Y155300D03*
X1543993Y155300D03*
X1534493Y134300D03*
D15*
X1402493Y210400D03*
X1562293Y69700D03*
D10*
X1744622Y114330D03*
X1744622Y124330D03*
D11*
X1775562Y15250D03*
X1770562Y15250D03*
X1765562Y15250D03*
X1760562Y15250D03*
X1755562Y15250D03*
X1750562Y15250D03*
X1745562Y15250D03*
X1740562Y15250D03*
X1735562Y15250D03*
X1730562Y15250D03*
X1725562Y15250D03*
X1700562Y15250D03*
X1695562Y15250D03*
X1690562Y15250D03*
X1685562Y15250D03*
X1680562Y15250D03*
X1675562Y15250D03*
X1670562Y15250D03*
X1665562Y15250D03*
X1660562Y15250D03*
X1655562Y15250D03*
X1650562Y15250D03*
X1645562Y15250D03*
X1640562Y15250D03*
X1635562Y15250D03*
X1630562Y15250D03*
X1625562Y15250D03*
X1620562Y15250D03*
X1615562Y15250D03*
X1610562Y15250D03*
X1605562Y15250D03*
X1600562Y15250D03*
X1595562Y15250D03*
D12*
X1704562Y210000D03*
X1746562Y210000D03*
X1725562Y197000D03*
D10*
X1764562Y177200D03*
X1754562Y177200D03*
X1648762Y84000D03*
X1658762Y84000D03*
D13*
X1649812Y110950D03*
X1649812Y123650D03*
X1649812Y136350D03*
X1649812Y149050D03*
X1705312Y136350D03*
X1705312Y149050D03*
X1705312Y123650D03*
X1705312Y110950D03*
D10*
X1754562Y167300D03*
X1764562Y167300D03*
D14*
X1750062Y155300D03*
X1769062Y155300D03*
X1759562Y134300D03*
D15*
X1627562Y210400D03*
X1787362Y69700D03*
D10*
X50929Y584170D03*
X50929Y574170D03*
D11*
X19989Y683250D03*
X24989Y683250D03*
X29989Y683250D03*
X34989Y683250D03*
X39989Y683250D03*
X44989Y683250D03*
X49989Y683250D03*
X54989Y683250D03*
X59989Y683250D03*
X64989Y683250D03*
X69989Y683250D03*
X94989Y683250D03*
X99989Y683250D03*
X104989Y683250D03*
X109989Y683250D03*
X114989Y683250D03*
X119989Y683250D03*
X124989Y683250D03*
X129989Y683250D03*
X134989Y683250D03*
X139989Y683250D03*
X144989Y683250D03*
X149989Y683250D03*
X154989Y683250D03*
X159989Y683250D03*
X164989Y683250D03*
X169989Y683250D03*
X174989Y683250D03*
X179989Y683250D03*
X184989Y683250D03*
X189989Y683250D03*
X194989Y683250D03*
X199989Y683250D03*
D12*
X90989Y488500D03*
X48989Y488500D03*
X69989Y501500D03*
D10*
X30989Y521300D03*
X40989Y521300D03*
X146789Y614500D03*
X136789Y614500D03*
D13*
X145739Y587550D03*
X145739Y574850D03*
X145739Y562150D03*
X145739Y549450D03*
X90239Y562150D03*
X90239Y549450D03*
X90239Y574850D03*
X90239Y587550D03*
D10*
X40989Y531200D03*
X30989Y531200D03*
D14*
X45489Y543200D03*
X26489Y543200D03*
X35989Y564200D03*
D15*
X167989Y488100D03*
X8189Y628800D03*
D10*
X276024Y584170D03*
X276024Y574170D03*
D11*
X245084Y683250D03*
X250084Y683250D03*
X255084Y683250D03*
X260084Y683250D03*
X265084Y683250D03*
X270084Y683250D03*
X275084Y683250D03*
X280084Y683250D03*
X285084Y683250D03*
X290084Y683250D03*
X295084Y683250D03*
X320084Y683250D03*
X325084Y683250D03*
X330084Y683250D03*
X335084Y683250D03*
X340084Y683250D03*
X345084Y683250D03*
X350084Y683250D03*
X355084Y683250D03*
X360084Y683250D03*
X365084Y683250D03*
X370084Y683250D03*
X375084Y683250D03*
X380084Y683250D03*
X385084Y683250D03*
X390084Y683250D03*
X395084Y683250D03*
X400084Y683250D03*
X405084Y683250D03*
X410084Y683250D03*
X415084Y683250D03*
X420084Y683250D03*
X425084Y683250D03*
D12*
X316084Y488500D03*
X274084Y488500D03*
X295084Y501500D03*
D10*
X256084Y521300D03*
X266084Y521300D03*
X371884Y614500D03*
X361884Y614500D03*
D13*
X370834Y587550D03*
X370834Y574850D03*
X370834Y562150D03*
X370834Y549450D03*
X315334Y562150D03*
X315334Y549450D03*
X315334Y574850D03*
X315334Y587550D03*
D10*
X266084Y531200D03*
X256084Y531200D03*
D14*
X270584Y543200D03*
X251584Y543200D03*
X261084Y564200D03*
D15*
X393084Y488100D03*
X233284Y628800D03*
D10*
X501094Y584170D03*
X501094Y574170D03*
D11*
X470154Y683250D03*
X475154Y683250D03*
X480154Y683250D03*
X485154Y683250D03*
X490154Y683250D03*
X495154Y683250D03*
X500154Y683250D03*
X505154Y683250D03*
X510154Y683250D03*
X515154Y683250D03*
X520154Y683250D03*
X545154Y683250D03*
X550154Y683250D03*
X555154Y683250D03*
X560154Y683250D03*
X565154Y683250D03*
X570154Y683250D03*
X575154Y683250D03*
X580154Y683250D03*
X585154Y683250D03*
X590154Y683250D03*
X595154Y683250D03*
X600154Y683250D03*
X605154Y683250D03*
X610154Y683250D03*
X615154Y683250D03*
X620154Y683250D03*
X625154Y683250D03*
X630154Y683250D03*
X635154Y683250D03*
X640154Y683250D03*
X645154Y683250D03*
X650154Y683250D03*
D12*
X541154Y488500D03*
X499154Y488500D03*
X520154Y501500D03*
D10*
X481154Y521300D03*
X491154Y521300D03*
X596954Y614500D03*
X586954Y614500D03*
D13*
X595904Y587550D03*
X595904Y574850D03*
X595904Y562150D03*
X595904Y549450D03*
X540404Y562150D03*
X540404Y549450D03*
X540404Y574850D03*
X540404Y587550D03*
D10*
X491154Y531200D03*
X481154Y531200D03*
D14*
X495654Y543200D03*
X476654Y543200D03*
X486154Y564200D03*
D15*
X618154Y488100D03*
X458354Y628800D03*
D10*
X726188Y584170D03*
X726188Y574170D03*
D11*
X695248Y683250D03*
X700248Y683250D03*
X705248Y683250D03*
X710248Y683250D03*
X715248Y683250D03*
X720248Y683250D03*
X725248Y683250D03*
X730248Y683250D03*
X735248Y683250D03*
X740248Y683250D03*
X745248Y683250D03*
X770248Y683250D03*
X775248Y683250D03*
X780248Y683250D03*
X785248Y683250D03*
X790248Y683250D03*
X795248Y683250D03*
X800248Y683250D03*
X805248Y683250D03*
X810248Y683250D03*
X815248Y683250D03*
X820248Y683250D03*
X825248Y683250D03*
X830248Y683250D03*
X835248Y683250D03*
X840248Y683250D03*
X845248Y683250D03*
X850248Y683250D03*
X855248Y683250D03*
X860248Y683250D03*
X865248Y683250D03*
X870248Y683250D03*
X875248Y683250D03*
D12*
X766248Y488500D03*
X724248Y488500D03*
X745248Y501500D03*
D10*
X706248Y521300D03*
X716248Y521300D03*
X822048Y614500D03*
X812048Y614500D03*
D13*
X820998Y587550D03*
X820998Y574850D03*
X820998Y562150D03*
X820998Y549450D03*
X765498Y562150D03*
X765498Y549450D03*
X765498Y574850D03*
X765498Y587550D03*
D10*
X716248Y531200D03*
X706248Y531200D03*
D14*
X720748Y543200D03*
X701748Y543200D03*
X711248Y564200D03*
D15*
X843248Y488100D03*
X683448Y628800D03*
D10*
X951258Y584170D03*
X951258Y574170D03*
D11*
X920318Y683250D03*
X925318Y683250D03*
X930318Y683250D03*
X935318Y683250D03*
X940318Y683250D03*
X945318Y683250D03*
X950318Y683250D03*
X955318Y683250D03*
X960318Y683250D03*
X965318Y683250D03*
X970318Y683250D03*
X995318Y683250D03*
X1000318Y683250D03*
X1005318Y683250D03*
X1010318Y683250D03*
X1015318Y683250D03*
X1020318Y683250D03*
X1025318Y683250D03*
X1030318Y683250D03*
X1035318Y683250D03*
X1040318Y683250D03*
X1045318Y683250D03*
X1050318Y683250D03*
X1055318Y683250D03*
X1060318Y683250D03*
X1065318Y683250D03*
X1070318Y683250D03*
X1075318Y683250D03*
X1080318Y683250D03*
X1085318Y683250D03*
X1090318Y683250D03*
X1095318Y683250D03*
X1100318Y683250D03*
D12*
X991318Y488500D03*
X949318Y488500D03*
X970318Y501500D03*
D10*
X931318Y521300D03*
X941318Y521300D03*
X1047118Y614500D03*
X1037118Y614500D03*
D13*
X1046068Y587550D03*
X1046068Y574850D03*
X1046068Y562150D03*
X1046068Y549450D03*
X990568Y562150D03*
X990568Y549450D03*
X990568Y574850D03*
X990568Y587550D03*
D10*
X941318Y531200D03*
X931318Y531200D03*
D14*
X945818Y543200D03*
X926818Y543200D03*
X936318Y564200D03*
D15*
X1068318Y488100D03*
X908518Y628800D03*
D10*
X1176353Y584170D03*
X1176353Y574170D03*
D11*
X1145413Y683250D03*
X1150413Y683250D03*
X1155413Y683250D03*
X1160413Y683250D03*
X1165413Y683250D03*
X1170413Y683250D03*
X1175413Y683250D03*
X1180413Y683250D03*
X1185413Y683250D03*
X1190413Y683250D03*
X1195413Y683250D03*
X1220413Y683250D03*
X1225413Y683250D03*
X1230413Y683250D03*
X1235413Y683250D03*
X1240413Y683250D03*
X1245413Y683250D03*
X1250413Y683250D03*
X1255413Y683250D03*
X1260413Y683250D03*
X1265413Y683250D03*
X1270413Y683250D03*
X1275413Y683250D03*
X1280413Y683250D03*
X1285413Y683250D03*
X1290413Y683250D03*
X1295413Y683250D03*
X1300413Y683250D03*
X1305413Y683250D03*
X1310413Y683250D03*
X1315413Y683250D03*
X1320413Y683250D03*
X1325413Y683250D03*
D12*
X1216413Y488500D03*
X1174413Y488500D03*
X1195413Y501500D03*
D10*
X1156413Y521300D03*
X1166413Y521300D03*
X1272213Y614500D03*
X1262213Y614500D03*
D13*
X1271163Y587550D03*
X1271163Y574850D03*
X1271163Y562150D03*
X1271163Y549450D03*
X1215663Y562150D03*
X1215663Y549450D03*
X1215663Y574850D03*
X1215663Y587550D03*
D10*
X1166413Y531200D03*
X1156413Y531200D03*
D14*
X1170913Y543200D03*
X1151913Y543200D03*
X1161413Y564200D03*
D15*
X1293413Y488100D03*
X1133613Y628800D03*
D10*
X1401422Y584170D03*
X1401422Y574170D03*
D11*
X1370482Y683250D03*
X1375482Y683250D03*
X1380482Y683250D03*
X1385482Y683250D03*
X1390482Y683250D03*
X1395482Y683250D03*
X1400482Y683250D03*
X1405482Y683250D03*
X1410482Y683250D03*
X1415482Y683250D03*
X1420482Y683250D03*
X1445482Y683250D03*
X1450482Y683250D03*
X1455482Y683250D03*
X1460482Y683250D03*
X1465482Y683250D03*
X1470482Y683250D03*
X1475482Y683250D03*
X1480482Y683250D03*
X1485482Y683250D03*
X1490482Y683250D03*
X1495482Y683250D03*
X1500482Y683250D03*
X1505482Y683250D03*
X1510482Y683250D03*
X1515482Y683250D03*
X1520482Y683250D03*
X1525482Y683250D03*
X1530482Y683250D03*
X1535482Y683250D03*
X1540482Y683250D03*
X1545482Y683250D03*
X1550482Y683250D03*
D12*
X1441482Y488500D03*
X1399482Y488500D03*
X1420482Y501500D03*
D10*
X1381482Y521300D03*
X1391482Y521300D03*
X1497282Y614500D03*
X1487282Y614500D03*
D13*
X1496232Y587550D03*
X1496232Y574850D03*
X1496232Y562150D03*
X1496232Y549450D03*
X1440732Y562150D03*
X1440732Y549450D03*
X1440732Y574850D03*
X1440732Y587550D03*
D10*
X1391482Y531200D03*
X1381482Y531200D03*
D14*
X1395982Y543200D03*
X1376982Y543200D03*
X1386482Y564200D03*
D15*
X1518482Y488100D03*
X1358682Y628800D03*
D10*
X1626491Y584170D03*
X1626491Y574170D03*
D11*
X1595551Y683250D03*
X1600551Y683250D03*
X1605551Y683250D03*
X1610551Y683250D03*
X1615551Y683250D03*
X1620551Y683250D03*
X1625551Y683250D03*
X1630551Y683250D03*
X1635551Y683250D03*
X1640551Y683250D03*
X1645551Y683250D03*
X1670551Y683250D03*
X1675551Y683250D03*
X1680551Y683250D03*
X1685551Y683250D03*
X1690551Y683250D03*
X1695551Y683250D03*
X1700551Y683250D03*
X1705551Y683250D03*
X1710551Y683250D03*
X1715551Y683250D03*
X1720551Y683250D03*
X1725551Y683250D03*
X1730551Y683250D03*
X1735551Y683250D03*
X1740551Y683250D03*
X1745551Y683250D03*
X1750551Y683250D03*
X1755551Y683250D03*
X1760551Y683250D03*
X1765551Y683250D03*
X1770551Y683250D03*
X1775551Y683250D03*
D12*
X1666551Y488500D03*
X1624551Y488500D03*
X1645551Y501500D03*
D10*
X1606551Y521300D03*
X1616551Y521300D03*
X1722351Y614500D03*
X1712351Y614500D03*
D13*
X1721301Y587550D03*
X1721301Y574850D03*
X1721301Y562150D03*
X1721301Y549450D03*
X1665801Y562150D03*
X1665801Y549450D03*
X1665801Y574850D03*
X1665801Y587550D03*
D10*
X1616551Y531200D03*
X1606551Y531200D03*
D14*
X1621051Y543200D03*
X1602051Y543200D03*
X1611551Y564200D03*
D15*
X1743551Y488100D03*
X1583751Y628800D03*
D16*
X-26238Y635000D03*
X1821815Y635000D03*
D17*
X-35293Y63500D02*
X-35290Y63722D01*
X-35282Y63944D01*
X-35268Y64166D01*
X-35249Y64388D01*
X-35225Y64608D01*
X-35195Y64829D01*
X-35160Y65048D01*
X-35119Y65267D01*
X-35073Y65484D01*
X-35022Y65700D01*
X-34965Y65915D01*
X-34903Y66129D01*
X-34836Y66340D01*
X-34764Y66551D01*
X-34686Y66759D01*
X-34604Y66965D01*
X-34516Y67169D01*
X-34424Y67372D01*
X-34326Y67571D01*
X-34224Y67768D01*
X-34117Y67963D01*
X-34005Y68155D01*
X-33888Y68344D01*
X-33767Y68531D01*
X-33641Y68714D01*
X-33511Y68894D01*
X-33376Y69071D01*
X-33238Y69244D01*
X-33095Y69414D01*
X-32947Y69581D01*
X-32796Y69744D01*
X-32641Y69903D01*
X-32482Y70058D01*
X-32319Y70209D01*
X-32152Y70357D01*
X-31982Y70500D01*
X-31809Y70638D01*
X-31632Y70773D01*
X-31452Y70903D01*
X-31269Y71029D01*
X-31082Y71150D01*
X-30893Y71267D01*
X-30701Y71379D01*
X-30506Y71486D01*
X-30309Y71588D01*
X-30110Y71686D01*
X-29907Y71778D01*
X-29703Y71866D01*
X-29497Y71948D01*
X-29289Y72026D01*
X-29078Y72098D01*
X-28867Y72165D01*
X-28653Y72227D01*
X-28438Y72284D01*
X-28222Y72335D01*
X-28005Y72381D01*
X-27786Y72422D01*
X-27567Y72457D01*
X-27346Y72487D01*
X-27126Y72511D01*
X-26904Y72530D01*
X-26682Y72544D01*
X-26460Y72552D01*
X-26238Y72555D01*
X-26016Y72552D01*
X-25794Y72544D01*
X-25572Y72530D01*
X-25350Y72511D01*
X-25130Y72487D01*
X-24909Y72457D01*
X-24690Y72422D01*
X-24471Y72381D01*
X-24254Y72335D01*
X-24038Y72284D01*
X-23823Y72227D01*
X-23609Y72165D01*
X-23398Y72098D01*
X-23187Y72026D01*
X-22979Y71948D01*
X-22773Y71866D01*
X-22569Y71778D01*
X-22366Y71686D01*
X-22167Y71588D01*
X-21970Y71486D01*
X-21775Y71379D01*
X-21583Y71267D01*
X-21394Y71150D01*
X-21207Y71029D01*
X-21024Y70903D01*
X-20844Y70773D01*
X-20667Y70638D01*
X-20494Y70500D01*
X-20324Y70357D01*
X-20157Y70209D01*
X-19994Y70058D01*
X-19835Y69903D01*
X-19680Y69744D01*
X-19529Y69581D01*
X-19381Y69414D01*
X-19238Y69244D01*
X-19100Y69071D01*
X-18965Y68894D01*
X-18835Y68714D01*
X-18709Y68531D01*
X-18588Y68344D01*
X-18471Y68155D01*
X-18359Y67963D01*
X-18252Y67768D01*
X-18150Y67571D01*
X-18052Y67372D01*
X-17960Y67169D01*
X-17872Y66965D01*
X-17790Y66759D01*
X-17712Y66551D01*
X-17640Y66340D01*
X-17573Y66129D01*
X-17511Y65915D01*
X-17454Y65700D01*
X-17403Y65484D01*
X-17357Y65267D01*
X-17316Y65048D01*
X-17281Y64829D01*
X-17251Y64608D01*
X-17227Y64388D01*
X-17208Y64166D01*
X-17194Y63944D01*
X-17186Y63722D01*
X-17183Y63500D01*
X-17186Y63278D01*
X-17194Y63056D01*
X-17208Y62834D01*
X-17227Y62612D01*
X-17251Y62392D01*
X-17281Y62171D01*
X-17316Y61952D01*
X-17357Y61733D01*
X-17403Y61516D01*
X-17454Y61300D01*
X-17511Y61085D01*
X-17573Y60871D01*
X-17640Y60660D01*
X-17712Y60449D01*
X-17790Y60241D01*
X-17872Y60035D01*
X-17960Y59831D01*
X-18052Y59628D01*
X-18150Y59429D01*
X-18252Y59232D01*
X-18359Y59037D01*
X-18471Y58845D01*
X-18588Y58656D01*
X-18709Y58469D01*
X-18835Y58286D01*
X-18965Y58106D01*
X-19100Y57929D01*
X-19238Y57756D01*
X-19381Y57586D01*
X-19529Y57419D01*
X-19680Y57256D01*
X-19835Y57097D01*
X-19994Y56942D01*
X-20157Y56791D01*
X-20324Y56643D01*
X-20494Y56500D01*
X-20667Y56362D01*
X-20844Y56227D01*
X-21024Y56097D01*
X-21207Y55971D01*
X-21394Y55850D01*
X-21583Y55733D01*
X-21775Y55621D01*
X-21970Y55514D01*
X-22167Y55412D01*
X-22366Y55314D01*
X-22569Y55222D01*
X-22773Y55134D01*
X-22979Y55052D01*
X-23187Y54974D01*
X-23398Y54902D01*
X-23609Y54835D01*
X-23823Y54773D01*
X-24038Y54716D01*
X-24254Y54665D01*
X-24471Y54619D01*
X-24690Y54578D01*
X-24909Y54543D01*
X-25130Y54513D01*
X-25350Y54489D01*
X-25572Y54470D01*
X-25794Y54456D01*
X-26016Y54448D01*
X-26238Y54445D01*
X-26460Y54448D01*
X-26682Y54456D01*
X-26904Y54470D01*
X-27126Y54489D01*
X-27346Y54513D01*
X-27567Y54543D01*
X-27786Y54578D01*
X-28005Y54619D01*
X-28222Y54665D01*
X-28438Y54716D01*
X-28653Y54773D01*
X-28867Y54835D01*
X-29078Y54902D01*
X-29289Y54974D01*
X-29497Y55052D01*
X-29703Y55134D01*
X-29907Y55222D01*
X-30110Y55314D01*
X-30309Y55412D01*
X-30506Y55514D01*
X-30701Y55621D01*
X-30893Y55733D01*
X-31082Y55850D01*
X-31269Y55971D01*
X-31452Y56097D01*
X-31632Y56227D01*
X-31809Y56362D01*
X-31982Y56500D01*
X-32152Y56643D01*
X-32319Y56791D01*
X-32482Y56942D01*
X-32641Y57097D01*
X-32796Y57256D01*
X-32947Y57419D01*
X-33095Y57586D01*
X-33238Y57756D01*
X-33376Y57929D01*
X-33511Y58106D01*
X-33641Y58286D01*
X-33767Y58469D01*
X-33888Y58656D01*
X-34005Y58845D01*
X-34117Y59037D01*
X-34224Y59232D01*
X-34326Y59429D01*
X-34424Y59628D01*
X-34516Y59831D01*
X-34604Y60035D01*
X-34686Y60241D01*
X-34764Y60449D01*
X-34836Y60660D01*
X-34903Y60871D01*
X-34965Y61085D01*
X-35022Y61300D01*
X-35073Y61516D01*
X-35119Y61733D01*
X-35160Y61952D01*
X-35195Y62171D01*
X-35225Y62392D01*
X-35249Y62612D01*
X-35268Y62834D01*
X-35282Y63056D01*
X-35290Y63278D01*
X-35293Y63500D01*
D18*
X-26238Y63500D03*
M02*
