M48
;GenerationSoftware,Autodesk,EAGLE,9.6.2*%
;CreationDate,2021-02-03T16:34:09Z*%
FMAT,2
ICI,OFF
METRIC,TZ,000.000
T3C0.200
T2C0.305
T1C0.381
%
G90
M71
T1
X149276Y13254
X14227Y13254
X81750Y13254
X171783Y13254
X36734Y13254
X126767Y13254
X104260Y13254
X59243Y13254
X7772Y56596
X30281Y56596
X52788Y56596
X75298Y56596
X97805Y56596
X120314Y56596
X142821Y56596
X165328Y56596
T2
X9840Y7470
X4580Y3600
X18415Y8509
X14450Y14390
X2993Y3175
X4257Y16484
X4276Y4386
X6350Y11347
X9279Y4721
X15700Y11150
X19175Y11124
X6360Y14270
X9420Y19790
X14529Y4899
X6160Y7780
X13903Y4500
X6610Y6267
X11327Y16800
X10830Y16000
X9110Y7600
X6870Y4630
X11830Y16010
X17313Y7097
X17900Y6560
X12923Y9477
X6305Y4122
X10290Y16760
X7020Y3900
X9730Y16032
X8005Y3320
X6320Y8830
X9970Y3920
X9140Y16790
X9730Y3210
X8325Y16805
X12700Y4780
X15180Y9590
X13313Y5263
X15680Y9047
X8540Y4718
X15300Y11847
X12490Y3860
X14441Y9619
X8010Y4150
X17890Y10820
X9231Y10232
X8633Y9744
X11791Y8346
X12200Y7710
X10320Y9179
X10827Y7550
X9191Y9125
X20530Y3970
X20041Y6419
X11600Y5390
X14389Y3929
X7544Y7563
X6410Y10313
X7350Y15900
X1124Y4353
X19820Y17213
X19047Y12580
X560Y15710
X3630Y21140
X1850Y4200
X21110Y4810
X8330Y7483
X15656Y13748
X7230Y21350
X15550Y6330
X18440Y15840
X12957Y16010
X6586Y12844
X7420Y9410
X20320Y5500
X21340Y13490
X3960Y3160
X18600Y9250
X43317Y6060
X43887Y14420
X37187Y3250
X38287Y14830
X37917Y3850
X38027Y16830
X40287Y4113
X43076Y12573
X32347Y7470
X27087Y3600
X40922Y8509
X36957Y14390
X25500Y3175
X26764Y16484
X26783Y4386
X28857Y11347
X31786Y4721
X38207Y11150
X41682Y11124
X28867Y14270
X31927Y19790
X37036Y4899
X28667Y7780
X36410Y4500
X29117Y6267
X33834Y16800
X33337Y16000
X31617Y7600
X29377Y4630
X34337Y16010
X39820Y7097
X40407Y6560
X35430Y9477
X28812Y4122
X32797Y16760
X29527Y3900
X32237Y16032
X30512Y3320
X28827Y8830
X32477Y3920
X31647Y16790
X32237Y3210
X30832Y16805
X35207Y4780
X37687Y9590
X35820Y5263
X38187Y9047
X31047Y4718
X37807Y11847
X34997Y3860
X36948Y9619
X30517Y4150
X40397Y10820
X31738Y10232
X31140Y9744
X34298Y8346
X34707Y7710
X32827Y9179
X33334Y7550
X31698Y9125
X43037Y3970
X42548Y6419
X34107Y5390
X36896Y3929
X30051Y7563
X28917Y10313
X29857Y15900
X23631Y4353
X42327Y17213
X41554Y12580
X23067Y15710
X26137Y21140
X24357Y4200
X43617Y4810
X30837Y7483
X38163Y13748
X29737Y21350
X38057Y6330
X40947Y15840
X35464Y16010
X29093Y12844
X29927Y9410
X42827Y5500
X43847Y13490
X26467Y3160
X41107Y9250
X65826Y6060
X66396Y14420
X59696Y3250
X60796Y14830
X60426Y3850
X60536Y16830
X62796Y4113
X65585Y12573
X54856Y7470
X49596Y3600
X63431Y8509
X59466Y14390
X48009Y3175
X49273Y16484
X49293Y4386
X51366Y11347
X54295Y4721
X60716Y11150
X64191Y11124
X51376Y14270
X54436Y19790
X59545Y4899
X51176Y7780
X58919Y4500
X51626Y6267
X56344Y16800
X55846Y16000
X54126Y7600
X51886Y4630
X56846Y16010
X62329Y7097
X62916Y6560
X57939Y9477
X51322Y4122
X55306Y16760
X52036Y3900
X54746Y16032
X53021Y3320
X51336Y8830
X54986Y3920
X54156Y16790
X54746Y3210
X53341Y16805
X57716Y4780
X60196Y9590
X58329Y5263
X60696Y9047
X53556Y4718
X60316Y11847
X57506Y3860
X59458Y9619
X53026Y4150
X62906Y10820
X54247Y10232
X53649Y9744
X56808Y8346
X57216Y7710
X55336Y9179
X55844Y7550
X54207Y9125
X65546Y3970
X65058Y6419
X56616Y5390
X59405Y3929
X52561Y7563
X51426Y10313
X52366Y15900
X46141Y4353
X64836Y17213
X64064Y12580
X45576Y15710
X48646Y21140
X46866Y4200
X66126Y4810
X53346Y7483
X60672Y13748
X52246Y21350
X60566Y6330
X63456Y15840
X57973Y16010
X51602Y12844
X52436Y9410
X65336Y5500
X66356Y13490
X48976Y3160
X63616Y9250
X88333Y6060
X88903Y14420
X82203Y3250
X83303Y14830
X82933Y3850
X83043Y16830
X85303Y4113
X88092Y12573
X77363Y7470
X72103Y3600
X85938Y8509
X81973Y14390
X70516Y3175
X71780Y16484
X71800Y4386
X73873Y11347
X76802Y4721
X83223Y11150
X86698Y11124
X73883Y14270
X76943Y19790
X82052Y4899
X73683Y7780
X81426Y4500
X74133Y6267
X78851Y16800
X78353Y16000
X76633Y7600
X74393Y4630
X79353Y16010
X84836Y7097
X85423Y6560
X80446Y9477
X73829Y4122
X77813Y16760
X74543Y3900
X77253Y16032
X75528Y3320
X73843Y8830
X77493Y3920
X76663Y16790
X77253Y3210
X75848Y16805
X80223Y4780
X82703Y9590
X80836Y5263
X83203Y9047
X76063Y4718
X82823Y11847
X80013Y3860
X81965Y9619
X75533Y4150
X85413Y10820
X76754Y10232
X76156Y9744
X79315Y8346
X79723Y7710
X77843Y9179
X78351Y7550
X76714Y9125
X88053Y3970
X87565Y6419
X79123Y5390
X81912Y3929
X75068Y7563
X73933Y10313
X74873Y15900
X68648Y4353
X87343Y17213
X86571Y12580
X68083Y15710
X71153Y21140
X69373Y4200
X88633Y4810
X75853Y7483
X83179Y13748
X74753Y21350
X83073Y6330
X85963Y15840
X80480Y16010
X74109Y12844
X74943Y9410
X87843Y5500
X88863Y13490
X71483Y3160
X86123Y9250
X110843Y6060
X111413Y14420
X104713Y3250
X105813Y14830
X105443Y3850
X105553Y16830
X107813Y4113
X110602Y12573
X99873Y7470
X94613Y3600
X108448Y8509
X104483Y14390
X93025Y3175
X94290Y16484
X94309Y4386
X96383Y11347
X99312Y4721
X105733Y11150
X109208Y11124
X96393Y14270
X99453Y19790
X104562Y4899
X96193Y7780
X103936Y4500
X96643Y6267
X101360Y16800
X100863Y16000
X99143Y7600
X96903Y4630
X101863Y16010
X107346Y7097
X107933Y6560
X102956Y9477
X96338Y4122
X100323Y16760
X97053Y3900
X99763Y16032
X98038Y3320
X96353Y8830
X100003Y3920
X99173Y16790
X99763Y3210
X98358Y16805
X102733Y4780
X105213Y9590
X103346Y5263
X105713Y9047
X98573Y4718
X105333Y11847
X102523Y3860
X104474Y9619
X98043Y4150
X107923Y10820
X99264Y10232
X98666Y9744
X101824Y8346
X102233Y7710
X100353Y9179
X100860Y7550
X99224Y9125
X110563Y3970
X110074Y6419
X101633Y5390
X104422Y3929
X97577Y7563
X96443Y10313
X97383Y15900
X91157Y4353
X109853Y17213
X109080Y12580
X90593Y15710
X93663Y21140
X91883Y4200
X111143Y4810
X98363Y7483
X105689Y13748
X97263Y21350
X105583Y6330
X108473Y15840
X102990Y16010
X96619Y12844
X97453Y9410
X110353Y5500
X111373Y13490
X93993Y3160
X108633Y9250
X133350Y6060
X133920Y14420
X127220Y3250
X128320Y14830
X127950Y3850
X128060Y16830
X130320Y4113
X133109Y12573
X122380Y7470
X117120Y3600
X130955Y8509
X126990Y14390
X115532Y3175
X116797Y16484
X116816Y4386
X118890Y11347
X121819Y4721
X128240Y11150
X131715Y11124
X118900Y14270
X121960Y19790
X127069Y4899
X118700Y7780
X126443Y4500
X119150Y6267
X123867Y16800
X123370Y16000
X121650Y7600
X119410Y4630
X124370Y16010
X129853Y7097
X130440Y6560
X125463Y9477
X118845Y4122
X122830Y16760
X119560Y3900
X122270Y16032
X120545Y3320
X118860Y8830
X122510Y3920
X121680Y16790
X122270Y3210
X120865Y16805
X125240Y4780
X127720Y9590
X125853Y5263
X128220Y9047
X121080Y4718
X127840Y11847
X125030Y3860
X126981Y9619
X120550Y4150
X130430Y10820
X121771Y10232
X121173Y9744
X124331Y8346
X124740Y7710
X122860Y9179
X123367Y7550
X121731Y9125
X133070Y3970
X132581Y6419
X124140Y5390
X126929Y3929
X120084Y7563
X118950Y10313
X119890Y15900
X113664Y4353
X132360Y17213
X131587Y12580
X113100Y15710
X116170Y21140
X114390Y4200
X133650Y4810
X120870Y7483
X128196Y13748
X119770Y21350
X128090Y6330
X130980Y15840
X125497Y16010
X119126Y12844
X119960Y9410
X132860Y5500
X133880Y13490
X116500Y3160
X131140Y9250
X155859Y6060
X156429Y14420
X149729Y3250
X150829Y14830
X150459Y3850
X150569Y16830
X152829Y4113
X155618Y12573
X144889Y7470
X139629Y3600
X153464Y8509
X149499Y14390
X138042Y3175
X139306Y16484
X139326Y4386
X141399Y11347
X144328Y4721
X150749Y11150
X154224Y11124
X141409Y14270
X144469Y19790
X149578Y4899
X141209Y7780
X148952Y4500
X141659Y6267
X146377Y16800
X145879Y16000
X144159Y7600
X141919Y4630
X146879Y16010
X152362Y7097
X152949Y6560
X147972Y9477
X141354Y4122
X145339Y16760
X142069Y3900
X144779Y16032
X143054Y3320
X141369Y8830
X145019Y3920
X144189Y16790
X144779Y3210
X143374Y16805
X147749Y4780
X150229Y9590
X148362Y5263
X150729Y9047
X143589Y4718
X150349Y11847
X147539Y3860
X149491Y9619
X143059Y4150
X152939Y10820
X144280Y10232
X143682Y9744
X146841Y8346
X147249Y7710
X145369Y9179
X145877Y7550
X144240Y9125
X155579Y3970
X155091Y6419
X146649Y5390
X149438Y3929
X142593Y7563
X141459Y10313
X142399Y15900
X136173Y4353
X154869Y17213
X154097Y12580
X135609Y15710
X138679Y21140
X136899Y4200
X156159Y4810
X143379Y7483
X150705Y13748
X142279Y21350
X150599Y6330
X153489Y15840
X148006Y16010
X141635Y12844
X142469Y9410
X155369Y5500
X156389Y13490
X139009Y3160
X153649Y9250
X178366Y6060
X178936Y14420
X172236Y3250
X173336Y14830
X172966Y3850
X173076Y16830
X175336Y4113
X178125Y12573
X167396Y7470
X162136Y3600
X175971Y8509
X172006Y14390
X160549Y3175
X161813Y16484
X161832Y4386
X163906Y11347
X166835Y4721
X173256Y11150
X176731Y11124
X163916Y14270
X166976Y19790
X172085Y4899
X163716Y7780
X171459Y4500
X164166Y6267
X168884Y16800
X168386Y16000
X166666Y7600
X164426Y4630
X169386Y16010
X174869Y7097
X175456Y6560
X170479Y9477
X163861Y4122
X167846Y16760
X164576Y3900
X167286Y16032
X165561Y3320
X163876Y8830
X167526Y3920
X166696Y16790
X167286Y3210
X165881Y16805
X170256Y4780
X172736Y9590
X170869Y5263
X173236Y9047
X166096Y4718
X172856Y11847
X170046Y3860
X171997Y9619
X165566Y4150
X175446Y10820
X166787Y10232
X166189Y9744
X169348Y8346
X169756Y7710
X167876Y9179
X168384Y7550
X166747Y9125
X178086Y3970
X177598Y6419
X169156Y5390
X171945Y3929
X165100Y7563
X163966Y10313
X164906Y15900
X158680Y4353
X177376Y17213
X176604Y12580
X158116Y15710
X161186Y21140
X159406Y4200
X178666Y4810
X165886Y7483
X173212Y13748
X164786Y21350
X173106Y6330
X175996Y15840
X170513Y16010
X164142Y12844
X164976Y9410
X177876Y5500
X178896Y13490
X161516Y3160
X176156Y9250
X1189Y63790
X619Y55430
X7319Y66600
X6219Y55020
X6589Y66000
X6479Y53020
X4219Y65737
X1430Y57277
X12159Y62380
X17419Y66250
X3584Y61341
X7549Y55460
X19006Y66675
X17742Y53366
X17723Y65464
X15649Y58503
X12720Y65129
X6299Y58700
X2824Y58726
X15639Y55580
X12579Y50060
X7470Y64951
X15839Y62070
X8096Y65350
X15389Y63583
X10672Y53050
X11169Y53850
X12889Y62250
X15129Y65220
X10169Y53840
X4686Y62753
X4099Y63290
X9076Y60373
X15694Y65728
X11709Y53090
X14979Y65950
X12269Y53818
X13994Y66530
X15679Y61020
X12029Y65930
X12859Y53060
X12269Y66640
X13674Y53045
X9299Y65070
X6819Y60260
X8686Y64587
X6319Y60803
X13459Y65132
X6699Y58003
X9509Y65990
X7558Y60231
X13989Y65700
X4109Y59030
X12768Y59618
X13366Y60106
X10208Y61504
X9799Y62140
X11679Y60671
X11172Y62300
X12808Y60725
X1469Y65880
X1958Y63431
X10399Y64460
X7610Y65921
X14455Y62287
X15589Y59537
X14649Y53950
X20875Y65497
X2179Y52637
X2952Y57270
X21439Y54140
X18369Y48710
X20149Y65650
X889Y65040
X13669Y62367
X6343Y56102
X14769Y48500
X6449Y63520
X3559Y54010
X9042Y53840
X15413Y57006
X20810Y6060
X14579Y60440
X1679Y64350
X659Y56360
X18039Y66690
X3399Y60600
X23698Y63790
X23128Y55430
X29828Y66600
X28728Y55020
X29098Y66000
X28988Y53020
X26729Y65737
X23939Y57277
X34668Y62380
X39928Y66250
X26093Y61341
X30058Y55460
X41516Y66675
X40251Y53366
X40232Y65464
X38158Y58503
X35230Y65129
X28808Y58700
X25333Y58726
X38148Y55580
X35088Y50060
X29980Y64951
X38348Y62070
X30605Y65350
X37898Y63583
X33181Y53050
X33678Y53850
X35398Y62250
X37638Y65220
X32678Y53840
X27196Y62753
X26608Y63290
X31585Y60373
X38203Y65728
X34218Y53090
X37488Y65950
X34778Y53818
X36504Y66530
X38188Y61020
X34538Y65930
X35368Y53060
X34778Y66640
X36183Y53045
X31808Y65070
X29328Y60260
X31196Y64587
X28828Y60803
X35968Y65132
X29208Y58003
X32018Y65990
X30067Y60231
X36498Y65700
X26618Y59030
X35277Y59618
X35875Y60106
X32717Y61504
X32308Y62140
X34188Y60671
X33681Y62300
X35318Y60725
X23978Y65880
X24467Y63431
X32908Y64460
X30120Y65921
X36964Y62287
X38098Y59537
X37158Y53950
X43384Y65497
X24688Y52637
X25461Y57270
X43948Y54140
X40878Y48710
X42658Y65650
X23398Y65040
X36178Y62367
X28852Y56102
X37278Y48500
X28958Y63520
X26068Y54010
X31551Y53840
X37922Y57006
X21380Y14420
X37088Y60440
X24188Y64350
X23168Y56360
X40548Y66690
X25908Y60600
X46205Y63790
X45635Y55430
X52335Y66600
X51235Y55020
X51605Y66000
X51495Y53020
X49236Y65737
X46446Y57277
X57175Y62380
X62435Y66250
X48600Y61341
X52565Y55460
X64023Y66675
X62758Y53366
X62739Y65464
X60665Y58503
X57737Y65129
X51315Y58700
X47840Y58726
X60655Y55580
X57595Y50060
X52487Y64951
X60855Y62070
X53112Y65350
X60405Y63583
X55688Y53050
X56185Y53850
X57905Y62250
X60145Y65220
X55185Y53840
X49703Y62753
X49115Y63290
X54092Y60373
X60710Y65728
X56725Y53090
X59995Y65950
X57285Y53818
X59011Y66530
X60695Y61020
X57045Y65930
X57875Y53060
X57285Y66640
X58690Y53045
X54315Y65070
X51835Y60260
X53703Y64587
X51335Y60803
X58475Y65132
X51715Y58003
X54525Y65990
X52574Y60231
X59005Y65700
X49125Y59030
X57784Y59618
X58382Y60106
X55224Y61504
X54815Y62140
X56695Y60671
X56188Y62300
X57825Y60725
X46485Y65880
X46974Y63431
X55415Y64460
X52627Y65921
X59471Y62287
X60605Y59537
X59665Y53950
X65891Y65497
X47195Y52637
X47968Y57270
X66455Y54140
X63385Y48710
X65165Y65650
X45905Y65040
X58685Y62367
X51359Y56102
X59785Y48500
X51465Y63520
X48575Y54010
X54058Y53840
X60429Y57006
X14680Y3250
X59595Y60440
X46695Y64350
X45675Y56360
X63055Y66690
X48415Y60600
X68715Y63790
X68145Y55430
X74845Y66600
X73745Y55020
X74115Y66000
X74005Y53020
X71745Y65737
X68956Y57277
X79685Y62380
X84945Y66250
X71110Y61341
X75075Y55460
X86532Y66675
X85268Y53366
X85249Y65464
X83175Y58503
X80246Y65129
X73825Y58700
X70350Y58726
X83165Y55580
X80105Y50060
X74996Y64951
X83365Y62070
X75622Y65350
X82915Y63583
X78197Y53050
X78695Y53850
X80415Y62250
X82655Y65220
X77695Y53840
X72212Y62753
X71625Y63290
X76602Y60373
X83220Y65728
X79235Y53090
X82505Y65950
X79795Y53818
X81520Y66530
X83205Y61020
X79555Y65930
X80385Y53060
X79795Y66640
X81200Y53045
X76825Y65070
X74345Y60260
X76212Y64587
X73845Y60803
X80985Y65132
X74225Y58003
X77035Y65990
X75084Y60231
X81515Y65700
X71635Y59030
X80294Y59618
X80892Y60106
X77733Y61504
X77325Y62140
X79205Y60671
X78697Y62300
X80334Y60725
X68995Y65880
X69483Y63431
X77925Y64460
X75136Y65921
X81981Y62287
X83115Y59537
X82175Y53950
X88401Y65497
X69705Y52637
X70477Y57270
X88965Y54140
X85895Y48710
X87675Y65650
X68415Y65040
X81195Y62367
X73869Y56102
X82295Y48500
X73975Y63520
X71085Y54010
X76568Y53840
X82939Y57006
X15780Y14830
X82105Y60440
X69205Y64350
X68185Y56360
X85565Y66690
X70925Y60600
X91222Y63790
X90652Y55430
X97352Y66600
X96252Y55020
X96622Y66000
X96512Y53020
X94252Y65737
X91463Y57277
X102192Y62380
X107452Y66250
X93617Y61341
X97582Y55460
X109039Y66675
X107775Y53366
X107756Y65464
X105682Y58503
X102753Y65129
X96332Y58700
X92857Y58726
X105672Y55580
X102612Y50060
X97503Y64951
X105872Y62070
X98129Y65350
X105422Y63583
X100704Y53050
X101202Y53850
X102922Y62250
X105162Y65220
X100202Y53840
X94719Y62753
X94132Y63290
X99109Y60373
X105727Y65728
X101742Y53090
X105012Y65950
X102302Y53818
X104027Y66530
X105712Y61020
X102062Y65930
X102892Y53060
X102302Y66640
X103707Y53045
X99332Y65070
X96852Y60260
X98719Y64587
X96352Y60803
X103492Y65132
X96732Y58003
X99542Y65990
X97591Y60231
X104022Y65700
X94142Y59030
X102801Y59618
X103399Y60106
X100240Y61504
X99832Y62140
X101712Y60671
X101204Y62300
X102841Y60725
X91502Y65880
X91990Y63431
X100432Y64460
X97643Y65921
X104488Y62287
X105622Y59537
X104682Y53950
X110908Y65497
X92212Y52637
X92984Y57270
X111472Y54140
X108402Y48710
X110182Y65650
X90922Y65040
X103702Y62367
X96376Y56102
X104802Y48500
X96482Y63520
X93592Y54010
X99075Y53840
X105446Y57006
X15410Y3850
X104612Y60440
X91712Y64350
X90692Y56360
X108072Y66690
X93432Y60600
X113731Y63790
X113161Y55430
X119861Y66600
X118761Y55020
X119131Y66000
X119021Y53020
X116761Y65737
X113972Y57277
X124701Y62380
X129961Y66250
X116126Y61341
X120091Y55460
X131549Y66675
X130284Y53366
X130265Y65464
X128191Y58503
X125263Y65129
X118841Y58700
X115366Y58726
X128181Y55580
X125121Y50060
X120013Y64951
X128381Y62070
X120638Y65350
X127931Y63583
X123214Y53050
X123711Y53850
X125431Y62250
X127671Y65220
X122711Y53840
X117229Y62753
X116641Y63290
X121618Y60373
X128236Y65728
X124251Y53090
X127521Y65950
X124811Y53818
X126536Y66530
X128221Y61020
X124571Y65930
X125401Y53060
X124811Y66640
X126216Y53045
X121841Y65070
X119361Y60260
X121229Y64587
X118861Y60803
X126001Y65132
X119241Y58003
X122051Y65990
X120100Y60231
X126531Y65700
X116651Y59030
X125310Y59618
X125908Y60106
X122750Y61504
X122341Y62140
X124221Y60671
X123714Y62300
X125350Y60725
X114011Y65880
X114500Y63431
X122941Y64460
X120153Y65921
X126997Y62287
X128131Y59537
X127191Y53950
X133417Y65497
X114721Y52637
X115494Y57270
X133981Y54140
X130911Y48710
X132691Y65650
X113431Y65040
X126211Y62367
X118885Y56102
X127311Y48500
X118991Y63520
X116101Y54010
X121584Y53840
X127955Y57006
X15520Y16830
X127121Y60440
X114221Y64350
X113201Y56360
X130581Y66690
X115941Y60600
X136238Y63790
X135668Y55430
X142368Y66600
X141268Y55020
X141638Y66000
X141528Y53020
X139268Y65737
X136479Y57277
X147208Y62380
X152468Y66250
X138633Y61341
X142598Y55460
X154056Y66675
X152791Y53366
X152772Y65464
X150698Y58503
X147769Y65129
X141348Y58700
X137873Y58726
X150688Y55580
X147628Y50060
X142519Y64951
X150888Y62070
X143145Y65350
X150438Y63583
X145721Y53050
X146218Y53850
X147938Y62250
X150178Y65220
X145218Y53840
X139735Y62753
X139148Y63290
X144125Y60373
X150743Y65728
X146758Y53090
X150028Y65950
X147318Y53818
X149043Y66530
X150728Y61020
X147078Y65930
X147908Y53060
X147318Y66640
X148723Y53045
X144348Y65070
X141868Y60260
X143735Y64587
X141368Y60803
X148508Y65132
X141748Y58003
X144558Y65990
X142607Y60231
X149038Y65700
X139158Y59030
X147817Y59618
X148415Y60106
X145257Y61504
X144848Y62140
X146728Y60671
X146221Y62300
X147857Y60725
X136518Y65880
X137007Y63431
X145448Y64460
X142659Y65921
X149504Y62287
X150638Y59537
X149698Y53950
X155924Y65497
X137228Y52637
X138001Y57270
X156488Y54140
X153418Y48710
X155198Y65650
X135938Y65040
X148718Y62367
X141392Y56102
X149818Y48500
X141498Y63520
X138608Y54010
X144091Y53840
X150462Y57006
X17780Y4113
X149628Y60440
X136728Y64350
X135708Y56360
X153088Y66690
X138448Y60600
X158745Y63790
X158175Y55430
X164875Y66600
X163775Y55020
X164145Y66000
X164035Y53020
X161775Y65737
X158986Y57277
X169715Y62380
X174975Y66250
X161140Y61341
X165105Y55460
X176563Y66675
X175298Y53366
X175279Y65464
X173205Y58503
X170276Y65129
X163855Y58700
X160380Y58726
X173195Y55580
X170135Y50060
X165026Y64951
X173395Y62070
X165652Y65350
X172945Y63583
X168228Y53050
X168725Y53850
X170445Y62250
X172685Y65220
X167725Y53840
X162242Y62753
X161655Y63290
X166632Y60373
X173250Y65728
X169265Y53090
X172535Y65950
X169825Y53818
X171550Y66530
X173235Y61020
X169585Y65930
X170415Y53060
X169825Y66640
X171230Y53045
X166855Y65070
X164375Y60260
X166242Y64587
X163875Y60803
X171015Y65132
X164255Y58003
X167065Y65990
X165114Y60231
X171545Y65700
X161665Y59030
X170324Y59618
X170922Y60106
X167764Y61504
X167355Y62140
X169235Y60671
X168728Y62300
X170364Y60725
X159025Y65880
X159514Y63431
X167955Y64460
X165166Y65921
X172011Y62287
X173145Y59537
X172205Y53950
X178431Y65497
X159735Y52637
X160508Y57270
X178995Y54140
X175925Y48710
X177705Y65650
X158445Y65040
X171225Y62367
X163899Y56102
X172325Y48500
X164005Y63520
X161115Y54010
X166598Y53840
X172969Y57006
X20569Y12573
X172135Y60440
X159235Y64350
X158215Y56360
X175595Y66690
X160955Y60600
T3
X12900Y21000
X17100Y21000
X15000Y19700
X35407Y21000
X39607Y21000
X37507Y19700
X57916Y21000
X62116Y21000
X60016Y19700
X80423Y21000
X84623Y21000
X82523Y19700
X102933Y21000
X107133Y21000
X105033Y19700
X125440Y21000
X129640Y21000
X127540Y19700
X147949Y21000
X152149Y21000
X150049Y19700
X170456Y21000
X174656Y21000
X172556Y19700
X9099Y48850
X4899Y48850
X6999Y50150
X31608Y48850
X27408Y48850
X29508Y50150
X54115Y48850
X49915Y48850
X52015Y50150
X76625Y48850
X72425Y48850
X74525Y50150
X99132Y48850
X94932Y48850
X97032Y50150
X121641Y48850
X117441Y48850
X119541Y50150
X144148Y48850
X139948Y48850
X142048Y50150
X166655Y48850
X162455Y48850
X164555Y50150
M30