G04 EAGLE Gerber RS-274X export*
G75*
%MOMM*%
%FSLAX34Y34*%
%LPD*%
%INSoldermask Top*%
%IPPOS*%
%AMOC8*
5,1,8,0,0,1.08239X$1,22.5*%
G01*
%ADD10R,0.803200X0.803200*%
%ADD11C,0.505344*%
%ADD12R,0.553200X1.653200*%
%ADD13C,0.657200*%
%ADD14R,1.203200X0.423200*%
%ADD15R,0.423200X1.203200*%
%ADD16R,1.303200X2.103200*%
%ADD17R,1.203200X2.003200*%
%ADD18C,0.838200*%
%ADD19C,1.203200*%
%ADD20C,1.270000*%
%ADD21C,1.703200*%

G36*
X502661Y478253D02*
X502661Y478253D01*
X502668Y478251D01*
X502727Y478272D01*
X502788Y478290D01*
X502793Y478295D01*
X502799Y478298D01*
X502838Y478348D01*
X502880Y478395D01*
X502881Y478402D01*
X502885Y478408D01*
X502902Y478480D01*
X503116Y481198D01*
X503748Y483831D01*
X504784Y486331D01*
X506198Y488639D01*
X507956Y490698D01*
X510014Y492456D01*
X512322Y493870D01*
X514823Y494906D01*
X517455Y495538D01*
X520154Y495750D01*
X522852Y495538D01*
X525484Y494906D01*
X527985Y493870D01*
X530293Y492456D01*
X532351Y490698D01*
X534109Y488639D01*
X535523Y486331D01*
X536559Y483831D01*
X537191Y481198D01*
X537405Y478480D01*
X537408Y478474D01*
X537407Y478467D01*
X537432Y478409D01*
X537455Y478350D01*
X537461Y478345D01*
X537463Y478339D01*
X537516Y478304D01*
X537567Y478266D01*
X537574Y478266D01*
X537580Y478262D01*
X537654Y478251D01*
X547654Y478251D01*
X547679Y478258D01*
X547705Y478256D01*
X547744Y478277D01*
X547788Y478290D01*
X547805Y478310D01*
X547828Y478322D01*
X547850Y478361D01*
X547880Y478395D01*
X547884Y478421D01*
X547896Y478444D01*
X547902Y478518D01*
X547622Y482431D01*
X547619Y482441D01*
X547617Y482467D01*
X546783Y486301D01*
X546779Y486309D01*
X546773Y486335D01*
X545402Y490011D01*
X545396Y490019D01*
X545387Y490043D01*
X543507Y493487D01*
X543500Y493494D01*
X543488Y493517D01*
X541136Y496658D01*
X541129Y496664D01*
X541113Y496685D01*
X538339Y499459D01*
X538330Y499464D01*
X538312Y499483D01*
X535171Y501834D01*
X535162Y501837D01*
X535141Y501853D01*
X531697Y503734D01*
X531688Y503736D01*
X531665Y503748D01*
X527988Y505120D01*
X527979Y505120D01*
X527954Y505130D01*
X524120Y505964D01*
X524111Y505963D01*
X524085Y505969D01*
X520171Y506249D01*
X520162Y506247D01*
X520136Y506249D01*
X516222Y505969D01*
X516213Y505965D01*
X516187Y505964D01*
X512353Y505130D01*
X512344Y505125D01*
X512319Y505120D01*
X508643Y503748D01*
X508635Y503743D01*
X508610Y503734D01*
X505167Y501853D01*
X505160Y501846D01*
X505137Y501834D01*
X501996Y499483D01*
X501990Y499475D01*
X501969Y499459D01*
X499194Y496685D01*
X499190Y496676D01*
X499171Y496658D01*
X496820Y493517D01*
X496816Y493508D01*
X496800Y493487D01*
X494920Y490043D01*
X494918Y490034D01*
X494905Y490011D01*
X493534Y486335D01*
X493533Y486325D01*
X493524Y486301D01*
X492690Y482467D01*
X492691Y482457D01*
X492685Y482431D01*
X492405Y478518D01*
X492410Y478492D01*
X492407Y478467D01*
X492425Y478425D01*
X492435Y478381D01*
X492453Y478363D01*
X492463Y478339D01*
X492501Y478314D01*
X492533Y478282D01*
X492558Y478276D01*
X492580Y478262D01*
X492654Y478251D01*
X502654Y478251D01*
X502661Y478253D01*
G37*
G36*
X952825Y478253D02*
X952825Y478253D01*
X952832Y478251D01*
X952891Y478272D01*
X952952Y478290D01*
X952957Y478295D01*
X952964Y478298D01*
X953002Y478348D01*
X953044Y478395D01*
X953045Y478402D01*
X953049Y478408D01*
X953066Y478480D01*
X953280Y481198D01*
X953912Y483831D01*
X954948Y486331D01*
X956362Y488639D01*
X958120Y490698D01*
X960179Y492456D01*
X962486Y493870D01*
X964987Y494906D01*
X967619Y495538D01*
X970318Y495750D01*
X973016Y495538D01*
X975648Y494906D01*
X978149Y493870D01*
X980457Y492456D01*
X982515Y490698D01*
X984273Y488639D01*
X985688Y486331D01*
X986724Y483831D01*
X987355Y481198D01*
X987569Y478480D01*
X987572Y478474D01*
X987571Y478467D01*
X987597Y478409D01*
X987619Y478350D01*
X987625Y478345D01*
X987628Y478339D01*
X987680Y478304D01*
X987731Y478266D01*
X987738Y478266D01*
X987744Y478262D01*
X987818Y478251D01*
X997818Y478251D01*
X997843Y478258D01*
X997869Y478256D01*
X997909Y478277D01*
X997952Y478290D01*
X997969Y478310D01*
X997992Y478322D01*
X998014Y478361D01*
X998044Y478395D01*
X998048Y478421D01*
X998061Y478444D01*
X998066Y478518D01*
X997787Y482431D01*
X997783Y482441D01*
X997781Y482467D01*
X996947Y486301D01*
X996943Y486309D01*
X996937Y486335D01*
X995566Y490011D01*
X995560Y490019D01*
X995551Y490043D01*
X993671Y493487D01*
X993664Y493494D01*
X993652Y493517D01*
X991300Y496658D01*
X991293Y496664D01*
X991277Y496685D01*
X988503Y499459D01*
X988494Y499464D01*
X988476Y499483D01*
X985335Y501834D01*
X985326Y501837D01*
X985305Y501853D01*
X981861Y503734D01*
X981852Y503736D01*
X981829Y503748D01*
X978153Y505120D01*
X978143Y505120D01*
X978118Y505130D01*
X974284Y505964D01*
X974275Y505963D01*
X974249Y505969D01*
X970336Y506249D01*
X970326Y506247D01*
X970300Y506249D01*
X966386Y505969D01*
X966377Y505965D01*
X966351Y505964D01*
X962517Y505130D01*
X962509Y505125D01*
X962483Y505120D01*
X958807Y503748D01*
X958799Y503743D01*
X958774Y503734D01*
X955331Y501853D01*
X955324Y501846D01*
X955301Y501834D01*
X952160Y499483D01*
X952154Y499475D01*
X952133Y499459D01*
X949358Y496685D01*
X949354Y496676D01*
X949335Y496658D01*
X946984Y493517D01*
X946980Y493508D01*
X946965Y493487D01*
X945084Y490043D01*
X945082Y490034D01*
X945069Y490011D01*
X943698Y486335D01*
X943698Y486325D01*
X943688Y486301D01*
X942854Y482467D01*
X942855Y482457D01*
X942849Y482431D01*
X942569Y478518D01*
X942575Y478492D01*
X942571Y478467D01*
X942589Y478425D01*
X942599Y478381D01*
X942617Y478363D01*
X942628Y478339D01*
X942665Y478314D01*
X942697Y478282D01*
X942723Y478276D01*
X942744Y478262D01*
X942818Y478251D01*
X952818Y478251D01*
X952825Y478253D01*
G37*
G36*
X727755Y478253D02*
X727755Y478253D01*
X727762Y478251D01*
X727822Y478272D01*
X727883Y478290D01*
X727887Y478295D01*
X727894Y478298D01*
X727933Y478348D01*
X727975Y478395D01*
X727976Y478402D01*
X727980Y478408D01*
X727997Y478480D01*
X728211Y481198D01*
X728843Y483831D01*
X729879Y486331D01*
X731293Y488639D01*
X733051Y490698D01*
X735109Y492456D01*
X737417Y493870D01*
X739918Y494906D01*
X742550Y495538D01*
X745248Y495750D01*
X747947Y495538D01*
X750579Y494906D01*
X753080Y493870D01*
X755388Y492456D01*
X757446Y490698D01*
X759204Y488639D01*
X760618Y486331D01*
X761654Y483831D01*
X762286Y481198D01*
X762500Y478480D01*
X762503Y478474D01*
X762501Y478467D01*
X762527Y478409D01*
X762550Y478350D01*
X762555Y478345D01*
X762558Y478339D01*
X762611Y478304D01*
X762662Y478266D01*
X762669Y478266D01*
X762675Y478262D01*
X762748Y478251D01*
X772748Y478251D01*
X772773Y478258D01*
X772799Y478256D01*
X772839Y478277D01*
X772883Y478290D01*
X772900Y478310D01*
X772923Y478322D01*
X772945Y478361D01*
X772975Y478395D01*
X772978Y478421D01*
X772991Y478444D01*
X772997Y478518D01*
X772717Y482431D01*
X772714Y482441D01*
X772712Y482467D01*
X771878Y486301D01*
X771873Y486309D01*
X771868Y486335D01*
X770497Y490011D01*
X770491Y490019D01*
X770482Y490043D01*
X768602Y493487D01*
X768595Y493494D01*
X768582Y493517D01*
X766231Y496658D01*
X766223Y496664D01*
X766208Y496685D01*
X763433Y499459D01*
X763425Y499464D01*
X763406Y499483D01*
X760265Y501834D01*
X760256Y501837D01*
X760235Y501853D01*
X756792Y503734D01*
X756782Y503736D01*
X756759Y503748D01*
X753083Y505120D01*
X753074Y505120D01*
X753049Y505130D01*
X749215Y505964D01*
X749205Y505963D01*
X749180Y505969D01*
X745266Y506249D01*
X745257Y506247D01*
X745231Y506249D01*
X741317Y505969D01*
X741308Y505965D01*
X741282Y505964D01*
X737448Y505130D01*
X737439Y505125D01*
X737414Y505120D01*
X733737Y503748D01*
X733730Y503743D01*
X733705Y503734D01*
X730261Y501853D01*
X730255Y501846D01*
X730231Y501834D01*
X727090Y499483D01*
X727085Y499475D01*
X727064Y499459D01*
X724289Y496685D01*
X724284Y496676D01*
X724266Y496658D01*
X721914Y493517D01*
X721911Y493508D01*
X721895Y493487D01*
X720015Y490043D01*
X720013Y490034D01*
X720000Y490011D01*
X718629Y486335D01*
X718628Y486325D01*
X718619Y486301D01*
X717785Y482467D01*
X717785Y482457D01*
X717780Y482431D01*
X717500Y478518D01*
X717505Y478492D01*
X717501Y478467D01*
X717520Y478425D01*
X717529Y478381D01*
X717548Y478363D01*
X717558Y478339D01*
X717596Y478314D01*
X717628Y478282D01*
X717653Y478276D01*
X717675Y478262D01*
X717748Y478251D01*
X727748Y478251D01*
X727755Y478253D01*
G37*
G36*
X52496Y478253D02*
X52496Y478253D01*
X52503Y478251D01*
X52563Y478272D01*
X52624Y478290D01*
X52628Y478295D01*
X52635Y478298D01*
X52674Y478348D01*
X52716Y478395D01*
X52717Y478402D01*
X52721Y478408D01*
X52738Y478480D01*
X52952Y481198D01*
X53584Y483831D01*
X54620Y486331D01*
X56034Y488639D01*
X57792Y490698D01*
X59850Y492456D01*
X62158Y493870D01*
X64659Y494906D01*
X67291Y495538D01*
X69989Y495750D01*
X72688Y495538D01*
X75320Y494906D01*
X77821Y493870D01*
X80129Y492456D01*
X82187Y490698D01*
X83945Y488639D01*
X85359Y486331D01*
X86395Y483831D01*
X87027Y481198D01*
X87241Y478480D01*
X87244Y478474D01*
X87242Y478467D01*
X87268Y478409D01*
X87291Y478350D01*
X87296Y478345D01*
X87299Y478339D01*
X87352Y478304D01*
X87403Y478266D01*
X87410Y478266D01*
X87416Y478262D01*
X87489Y478251D01*
X97489Y478251D01*
X97514Y478258D01*
X97540Y478256D01*
X97580Y478277D01*
X97624Y478290D01*
X97641Y478310D01*
X97664Y478322D01*
X97686Y478361D01*
X97716Y478395D01*
X97719Y478421D01*
X97732Y478444D01*
X97738Y478518D01*
X97458Y482431D01*
X97455Y482441D01*
X97453Y482467D01*
X96619Y486301D01*
X96614Y486309D01*
X96609Y486335D01*
X95238Y490011D01*
X95232Y490019D01*
X95223Y490043D01*
X93343Y493487D01*
X93336Y493494D01*
X93323Y493517D01*
X90972Y496658D01*
X90964Y496664D01*
X90949Y496685D01*
X88174Y499459D01*
X88166Y499464D01*
X88147Y499483D01*
X85006Y501834D01*
X84997Y501837D01*
X84976Y501853D01*
X81533Y503734D01*
X81523Y503736D01*
X81500Y503748D01*
X77824Y505120D01*
X77815Y505120D01*
X77790Y505130D01*
X73956Y505964D01*
X73946Y505963D01*
X73921Y505969D01*
X70007Y506249D01*
X69998Y506247D01*
X69972Y506249D01*
X66058Y505969D01*
X66049Y505965D01*
X66023Y505964D01*
X62189Y505130D01*
X62180Y505125D01*
X62155Y505120D01*
X58478Y503748D01*
X58471Y503743D01*
X58446Y503734D01*
X55002Y501853D01*
X54996Y501846D01*
X54972Y501834D01*
X51831Y499483D01*
X51826Y499475D01*
X51805Y499459D01*
X49030Y496685D01*
X49025Y496676D01*
X49007Y496658D01*
X46655Y493517D01*
X46652Y493508D01*
X46636Y493487D01*
X44756Y490043D01*
X44754Y490034D01*
X44741Y490011D01*
X43370Y486335D01*
X43369Y486325D01*
X43360Y486301D01*
X42526Y482467D01*
X42526Y482457D01*
X42521Y482431D01*
X42241Y478518D01*
X42246Y478492D01*
X42242Y478467D01*
X42261Y478425D01*
X42270Y478381D01*
X42289Y478363D01*
X42299Y478339D01*
X42337Y478314D01*
X42369Y478282D01*
X42394Y478276D01*
X42416Y478262D01*
X42489Y478251D01*
X52489Y478251D01*
X52496Y478253D01*
G37*
G36*
X277591Y478253D02*
X277591Y478253D01*
X277598Y478251D01*
X277657Y478272D01*
X277718Y478290D01*
X277723Y478295D01*
X277730Y478298D01*
X277769Y478348D01*
X277810Y478395D01*
X277811Y478402D01*
X277816Y478408D01*
X277833Y478480D01*
X278047Y481198D01*
X278679Y483831D01*
X279714Y486331D01*
X281129Y488639D01*
X282887Y490698D01*
X284945Y492456D01*
X287253Y493870D01*
X289754Y494906D01*
X292386Y495538D01*
X295084Y495750D01*
X297783Y495538D01*
X300415Y494906D01*
X302916Y493870D01*
X305224Y492456D01*
X307282Y490698D01*
X309040Y488639D01*
X310454Y486331D01*
X311490Y483831D01*
X312122Y481198D01*
X312336Y478480D01*
X312338Y478474D01*
X312337Y478467D01*
X312363Y478409D01*
X312385Y478350D01*
X312391Y478345D01*
X312394Y478339D01*
X312447Y478304D01*
X312497Y478266D01*
X312505Y478266D01*
X312511Y478262D01*
X312584Y478251D01*
X322584Y478251D01*
X322609Y478258D01*
X322635Y478256D01*
X322675Y478277D01*
X322718Y478290D01*
X322736Y478310D01*
X322758Y478322D01*
X322781Y478361D01*
X322810Y478395D01*
X322814Y478421D01*
X322827Y478444D01*
X322833Y478518D01*
X322553Y482431D01*
X322550Y482441D01*
X322548Y482467D01*
X321714Y486301D01*
X321709Y486309D01*
X321704Y486335D01*
X320333Y490011D01*
X320327Y490019D01*
X320318Y490043D01*
X318437Y493487D01*
X318431Y493494D01*
X318418Y493517D01*
X316067Y496658D01*
X316059Y496664D01*
X316044Y496685D01*
X313269Y499459D01*
X313261Y499464D01*
X313242Y499483D01*
X310101Y501834D01*
X310092Y501837D01*
X310071Y501853D01*
X306628Y503734D01*
X306618Y503736D01*
X306595Y503748D01*
X302919Y505120D01*
X302909Y505120D01*
X302885Y505130D01*
X299051Y505964D01*
X299041Y505963D01*
X299016Y505969D01*
X295102Y506249D01*
X295093Y506247D01*
X295066Y506249D01*
X291153Y505969D01*
X291144Y505965D01*
X291118Y505964D01*
X287284Y505130D01*
X287275Y505125D01*
X287249Y505120D01*
X283573Y503748D01*
X283565Y503743D01*
X283541Y503734D01*
X280097Y501853D01*
X280090Y501846D01*
X280067Y501834D01*
X276926Y499483D01*
X276920Y499475D01*
X276899Y499459D01*
X274125Y496685D01*
X274120Y496676D01*
X274102Y496658D01*
X271750Y493517D01*
X271747Y493508D01*
X271731Y493487D01*
X269851Y490043D01*
X269849Y490034D01*
X269836Y490011D01*
X268465Y486335D01*
X268464Y486325D01*
X268455Y486301D01*
X267621Y482467D01*
X267621Y482457D01*
X267615Y482431D01*
X267336Y478518D01*
X267341Y478492D01*
X267337Y478467D01*
X267356Y478425D01*
X267365Y478381D01*
X267383Y478363D01*
X267394Y478339D01*
X267432Y478314D01*
X267464Y478282D01*
X267489Y478276D01*
X267511Y478262D01*
X267584Y478251D01*
X277584Y478251D01*
X277591Y478253D01*
G37*
G36*
X1054260Y192531D02*
X1054260Y192531D01*
X1054269Y192535D01*
X1054295Y192536D01*
X1058129Y193370D01*
X1058138Y193375D01*
X1058163Y193380D01*
X1061839Y194752D01*
X1061847Y194757D01*
X1061872Y194766D01*
X1065315Y196647D01*
X1065322Y196654D01*
X1065345Y196666D01*
X1068486Y199017D01*
X1068492Y199025D01*
X1068513Y199041D01*
X1071288Y201815D01*
X1071292Y201824D01*
X1071311Y201842D01*
X1073662Y204983D01*
X1073666Y204992D01*
X1073682Y205013D01*
X1075562Y208457D01*
X1075564Y208466D01*
X1075577Y208489D01*
X1076948Y212165D01*
X1076949Y212175D01*
X1076958Y212199D01*
X1077792Y216033D01*
X1077791Y216043D01*
X1077797Y216069D01*
X1078077Y219982D01*
X1078072Y220008D01*
X1078075Y220033D01*
X1078057Y220075D01*
X1078048Y220119D01*
X1078029Y220137D01*
X1078019Y220161D01*
X1077981Y220186D01*
X1077949Y220218D01*
X1077924Y220224D01*
X1077902Y220238D01*
X1077828Y220249D01*
X1067828Y220249D01*
X1067821Y220247D01*
X1067814Y220249D01*
X1067755Y220228D01*
X1067694Y220210D01*
X1067689Y220205D01*
X1067683Y220202D01*
X1067644Y220152D01*
X1067602Y220105D01*
X1067601Y220098D01*
X1067597Y220092D01*
X1067580Y220020D01*
X1067366Y217302D01*
X1066734Y214669D01*
X1065698Y212169D01*
X1064284Y209861D01*
X1062526Y207802D01*
X1060468Y206044D01*
X1058160Y204630D01*
X1055659Y203594D01*
X1053027Y202962D01*
X1050328Y202750D01*
X1047630Y202962D01*
X1044998Y203594D01*
X1042497Y204630D01*
X1040189Y206044D01*
X1038131Y207802D01*
X1036373Y209861D01*
X1034959Y212169D01*
X1033923Y214669D01*
X1033291Y217302D01*
X1033077Y220020D01*
X1033074Y220026D01*
X1033075Y220033D01*
X1033050Y220091D01*
X1033027Y220150D01*
X1033022Y220155D01*
X1033019Y220161D01*
X1032966Y220196D01*
X1032915Y220234D01*
X1032908Y220234D01*
X1032902Y220238D01*
X1032828Y220249D01*
X1022828Y220249D01*
X1022803Y220242D01*
X1022777Y220244D01*
X1022738Y220223D01*
X1022694Y220210D01*
X1022677Y220190D01*
X1022654Y220178D01*
X1022632Y220139D01*
X1022602Y220105D01*
X1022598Y220079D01*
X1022586Y220056D01*
X1022580Y219982D01*
X1022860Y216069D01*
X1022863Y216059D01*
X1022865Y216033D01*
X1023699Y212199D01*
X1023703Y212191D01*
X1023709Y212165D01*
X1025080Y208489D01*
X1025086Y208481D01*
X1025095Y208457D01*
X1026975Y205013D01*
X1026982Y205006D01*
X1026994Y204983D01*
X1029346Y201842D01*
X1029354Y201836D01*
X1029369Y201815D01*
X1032144Y199041D01*
X1032152Y199036D01*
X1032170Y199017D01*
X1035311Y196666D01*
X1035321Y196663D01*
X1035341Y196647D01*
X1038785Y194766D01*
X1038794Y194764D01*
X1038817Y194752D01*
X1042494Y193380D01*
X1042503Y193380D01*
X1042528Y193370D01*
X1046362Y192536D01*
X1046371Y192537D01*
X1046397Y192531D01*
X1050311Y192251D01*
X1050320Y192253D01*
X1050346Y192251D01*
X1054260Y192531D01*
G37*
G36*
X829165Y192531D02*
X829165Y192531D01*
X829174Y192535D01*
X829200Y192536D01*
X833034Y193370D01*
X833043Y193375D01*
X833068Y193380D01*
X836745Y194752D01*
X836752Y194757D01*
X836777Y194766D01*
X840221Y196647D01*
X840227Y196654D01*
X840251Y196666D01*
X843392Y199017D01*
X843397Y199025D01*
X843419Y199041D01*
X846193Y201815D01*
X846198Y201824D01*
X846216Y201842D01*
X848568Y204983D01*
X848571Y204992D01*
X848587Y205013D01*
X850467Y208457D01*
X850469Y208466D01*
X850482Y208489D01*
X851853Y212165D01*
X851854Y212175D01*
X851863Y212199D01*
X852697Y216033D01*
X852697Y216043D01*
X852702Y216069D01*
X852982Y219982D01*
X852977Y220008D01*
X852981Y220033D01*
X852962Y220075D01*
X852953Y220119D01*
X852934Y220137D01*
X852924Y220161D01*
X852886Y220186D01*
X852854Y220218D01*
X852829Y220224D01*
X852807Y220238D01*
X852734Y220249D01*
X842734Y220249D01*
X842727Y220247D01*
X842720Y220249D01*
X842660Y220228D01*
X842599Y220210D01*
X842595Y220205D01*
X842588Y220202D01*
X842549Y220152D01*
X842507Y220105D01*
X842506Y220098D01*
X842502Y220092D01*
X842485Y220020D01*
X842271Y217302D01*
X841639Y214669D01*
X840603Y212169D01*
X839189Y209861D01*
X837431Y207802D01*
X835373Y206044D01*
X833065Y204630D01*
X830564Y203594D01*
X827932Y202962D01*
X825234Y202750D01*
X822535Y202962D01*
X819903Y203594D01*
X817402Y204630D01*
X815094Y206044D01*
X813036Y207802D01*
X811278Y209861D01*
X809864Y212169D01*
X808828Y214669D01*
X808196Y217302D01*
X807982Y220020D01*
X807980Y220026D01*
X807981Y220033D01*
X807955Y220091D01*
X807932Y220150D01*
X807927Y220155D01*
X807924Y220161D01*
X807871Y220196D01*
X807820Y220234D01*
X807813Y220234D01*
X807807Y220238D01*
X807734Y220249D01*
X797734Y220249D01*
X797709Y220242D01*
X797683Y220244D01*
X797643Y220223D01*
X797599Y220210D01*
X797582Y220190D01*
X797559Y220178D01*
X797537Y220139D01*
X797507Y220105D01*
X797504Y220079D01*
X797491Y220056D01*
X797485Y219982D01*
X797765Y216069D01*
X797768Y216059D01*
X797770Y216033D01*
X798604Y212199D01*
X798609Y212191D01*
X798614Y212165D01*
X799985Y208489D01*
X799991Y208481D01*
X800000Y208457D01*
X801880Y205013D01*
X801887Y205006D01*
X801900Y204983D01*
X804251Y201842D01*
X804259Y201836D01*
X804274Y201815D01*
X807049Y199041D01*
X807057Y199036D01*
X807076Y199017D01*
X810217Y196666D01*
X810226Y196663D01*
X810247Y196647D01*
X813690Y194766D01*
X813700Y194764D01*
X813723Y194752D01*
X817399Y193380D01*
X817409Y193380D01*
X817433Y193370D01*
X821267Y192536D01*
X821277Y192537D01*
X821302Y192531D01*
X825216Y192251D01*
X825225Y192253D01*
X825251Y192251D01*
X829165Y192531D01*
G37*
G36*
X604096Y192531D02*
X604096Y192531D01*
X604105Y192535D01*
X604131Y192536D01*
X607965Y193370D01*
X607973Y193375D01*
X607999Y193380D01*
X611675Y194752D01*
X611683Y194757D01*
X611708Y194766D01*
X615151Y196647D01*
X615158Y196654D01*
X615181Y196666D01*
X618322Y199017D01*
X618328Y199025D01*
X618349Y199041D01*
X621124Y201815D01*
X621128Y201824D01*
X621147Y201842D01*
X623498Y204983D01*
X623502Y204992D01*
X623517Y205013D01*
X625398Y208457D01*
X625400Y208466D01*
X625413Y208489D01*
X626784Y212165D01*
X626784Y212175D01*
X626794Y212199D01*
X627628Y216033D01*
X627627Y216043D01*
X627633Y216069D01*
X627913Y219982D01*
X627907Y220008D01*
X627911Y220033D01*
X627893Y220075D01*
X627883Y220119D01*
X627865Y220137D01*
X627854Y220161D01*
X627817Y220186D01*
X627785Y220218D01*
X627759Y220224D01*
X627738Y220238D01*
X627664Y220249D01*
X617664Y220249D01*
X617657Y220247D01*
X617650Y220249D01*
X617591Y220228D01*
X617530Y220210D01*
X617525Y220205D01*
X617518Y220202D01*
X617480Y220152D01*
X617438Y220105D01*
X617437Y220098D01*
X617433Y220092D01*
X617416Y220020D01*
X617202Y217302D01*
X616570Y214669D01*
X615534Y212169D01*
X614120Y209861D01*
X612362Y207802D01*
X610304Y206044D01*
X607996Y204630D01*
X605495Y203594D01*
X602863Y202962D01*
X600164Y202750D01*
X597466Y202962D01*
X594834Y203594D01*
X592333Y204630D01*
X590025Y206044D01*
X587967Y207802D01*
X586209Y209861D01*
X584794Y212169D01*
X583759Y214669D01*
X583127Y217302D01*
X582913Y220020D01*
X582910Y220026D01*
X582911Y220033D01*
X582885Y220091D01*
X582863Y220150D01*
X582857Y220155D01*
X582854Y220161D01*
X582802Y220196D01*
X582751Y220234D01*
X582744Y220234D01*
X582738Y220238D01*
X582664Y220249D01*
X572664Y220249D01*
X572639Y220242D01*
X572613Y220244D01*
X572573Y220223D01*
X572530Y220210D01*
X572513Y220190D01*
X572490Y220178D01*
X572468Y220139D01*
X572438Y220105D01*
X572434Y220079D01*
X572421Y220056D01*
X572416Y219982D01*
X572695Y216069D01*
X572699Y216059D01*
X572701Y216033D01*
X573535Y212199D01*
X573539Y212191D01*
X573545Y212165D01*
X574916Y208489D01*
X574922Y208481D01*
X574931Y208457D01*
X576811Y205013D01*
X576818Y205006D01*
X576830Y204983D01*
X579182Y201842D01*
X579189Y201836D01*
X579205Y201815D01*
X581979Y199041D01*
X581988Y199036D01*
X582006Y199017D01*
X585147Y196666D01*
X585156Y196663D01*
X585177Y196647D01*
X588621Y194766D01*
X588630Y194764D01*
X588653Y194752D01*
X592329Y193380D01*
X592339Y193380D01*
X592364Y193370D01*
X596198Y192536D01*
X596207Y192537D01*
X596233Y192531D01*
X600146Y192251D01*
X600156Y192253D01*
X600182Y192251D01*
X604096Y192531D01*
G37*
G36*
X379001Y192531D02*
X379001Y192531D01*
X379010Y192535D01*
X379036Y192536D01*
X382870Y193370D01*
X382879Y193375D01*
X382904Y193380D01*
X386580Y194752D01*
X386588Y194757D01*
X386613Y194766D01*
X390056Y196647D01*
X390063Y196654D01*
X390086Y196666D01*
X393227Y199017D01*
X393233Y199025D01*
X393254Y199041D01*
X396029Y201815D01*
X396033Y201824D01*
X396052Y201842D01*
X398403Y204983D01*
X398407Y204992D01*
X398423Y205013D01*
X400303Y208457D01*
X400305Y208466D01*
X400318Y208489D01*
X401689Y212165D01*
X401690Y212175D01*
X401699Y212199D01*
X402533Y216033D01*
X402532Y216043D01*
X402538Y216069D01*
X402818Y219982D01*
X402813Y220008D01*
X402816Y220033D01*
X402798Y220075D01*
X402789Y220119D01*
X402770Y220137D01*
X402760Y220161D01*
X402722Y220186D01*
X402690Y220218D01*
X402665Y220224D01*
X402643Y220238D01*
X402569Y220249D01*
X392569Y220249D01*
X392562Y220247D01*
X392555Y220249D01*
X392496Y220228D01*
X392435Y220210D01*
X392430Y220205D01*
X392424Y220202D01*
X392385Y220152D01*
X392343Y220105D01*
X392342Y220098D01*
X392338Y220092D01*
X392321Y220020D01*
X392107Y217302D01*
X391475Y214669D01*
X390439Y212169D01*
X389025Y209861D01*
X387267Y207802D01*
X385209Y206044D01*
X382901Y204630D01*
X380400Y203594D01*
X377768Y202962D01*
X375069Y202750D01*
X372371Y202962D01*
X369739Y203594D01*
X367238Y204630D01*
X364930Y206044D01*
X362872Y207802D01*
X361114Y209861D01*
X359700Y212169D01*
X358664Y214669D01*
X358032Y217302D01*
X357818Y220020D01*
X357815Y220026D01*
X357816Y220033D01*
X357791Y220091D01*
X357768Y220150D01*
X357763Y220155D01*
X357760Y220161D01*
X357707Y220196D01*
X357656Y220234D01*
X357649Y220234D01*
X357643Y220238D01*
X357569Y220249D01*
X347569Y220249D01*
X347544Y220242D01*
X347518Y220244D01*
X347479Y220223D01*
X347435Y220210D01*
X347418Y220190D01*
X347395Y220178D01*
X347373Y220139D01*
X347343Y220105D01*
X347339Y220079D01*
X347327Y220056D01*
X347321Y219982D01*
X347601Y216069D01*
X347604Y216059D01*
X347606Y216033D01*
X348440Y212199D01*
X348444Y212191D01*
X348450Y212165D01*
X349821Y208489D01*
X349827Y208481D01*
X349836Y208457D01*
X351716Y205013D01*
X351723Y205006D01*
X351735Y204983D01*
X354087Y201842D01*
X354095Y201836D01*
X354110Y201815D01*
X356885Y199041D01*
X356893Y199036D01*
X356911Y199017D01*
X360052Y196666D01*
X360062Y196663D01*
X360082Y196647D01*
X363526Y194766D01*
X363535Y194764D01*
X363558Y194752D01*
X367235Y193380D01*
X367244Y193380D01*
X367269Y193370D01*
X371103Y192536D01*
X371112Y192537D01*
X371138Y192531D01*
X375052Y192251D01*
X375061Y192253D01*
X375087Y192251D01*
X379001Y192531D01*
G37*
G36*
X153931Y192531D02*
X153931Y192531D01*
X153941Y192535D01*
X153967Y192536D01*
X157801Y193370D01*
X157809Y193375D01*
X157835Y193380D01*
X161511Y194752D01*
X161519Y194757D01*
X161543Y194766D01*
X164987Y196647D01*
X164994Y196654D01*
X165017Y196666D01*
X168158Y199017D01*
X168164Y199025D01*
X168185Y199041D01*
X170959Y201815D01*
X170964Y201824D01*
X170983Y201842D01*
X173334Y204983D01*
X173337Y204992D01*
X173353Y205013D01*
X175234Y208457D01*
X175236Y208466D01*
X175248Y208489D01*
X176620Y212165D01*
X176620Y212175D01*
X176630Y212199D01*
X177464Y216033D01*
X177463Y216043D01*
X177469Y216069D01*
X177749Y219982D01*
X177743Y220008D01*
X177747Y220033D01*
X177729Y220075D01*
X177719Y220119D01*
X177701Y220137D01*
X177690Y220161D01*
X177652Y220186D01*
X177621Y220218D01*
X177595Y220224D01*
X177574Y220238D01*
X177500Y220249D01*
X167500Y220249D01*
X167493Y220247D01*
X167486Y220249D01*
X167427Y220228D01*
X167366Y220210D01*
X167361Y220205D01*
X167354Y220202D01*
X167316Y220152D01*
X167274Y220105D01*
X167273Y220098D01*
X167268Y220092D01*
X167252Y220020D01*
X167038Y217302D01*
X166406Y214669D01*
X165370Y212169D01*
X163956Y209861D01*
X162198Y207802D01*
X160139Y206044D01*
X157831Y204630D01*
X155331Y203594D01*
X152698Y202962D01*
X150000Y202750D01*
X147302Y202962D01*
X144669Y203594D01*
X142169Y204630D01*
X139861Y206044D01*
X137802Y207802D01*
X136044Y209861D01*
X134630Y212169D01*
X133594Y214669D01*
X132962Y217302D01*
X132748Y220020D01*
X132746Y220026D01*
X132747Y220033D01*
X132721Y220091D01*
X132699Y220150D01*
X132693Y220155D01*
X132690Y220161D01*
X132637Y220196D01*
X132587Y220234D01*
X132580Y220234D01*
X132574Y220238D01*
X132500Y220249D01*
X122500Y220249D01*
X122475Y220242D01*
X122449Y220244D01*
X122409Y220223D01*
X122366Y220210D01*
X122349Y220190D01*
X122326Y220178D01*
X122304Y220139D01*
X122274Y220105D01*
X122270Y220079D01*
X122257Y220056D01*
X122251Y219982D01*
X122531Y216069D01*
X122535Y216059D01*
X122536Y216033D01*
X123370Y212199D01*
X123375Y212191D01*
X123380Y212165D01*
X124752Y208489D01*
X124757Y208481D01*
X124766Y208457D01*
X126647Y205013D01*
X126654Y205006D01*
X126666Y204983D01*
X129017Y201842D01*
X129025Y201836D01*
X129041Y201815D01*
X131815Y199041D01*
X131824Y199036D01*
X131842Y199017D01*
X134983Y196666D01*
X134992Y196663D01*
X135013Y196647D01*
X138457Y194766D01*
X138466Y194764D01*
X138489Y194752D01*
X142165Y193380D01*
X142175Y193380D01*
X142199Y193370D01*
X146033Y192536D01*
X146043Y192537D01*
X146069Y192531D01*
X149982Y192251D01*
X149992Y192253D01*
X150018Y192251D01*
X153931Y192531D01*
G37*
D10*
X25000Y152200D03*
X15000Y152200D03*
X31400Y60500D03*
X31400Y50500D03*
X72500Y196500D03*
X82500Y196500D03*
X174700Y58000D03*
X184700Y58000D03*
X195000Y162500D03*
X205000Y162500D03*
X72500Y205900D03*
X82500Y205900D03*
X21400Y80600D03*
X21400Y70600D03*
X11400Y80700D03*
X11400Y70700D03*
X24900Y162300D03*
X14900Y162300D03*
X24900Y199550D03*
X14900Y199550D03*
X174700Y48700D03*
X184700Y48700D03*
X195000Y153300D03*
X205000Y153300D03*
X11400Y60600D03*
X11400Y50600D03*
X21400Y60600D03*
X21400Y50600D03*
D11*
X202080Y204610D02*
X202080Y211590D01*
X209060Y211590D01*
X209060Y204610D01*
X202080Y204610D01*
X202080Y209410D02*
X209060Y209410D01*
X184540Y211590D02*
X184540Y204610D01*
X184540Y211590D02*
X191520Y211590D01*
X191520Y204610D01*
X184540Y204610D01*
X184540Y209410D02*
X191520Y209410D01*
D12*
X202500Y12750D03*
X197500Y12750D03*
X192500Y12750D03*
X187500Y12750D03*
X182500Y12750D03*
X177500Y12750D03*
X172500Y12750D03*
X167500Y12750D03*
X162500Y12750D03*
X157500Y12750D03*
X152500Y12750D03*
X147500Y12750D03*
X122500Y12750D03*
X117500Y12750D03*
X112500Y12750D03*
X107500Y12750D03*
X102500Y12750D03*
X97500Y12750D03*
X92500Y12750D03*
X87500Y12750D03*
X82500Y12750D03*
X77500Y12750D03*
X72500Y12750D03*
X67500Y12750D03*
X62500Y12750D03*
X57500Y12750D03*
X52500Y12750D03*
X47500Y12750D03*
X42500Y12750D03*
X37500Y12750D03*
X32500Y12750D03*
X27500Y12750D03*
X22500Y12750D03*
X17500Y12750D03*
D13*
X129000Y210000D03*
X171000Y210000D03*
X150000Y197000D03*
D10*
X201800Y182500D03*
X191800Y182500D03*
X205000Y134900D03*
X195000Y134900D03*
X205000Y144100D03*
X195000Y144100D03*
X31300Y80500D03*
X31300Y70500D03*
D14*
X53300Y123300D03*
X53300Y118300D03*
X53300Y133300D03*
X53300Y143300D03*
X53300Y153300D03*
X53300Y128300D03*
X53300Y138300D03*
X53300Y148300D03*
X53300Y158300D03*
X53300Y108300D03*
X53300Y98300D03*
X53300Y88300D03*
X53300Y83300D03*
X53300Y93300D03*
X53300Y103300D03*
X53300Y113300D03*
D15*
X108300Y63300D03*
X113300Y63300D03*
X98300Y63300D03*
X88300Y63300D03*
X78300Y63300D03*
X103300Y63300D03*
X93300Y63300D03*
X83300Y63300D03*
X73300Y63300D03*
X123300Y63300D03*
X133300Y63300D03*
X143300Y63300D03*
X148300Y63300D03*
X138300Y63300D03*
X128300Y63300D03*
X118300Y63300D03*
D14*
X168300Y118300D03*
X168300Y123300D03*
X168300Y108300D03*
X168300Y98300D03*
X168300Y88300D03*
X168300Y113300D03*
X168300Y103300D03*
X168300Y93300D03*
X168300Y83300D03*
X168300Y133300D03*
X168300Y143300D03*
X168300Y153300D03*
X168300Y158300D03*
X168300Y148300D03*
X168300Y138300D03*
X168300Y128300D03*
D15*
X113300Y178300D03*
X108300Y178300D03*
X123300Y178300D03*
X133300Y178300D03*
X143300Y178300D03*
X118300Y178300D03*
X128300Y178300D03*
X138300Y178300D03*
X148300Y178300D03*
X98300Y178300D03*
X88300Y178300D03*
X78300Y178300D03*
X73300Y178300D03*
X83300Y178300D03*
X93300Y178300D03*
X103300Y178300D03*
D16*
X8700Y135100D03*
X31700Y98100D03*
X31700Y135100D03*
X8700Y98100D03*
D17*
X9000Y180700D03*
X34000Y180700D03*
D18*
X208250Y70770D03*
X52000Y210400D03*
D10*
X250069Y152200D03*
X240069Y152200D03*
X256469Y60500D03*
X256469Y50500D03*
X297569Y196500D03*
X307569Y196500D03*
X399769Y58000D03*
X409769Y58000D03*
X420069Y162500D03*
X430069Y162500D03*
X297569Y205900D03*
X307569Y205900D03*
X246469Y80600D03*
X246469Y70600D03*
X236469Y80700D03*
X236469Y70700D03*
X249969Y162300D03*
X239969Y162300D03*
X249969Y199550D03*
X239969Y199550D03*
X399769Y48700D03*
X409769Y48700D03*
X420069Y153300D03*
X430069Y153300D03*
X236469Y60600D03*
X236469Y50600D03*
X246469Y60600D03*
X246469Y50600D03*
D11*
X427149Y204610D02*
X427149Y211590D01*
X434129Y211590D01*
X434129Y204610D01*
X427149Y204610D01*
X427149Y209410D02*
X434129Y209410D01*
X409609Y211590D02*
X409609Y204610D01*
X409609Y211590D02*
X416589Y211590D01*
X416589Y204610D01*
X409609Y204610D01*
X409609Y209410D02*
X416589Y209410D01*
D12*
X427569Y12750D03*
X422569Y12750D03*
X417569Y12750D03*
X412569Y12750D03*
X407569Y12750D03*
X402569Y12750D03*
X397569Y12750D03*
X392569Y12750D03*
X387569Y12750D03*
X382569Y12750D03*
X377569Y12750D03*
X372569Y12750D03*
X347569Y12750D03*
X342569Y12750D03*
X337569Y12750D03*
X332569Y12750D03*
X327569Y12750D03*
X322569Y12750D03*
X317569Y12750D03*
X312569Y12750D03*
X307569Y12750D03*
X302569Y12750D03*
X297569Y12750D03*
X292569Y12750D03*
X287569Y12750D03*
X282569Y12750D03*
X277569Y12750D03*
X272569Y12750D03*
X267569Y12750D03*
X262569Y12750D03*
X257569Y12750D03*
X252569Y12750D03*
X247569Y12750D03*
X242569Y12750D03*
D13*
X354069Y210000D03*
X396069Y210000D03*
X375069Y197000D03*
D10*
X426869Y182500D03*
X416869Y182500D03*
X430069Y134900D03*
X420069Y134900D03*
X430069Y144100D03*
X420069Y144100D03*
X256369Y80500D03*
X256369Y70500D03*
D14*
X278369Y123300D03*
X278369Y118300D03*
X278369Y133300D03*
X278369Y143300D03*
X278369Y153300D03*
X278369Y128300D03*
X278369Y138300D03*
X278369Y148300D03*
X278369Y158300D03*
X278369Y108300D03*
X278369Y98300D03*
X278369Y88300D03*
X278369Y83300D03*
X278369Y93300D03*
X278369Y103300D03*
X278369Y113300D03*
D15*
X333369Y63300D03*
X338369Y63300D03*
X323369Y63300D03*
X313369Y63300D03*
X303369Y63300D03*
X328369Y63300D03*
X318369Y63300D03*
X308369Y63300D03*
X298369Y63300D03*
X348369Y63300D03*
X358369Y63300D03*
X368369Y63300D03*
X373369Y63300D03*
X363369Y63300D03*
X353369Y63300D03*
X343369Y63300D03*
D14*
X393369Y118300D03*
X393369Y123300D03*
X393369Y108300D03*
X393369Y98300D03*
X393369Y88300D03*
X393369Y113300D03*
X393369Y103300D03*
X393369Y93300D03*
X393369Y83300D03*
X393369Y133300D03*
X393369Y143300D03*
X393369Y153300D03*
X393369Y158300D03*
X393369Y148300D03*
X393369Y138300D03*
X393369Y128300D03*
D15*
X338369Y178300D03*
X333369Y178300D03*
X348369Y178300D03*
X358369Y178300D03*
X368369Y178300D03*
X343369Y178300D03*
X353369Y178300D03*
X363369Y178300D03*
X373369Y178300D03*
X323369Y178300D03*
X313369Y178300D03*
X303369Y178300D03*
X298369Y178300D03*
X308369Y178300D03*
X318369Y178300D03*
X328369Y178300D03*
D16*
X233769Y135100D03*
X256769Y98100D03*
X256769Y135100D03*
X233769Y98100D03*
D17*
X234069Y180700D03*
X259069Y180700D03*
D18*
X433319Y70770D03*
X277069Y210400D03*
D10*
X475164Y152200D03*
X465164Y152200D03*
X481564Y60500D03*
X481564Y50500D03*
X522664Y196500D03*
X532664Y196500D03*
X624864Y58000D03*
X634864Y58000D03*
X645164Y162500D03*
X655164Y162500D03*
X522664Y205900D03*
X532664Y205900D03*
X471564Y80600D03*
X471564Y70600D03*
X461564Y80700D03*
X461564Y70700D03*
X475064Y162300D03*
X465064Y162300D03*
X475064Y199550D03*
X465064Y199550D03*
X624864Y48700D03*
X634864Y48700D03*
X645164Y153300D03*
X655164Y153300D03*
X461564Y60600D03*
X461564Y50600D03*
X471564Y60600D03*
X471564Y50600D03*
D11*
X652244Y204610D02*
X652244Y211590D01*
X659224Y211590D01*
X659224Y204610D01*
X652244Y204610D01*
X652244Y209410D02*
X659224Y209410D01*
X634704Y211590D02*
X634704Y204610D01*
X634704Y211590D02*
X641684Y211590D01*
X641684Y204610D01*
X634704Y204610D01*
X634704Y209410D02*
X641684Y209410D01*
D12*
X652664Y12750D03*
X647664Y12750D03*
X642664Y12750D03*
X637664Y12750D03*
X632664Y12750D03*
X627664Y12750D03*
X622664Y12750D03*
X617664Y12750D03*
X612664Y12750D03*
X607664Y12750D03*
X602664Y12750D03*
X597664Y12750D03*
X572664Y12750D03*
X567664Y12750D03*
X562664Y12750D03*
X557664Y12750D03*
X552664Y12750D03*
X547664Y12750D03*
X542664Y12750D03*
X537664Y12750D03*
X532664Y12750D03*
X527664Y12750D03*
X522664Y12750D03*
X517664Y12750D03*
X512664Y12750D03*
X507664Y12750D03*
X502664Y12750D03*
X497664Y12750D03*
X492664Y12750D03*
X487664Y12750D03*
X482664Y12750D03*
X477664Y12750D03*
X472664Y12750D03*
X467664Y12750D03*
D13*
X579164Y210000D03*
X621164Y210000D03*
X600164Y197000D03*
D10*
X651964Y182500D03*
X641964Y182500D03*
X655164Y134900D03*
X645164Y134900D03*
X655164Y144100D03*
X645164Y144100D03*
X481464Y80500D03*
X481464Y70500D03*
D14*
X503464Y123300D03*
X503464Y118300D03*
X503464Y133300D03*
X503464Y143300D03*
X503464Y153300D03*
X503464Y128300D03*
X503464Y138300D03*
X503464Y148300D03*
X503464Y158300D03*
X503464Y108300D03*
X503464Y98300D03*
X503464Y88300D03*
X503464Y83300D03*
X503464Y93300D03*
X503464Y103300D03*
X503464Y113300D03*
D15*
X558464Y63300D03*
X563464Y63300D03*
X548464Y63300D03*
X538464Y63300D03*
X528464Y63300D03*
X553464Y63300D03*
X543464Y63300D03*
X533464Y63300D03*
X523464Y63300D03*
X573464Y63300D03*
X583464Y63300D03*
X593464Y63300D03*
X598464Y63300D03*
X588464Y63300D03*
X578464Y63300D03*
X568464Y63300D03*
D14*
X618464Y118300D03*
X618464Y123300D03*
X618464Y108300D03*
X618464Y98300D03*
X618464Y88300D03*
X618464Y113300D03*
X618464Y103300D03*
X618464Y93300D03*
X618464Y83300D03*
X618464Y133300D03*
X618464Y143300D03*
X618464Y153300D03*
X618464Y158300D03*
X618464Y148300D03*
X618464Y138300D03*
X618464Y128300D03*
D15*
X563464Y178300D03*
X558464Y178300D03*
X573464Y178300D03*
X583464Y178300D03*
X593464Y178300D03*
X568464Y178300D03*
X578464Y178300D03*
X588464Y178300D03*
X598464Y178300D03*
X548464Y178300D03*
X538464Y178300D03*
X528464Y178300D03*
X523464Y178300D03*
X533464Y178300D03*
X543464Y178300D03*
X553464Y178300D03*
D16*
X458864Y135100D03*
X481864Y98100D03*
X481864Y135100D03*
X458864Y98100D03*
D17*
X459164Y180700D03*
X484164Y180700D03*
D18*
X658414Y70770D03*
X502164Y210400D03*
D10*
X700234Y152200D03*
X690234Y152200D03*
X706634Y60500D03*
X706634Y50500D03*
X747734Y196500D03*
X757734Y196500D03*
X849934Y58000D03*
X859934Y58000D03*
X870234Y162500D03*
X880234Y162500D03*
X747734Y205900D03*
X757734Y205900D03*
X696634Y80600D03*
X696634Y70600D03*
X686634Y80700D03*
X686634Y70700D03*
X700134Y162300D03*
X690134Y162300D03*
X700134Y199550D03*
X690134Y199550D03*
X849934Y48700D03*
X859934Y48700D03*
X870234Y153300D03*
X880234Y153300D03*
X686634Y60600D03*
X686634Y50600D03*
X696634Y60600D03*
X696634Y50600D03*
D11*
X877314Y204610D02*
X877314Y211590D01*
X884294Y211590D01*
X884294Y204610D01*
X877314Y204610D01*
X877314Y209410D02*
X884294Y209410D01*
X859774Y211590D02*
X859774Y204610D01*
X859774Y211590D02*
X866754Y211590D01*
X866754Y204610D01*
X859774Y204610D01*
X859774Y209410D02*
X866754Y209410D01*
D12*
X877734Y12750D03*
X872734Y12750D03*
X867734Y12750D03*
X862734Y12750D03*
X857734Y12750D03*
X852734Y12750D03*
X847734Y12750D03*
X842734Y12750D03*
X837734Y12750D03*
X832734Y12750D03*
X827734Y12750D03*
X822734Y12750D03*
X797734Y12750D03*
X792734Y12750D03*
X787734Y12750D03*
X782734Y12750D03*
X777734Y12750D03*
X772734Y12750D03*
X767734Y12750D03*
X762734Y12750D03*
X757734Y12750D03*
X752734Y12750D03*
X747734Y12750D03*
X742734Y12750D03*
X737734Y12750D03*
X732734Y12750D03*
X727734Y12750D03*
X722734Y12750D03*
X717734Y12750D03*
X712734Y12750D03*
X707734Y12750D03*
X702734Y12750D03*
X697734Y12750D03*
X692734Y12750D03*
D13*
X804234Y210000D03*
X846234Y210000D03*
X825234Y197000D03*
D10*
X877034Y182500D03*
X867034Y182500D03*
X880234Y134900D03*
X870234Y134900D03*
X880234Y144100D03*
X870234Y144100D03*
X706534Y80500D03*
X706534Y70500D03*
D14*
X728534Y123300D03*
X728534Y118300D03*
X728534Y133300D03*
X728534Y143300D03*
X728534Y153300D03*
X728534Y128300D03*
X728534Y138300D03*
X728534Y148300D03*
X728534Y158300D03*
X728534Y108300D03*
X728534Y98300D03*
X728534Y88300D03*
X728534Y83300D03*
X728534Y93300D03*
X728534Y103300D03*
X728534Y113300D03*
D15*
X783534Y63300D03*
X788534Y63300D03*
X773534Y63300D03*
X763534Y63300D03*
X753534Y63300D03*
X778534Y63300D03*
X768534Y63300D03*
X758534Y63300D03*
X748534Y63300D03*
X798534Y63300D03*
X808534Y63300D03*
X818534Y63300D03*
X823534Y63300D03*
X813534Y63300D03*
X803534Y63300D03*
X793534Y63300D03*
D14*
X843534Y118300D03*
X843534Y123300D03*
X843534Y108300D03*
X843534Y98300D03*
X843534Y88300D03*
X843534Y113300D03*
X843534Y103300D03*
X843534Y93300D03*
X843534Y83300D03*
X843534Y133300D03*
X843534Y143300D03*
X843534Y153300D03*
X843534Y158300D03*
X843534Y148300D03*
X843534Y138300D03*
X843534Y128300D03*
D15*
X788534Y178300D03*
X783534Y178300D03*
X798534Y178300D03*
X808534Y178300D03*
X818534Y178300D03*
X793534Y178300D03*
X803534Y178300D03*
X813534Y178300D03*
X823534Y178300D03*
X773534Y178300D03*
X763534Y178300D03*
X753534Y178300D03*
X748534Y178300D03*
X758534Y178300D03*
X768534Y178300D03*
X778534Y178300D03*
D16*
X683934Y135100D03*
X706934Y98100D03*
X706934Y135100D03*
X683934Y98100D03*
D17*
X684234Y180700D03*
X709234Y180700D03*
D18*
X883484Y70770D03*
X727234Y210400D03*
D10*
X925328Y152200D03*
X915328Y152200D03*
X931728Y60500D03*
X931728Y50500D03*
X972828Y196500D03*
X982828Y196500D03*
X1075028Y58000D03*
X1085028Y58000D03*
X1095328Y162500D03*
X1105328Y162500D03*
X972828Y205900D03*
X982828Y205900D03*
X921728Y80600D03*
X921728Y70600D03*
X911728Y80700D03*
X911728Y70700D03*
X925228Y162300D03*
X915228Y162300D03*
X925228Y199550D03*
X915228Y199550D03*
X1075028Y48700D03*
X1085028Y48700D03*
X1095328Y153300D03*
X1105328Y153300D03*
X911728Y60600D03*
X911728Y50600D03*
X921728Y60600D03*
X921728Y50600D03*
D11*
X1102408Y204610D02*
X1102408Y211590D01*
X1109388Y211590D01*
X1109388Y204610D01*
X1102408Y204610D01*
X1102408Y209410D02*
X1109388Y209410D01*
X1084868Y211590D02*
X1084868Y204610D01*
X1084868Y211590D02*
X1091848Y211590D01*
X1091848Y204610D01*
X1084868Y204610D01*
X1084868Y209410D02*
X1091848Y209410D01*
D12*
X1102828Y12750D03*
X1097828Y12750D03*
X1092828Y12750D03*
X1087828Y12750D03*
X1082828Y12750D03*
X1077828Y12750D03*
X1072828Y12750D03*
X1067828Y12750D03*
X1062828Y12750D03*
X1057828Y12750D03*
X1052828Y12750D03*
X1047828Y12750D03*
X1022828Y12750D03*
X1017828Y12750D03*
X1012828Y12750D03*
X1007828Y12750D03*
X1002828Y12750D03*
X997828Y12750D03*
X992828Y12750D03*
X987828Y12750D03*
X982828Y12750D03*
X977828Y12750D03*
X972828Y12750D03*
X967828Y12750D03*
X962828Y12750D03*
X957828Y12750D03*
X952828Y12750D03*
X947828Y12750D03*
X942828Y12750D03*
X937828Y12750D03*
X932828Y12750D03*
X927828Y12750D03*
X922828Y12750D03*
X917828Y12750D03*
D13*
X1029328Y210000D03*
X1071328Y210000D03*
X1050328Y197000D03*
D10*
X1102128Y182500D03*
X1092128Y182500D03*
X1105328Y134900D03*
X1095328Y134900D03*
X1105328Y144100D03*
X1095328Y144100D03*
X931628Y80500D03*
X931628Y70500D03*
D14*
X953628Y123300D03*
X953628Y118300D03*
X953628Y133300D03*
X953628Y143300D03*
X953628Y153300D03*
X953628Y128300D03*
X953628Y138300D03*
X953628Y148300D03*
X953628Y158300D03*
X953628Y108300D03*
X953628Y98300D03*
X953628Y88300D03*
X953628Y83300D03*
X953628Y93300D03*
X953628Y103300D03*
X953628Y113300D03*
D15*
X1008628Y63300D03*
X1013628Y63300D03*
X998628Y63300D03*
X988628Y63300D03*
X978628Y63300D03*
X1003628Y63300D03*
X993628Y63300D03*
X983628Y63300D03*
X973628Y63300D03*
X1023628Y63300D03*
X1033628Y63300D03*
X1043628Y63300D03*
X1048628Y63300D03*
X1038628Y63300D03*
X1028628Y63300D03*
X1018628Y63300D03*
D14*
X1068628Y118300D03*
X1068628Y123300D03*
X1068628Y108300D03*
X1068628Y98300D03*
X1068628Y88300D03*
X1068628Y113300D03*
X1068628Y103300D03*
X1068628Y93300D03*
X1068628Y83300D03*
X1068628Y133300D03*
X1068628Y143300D03*
X1068628Y153300D03*
X1068628Y158300D03*
X1068628Y148300D03*
X1068628Y138300D03*
X1068628Y128300D03*
D15*
X1013628Y178300D03*
X1008628Y178300D03*
X1023628Y178300D03*
X1033628Y178300D03*
X1043628Y178300D03*
X1018628Y178300D03*
X1028628Y178300D03*
X1038628Y178300D03*
X1048628Y178300D03*
X998628Y178300D03*
X988628Y178300D03*
X978628Y178300D03*
X973628Y178300D03*
X983628Y178300D03*
X993628Y178300D03*
X1003628Y178300D03*
D16*
X909028Y135100D03*
X932028Y98100D03*
X932028Y135100D03*
X909028Y98100D03*
D17*
X909328Y180700D03*
X934328Y180700D03*
D18*
X1108578Y70770D03*
X952328Y210400D03*
D10*
X194989Y546300D03*
X204989Y546300D03*
X188589Y638000D03*
X188589Y648000D03*
X147489Y502000D03*
X137489Y502000D03*
X45289Y640500D03*
X35289Y640500D03*
X24989Y536000D03*
X14989Y536000D03*
X147489Y492600D03*
X137489Y492600D03*
X198589Y617900D03*
X198589Y627900D03*
X208589Y617800D03*
X208589Y627800D03*
X195089Y536200D03*
X205089Y536200D03*
X195089Y498950D03*
X205089Y498950D03*
X45289Y649800D03*
X35289Y649800D03*
X24989Y545200D03*
X14989Y545200D03*
X208589Y637900D03*
X208589Y647900D03*
X198589Y637900D03*
X198589Y647900D03*
D11*
X17909Y493890D02*
X17909Y486910D01*
X10929Y486910D01*
X10929Y493890D01*
X17909Y493890D01*
X17909Y491710D02*
X10929Y491710D01*
X35449Y493890D02*
X35449Y486910D01*
X28469Y486910D01*
X28469Y493890D01*
X35449Y493890D01*
X35449Y491710D02*
X28469Y491710D01*
D12*
X17489Y685750D03*
X22489Y685750D03*
X27489Y685750D03*
X32489Y685750D03*
X37489Y685750D03*
X42489Y685750D03*
X47489Y685750D03*
X52489Y685750D03*
X57489Y685750D03*
X62489Y685750D03*
X67489Y685750D03*
X72489Y685750D03*
X97489Y685750D03*
X102489Y685750D03*
X107489Y685750D03*
X112489Y685750D03*
X117489Y685750D03*
X122489Y685750D03*
X127489Y685750D03*
X132489Y685750D03*
X137489Y685750D03*
X142489Y685750D03*
X147489Y685750D03*
X152489Y685750D03*
X157489Y685750D03*
X162489Y685750D03*
X167489Y685750D03*
X172489Y685750D03*
X177489Y685750D03*
X182489Y685750D03*
X187489Y685750D03*
X192489Y685750D03*
X197489Y685750D03*
X202489Y685750D03*
D13*
X90989Y488500D03*
X48989Y488500D03*
X69989Y501500D03*
D10*
X18189Y516000D03*
X28189Y516000D03*
X14989Y563600D03*
X24989Y563600D03*
X14989Y554400D03*
X24989Y554400D03*
X188689Y618000D03*
X188689Y628000D03*
D14*
X166689Y575200D03*
X166689Y580200D03*
X166689Y565200D03*
X166689Y555200D03*
X166689Y545200D03*
X166689Y570200D03*
X166689Y560200D03*
X166689Y550200D03*
X166689Y540200D03*
X166689Y590200D03*
X166689Y600200D03*
X166689Y610200D03*
X166689Y615200D03*
X166689Y605200D03*
X166689Y595200D03*
X166689Y585200D03*
D15*
X111689Y635200D03*
X106689Y635200D03*
X121689Y635200D03*
X131689Y635200D03*
X141689Y635200D03*
X116689Y635200D03*
X126689Y635200D03*
X136689Y635200D03*
X146689Y635200D03*
X96689Y635200D03*
X86689Y635200D03*
X76689Y635200D03*
X71689Y635200D03*
X81689Y635200D03*
X91689Y635200D03*
X101689Y635200D03*
D14*
X51689Y580200D03*
X51689Y575200D03*
X51689Y590200D03*
X51689Y600200D03*
X51689Y610200D03*
X51689Y585200D03*
X51689Y595200D03*
X51689Y605200D03*
X51689Y615200D03*
X51689Y565200D03*
X51689Y555200D03*
X51689Y545200D03*
X51689Y540200D03*
X51689Y550200D03*
X51689Y560200D03*
X51689Y570200D03*
D15*
X106689Y520200D03*
X111689Y520200D03*
X96689Y520200D03*
X86689Y520200D03*
X76689Y520200D03*
X101689Y520200D03*
X91689Y520200D03*
X81689Y520200D03*
X71689Y520200D03*
X121689Y520200D03*
X131689Y520200D03*
X141689Y520200D03*
X146689Y520200D03*
X136689Y520200D03*
X126689Y520200D03*
X116689Y520200D03*
D16*
X211289Y563400D03*
X188289Y600400D03*
X188289Y563400D03*
X211289Y600400D03*
D17*
X210989Y517800D03*
X185989Y517800D03*
D18*
X11739Y627730D03*
X167989Y488100D03*
D10*
X420084Y546300D03*
X430084Y546300D03*
X413684Y638000D03*
X413684Y648000D03*
X372584Y502000D03*
X362584Y502000D03*
X270384Y640500D03*
X260384Y640500D03*
X250084Y536000D03*
X240084Y536000D03*
X372584Y492600D03*
X362584Y492600D03*
X423684Y617900D03*
X423684Y627900D03*
X433684Y617800D03*
X433684Y627800D03*
X420184Y536200D03*
X430184Y536200D03*
X420184Y498950D03*
X430184Y498950D03*
X270384Y649800D03*
X260384Y649800D03*
X250084Y545200D03*
X240084Y545200D03*
X433684Y637900D03*
X433684Y647900D03*
X423684Y637900D03*
X423684Y647900D03*
D11*
X243004Y493890D02*
X243004Y486910D01*
X236024Y486910D01*
X236024Y493890D01*
X243004Y493890D01*
X243004Y491710D02*
X236024Y491710D01*
X260544Y493890D02*
X260544Y486910D01*
X253564Y486910D01*
X253564Y493890D01*
X260544Y493890D01*
X260544Y491710D02*
X253564Y491710D01*
D12*
X242584Y685750D03*
X247584Y685750D03*
X252584Y685750D03*
X257584Y685750D03*
X262584Y685750D03*
X267584Y685750D03*
X272584Y685750D03*
X277584Y685750D03*
X282584Y685750D03*
X287584Y685750D03*
X292584Y685750D03*
X297584Y685750D03*
X322584Y685750D03*
X327584Y685750D03*
X332584Y685750D03*
X337584Y685750D03*
X342584Y685750D03*
X347584Y685750D03*
X352584Y685750D03*
X357584Y685750D03*
X362584Y685750D03*
X367584Y685750D03*
X372584Y685750D03*
X377584Y685750D03*
X382584Y685750D03*
X387584Y685750D03*
X392584Y685750D03*
X397584Y685750D03*
X402584Y685750D03*
X407584Y685750D03*
X412584Y685750D03*
X417584Y685750D03*
X422584Y685750D03*
X427584Y685750D03*
D13*
X316084Y488500D03*
X274084Y488500D03*
X295084Y501500D03*
D10*
X243284Y516000D03*
X253284Y516000D03*
X240084Y563600D03*
X250084Y563600D03*
X240084Y554400D03*
X250084Y554400D03*
X413784Y618000D03*
X413784Y628000D03*
D14*
X391784Y575200D03*
X391784Y580200D03*
X391784Y565200D03*
X391784Y555200D03*
X391784Y545200D03*
X391784Y570200D03*
X391784Y560200D03*
X391784Y550200D03*
X391784Y540200D03*
X391784Y590200D03*
X391784Y600200D03*
X391784Y610200D03*
X391784Y615200D03*
X391784Y605200D03*
X391784Y595200D03*
X391784Y585200D03*
D15*
X336784Y635200D03*
X331784Y635200D03*
X346784Y635200D03*
X356784Y635200D03*
X366784Y635200D03*
X341784Y635200D03*
X351784Y635200D03*
X361784Y635200D03*
X371784Y635200D03*
X321784Y635200D03*
X311784Y635200D03*
X301784Y635200D03*
X296784Y635200D03*
X306784Y635200D03*
X316784Y635200D03*
X326784Y635200D03*
D14*
X276784Y580200D03*
X276784Y575200D03*
X276784Y590200D03*
X276784Y600200D03*
X276784Y610200D03*
X276784Y585200D03*
X276784Y595200D03*
X276784Y605200D03*
X276784Y615200D03*
X276784Y565200D03*
X276784Y555200D03*
X276784Y545200D03*
X276784Y540200D03*
X276784Y550200D03*
X276784Y560200D03*
X276784Y570200D03*
D15*
X331784Y520200D03*
X336784Y520200D03*
X321784Y520200D03*
X311784Y520200D03*
X301784Y520200D03*
X326784Y520200D03*
X316784Y520200D03*
X306784Y520200D03*
X296784Y520200D03*
X346784Y520200D03*
X356784Y520200D03*
X366784Y520200D03*
X371784Y520200D03*
X361784Y520200D03*
X351784Y520200D03*
X341784Y520200D03*
D16*
X436384Y563400D03*
X413384Y600400D03*
X413384Y563400D03*
X436384Y600400D03*
D17*
X436084Y517800D03*
X411084Y517800D03*
D18*
X236834Y627730D03*
X393084Y488100D03*
D10*
X645154Y546300D03*
X655154Y546300D03*
X638754Y638000D03*
X638754Y648000D03*
X597654Y502000D03*
X587654Y502000D03*
X495454Y640500D03*
X485454Y640500D03*
X475154Y536000D03*
X465154Y536000D03*
X597654Y492600D03*
X587654Y492600D03*
X648754Y617900D03*
X648754Y627900D03*
X658754Y617800D03*
X658754Y627800D03*
X645254Y536200D03*
X655254Y536200D03*
X645254Y498950D03*
X655254Y498950D03*
X495454Y649800D03*
X485454Y649800D03*
X475154Y545200D03*
X465154Y545200D03*
X658754Y637900D03*
X658754Y647900D03*
X648754Y637900D03*
X648754Y647900D03*
D11*
X468074Y493890D02*
X468074Y486910D01*
X461094Y486910D01*
X461094Y493890D01*
X468074Y493890D01*
X468074Y491710D02*
X461094Y491710D01*
X485614Y493890D02*
X485614Y486910D01*
X478634Y486910D01*
X478634Y493890D01*
X485614Y493890D01*
X485614Y491710D02*
X478634Y491710D01*
D12*
X467654Y685750D03*
X472654Y685750D03*
X477654Y685750D03*
X482654Y685750D03*
X487654Y685750D03*
X492654Y685750D03*
X497654Y685750D03*
X502654Y685750D03*
X507654Y685750D03*
X512654Y685750D03*
X517654Y685750D03*
X522654Y685750D03*
X547654Y685750D03*
X552654Y685750D03*
X557654Y685750D03*
X562654Y685750D03*
X567654Y685750D03*
X572654Y685750D03*
X577654Y685750D03*
X582654Y685750D03*
X587654Y685750D03*
X592654Y685750D03*
X597654Y685750D03*
X602654Y685750D03*
X607654Y685750D03*
X612654Y685750D03*
X617654Y685750D03*
X622654Y685750D03*
X627654Y685750D03*
X632654Y685750D03*
X637654Y685750D03*
X642654Y685750D03*
X647654Y685750D03*
X652654Y685750D03*
D13*
X541154Y488500D03*
X499154Y488500D03*
X520154Y501500D03*
D10*
X468354Y516000D03*
X478354Y516000D03*
X465154Y563600D03*
X475154Y563600D03*
X465154Y554400D03*
X475154Y554400D03*
X638854Y618000D03*
X638854Y628000D03*
D14*
X616854Y575200D03*
X616854Y580200D03*
X616854Y565200D03*
X616854Y555200D03*
X616854Y545200D03*
X616854Y570200D03*
X616854Y560200D03*
X616854Y550200D03*
X616854Y540200D03*
X616854Y590200D03*
X616854Y600200D03*
X616854Y610200D03*
X616854Y615200D03*
X616854Y605200D03*
X616854Y595200D03*
X616854Y585200D03*
D15*
X561854Y635200D03*
X556854Y635200D03*
X571854Y635200D03*
X581854Y635200D03*
X591854Y635200D03*
X566854Y635200D03*
X576854Y635200D03*
X586854Y635200D03*
X596854Y635200D03*
X546854Y635200D03*
X536854Y635200D03*
X526854Y635200D03*
X521854Y635200D03*
X531854Y635200D03*
X541854Y635200D03*
X551854Y635200D03*
D14*
X501854Y580200D03*
X501854Y575200D03*
X501854Y590200D03*
X501854Y600200D03*
X501854Y610200D03*
X501854Y585200D03*
X501854Y595200D03*
X501854Y605200D03*
X501854Y615200D03*
X501854Y565200D03*
X501854Y555200D03*
X501854Y545200D03*
X501854Y540200D03*
X501854Y550200D03*
X501854Y560200D03*
X501854Y570200D03*
D15*
X556854Y520200D03*
X561854Y520200D03*
X546854Y520200D03*
X536854Y520200D03*
X526854Y520200D03*
X551854Y520200D03*
X541854Y520200D03*
X531854Y520200D03*
X521854Y520200D03*
X571854Y520200D03*
X581854Y520200D03*
X591854Y520200D03*
X596854Y520200D03*
X586854Y520200D03*
X576854Y520200D03*
X566854Y520200D03*
D16*
X661454Y563400D03*
X638454Y600400D03*
X638454Y563400D03*
X661454Y600400D03*
D17*
X661154Y517800D03*
X636154Y517800D03*
D18*
X461904Y627730D03*
X618154Y488100D03*
D10*
X870248Y546300D03*
X880248Y546300D03*
X863848Y638000D03*
X863848Y648000D03*
X822748Y502000D03*
X812748Y502000D03*
X720548Y640500D03*
X710548Y640500D03*
X700248Y536000D03*
X690248Y536000D03*
X822748Y492600D03*
X812748Y492600D03*
X873848Y617900D03*
X873848Y627900D03*
X883848Y617800D03*
X883848Y627800D03*
X870348Y536200D03*
X880348Y536200D03*
X870348Y498950D03*
X880348Y498950D03*
X720548Y649800D03*
X710548Y649800D03*
X700248Y545200D03*
X690248Y545200D03*
X883848Y637900D03*
X883848Y647900D03*
X873848Y637900D03*
X873848Y647900D03*
D11*
X693168Y493890D02*
X693168Y486910D01*
X686188Y486910D01*
X686188Y493890D01*
X693168Y493890D01*
X693168Y491710D02*
X686188Y491710D01*
X710708Y493890D02*
X710708Y486910D01*
X703728Y486910D01*
X703728Y493890D01*
X710708Y493890D01*
X710708Y491710D02*
X703728Y491710D01*
D12*
X692748Y685750D03*
X697748Y685750D03*
X702748Y685750D03*
X707748Y685750D03*
X712748Y685750D03*
X717748Y685750D03*
X722748Y685750D03*
X727748Y685750D03*
X732748Y685750D03*
X737748Y685750D03*
X742748Y685750D03*
X747748Y685750D03*
X772748Y685750D03*
X777748Y685750D03*
X782748Y685750D03*
X787748Y685750D03*
X792748Y685750D03*
X797748Y685750D03*
X802748Y685750D03*
X807748Y685750D03*
X812748Y685750D03*
X817748Y685750D03*
X822748Y685750D03*
X827748Y685750D03*
X832748Y685750D03*
X837748Y685750D03*
X842748Y685750D03*
X847748Y685750D03*
X852748Y685750D03*
X857748Y685750D03*
X862748Y685750D03*
X867748Y685750D03*
X872748Y685750D03*
X877748Y685750D03*
D13*
X766248Y488500D03*
X724248Y488500D03*
X745248Y501500D03*
D10*
X693448Y516000D03*
X703448Y516000D03*
X690248Y563600D03*
X700248Y563600D03*
X690248Y554400D03*
X700248Y554400D03*
X863948Y618000D03*
X863948Y628000D03*
D14*
X841948Y575200D03*
X841948Y580200D03*
X841948Y565200D03*
X841948Y555200D03*
X841948Y545200D03*
X841948Y570200D03*
X841948Y560200D03*
X841948Y550200D03*
X841948Y540200D03*
X841948Y590200D03*
X841948Y600200D03*
X841948Y610200D03*
X841948Y615200D03*
X841948Y605200D03*
X841948Y595200D03*
X841948Y585200D03*
D15*
X786948Y635200D03*
X781948Y635200D03*
X796948Y635200D03*
X806948Y635200D03*
X816948Y635200D03*
X791948Y635200D03*
X801948Y635200D03*
X811948Y635200D03*
X821948Y635200D03*
X771948Y635200D03*
X761948Y635200D03*
X751948Y635200D03*
X746948Y635200D03*
X756948Y635200D03*
X766948Y635200D03*
X776948Y635200D03*
D14*
X726948Y580200D03*
X726948Y575200D03*
X726948Y590200D03*
X726948Y600200D03*
X726948Y610200D03*
X726948Y585200D03*
X726948Y595200D03*
X726948Y605200D03*
X726948Y615200D03*
X726948Y565200D03*
X726948Y555200D03*
X726948Y545200D03*
X726948Y540200D03*
X726948Y550200D03*
X726948Y560200D03*
X726948Y570200D03*
D15*
X781948Y520200D03*
X786948Y520200D03*
X771948Y520200D03*
X761948Y520200D03*
X751948Y520200D03*
X776948Y520200D03*
X766948Y520200D03*
X756948Y520200D03*
X746948Y520200D03*
X796948Y520200D03*
X806948Y520200D03*
X816948Y520200D03*
X821948Y520200D03*
X811948Y520200D03*
X801948Y520200D03*
X791948Y520200D03*
D16*
X886548Y563400D03*
X863548Y600400D03*
X863548Y563400D03*
X886548Y600400D03*
D17*
X886248Y517800D03*
X861248Y517800D03*
D18*
X686998Y627730D03*
X843248Y488100D03*
D10*
X1095318Y546300D03*
X1105318Y546300D03*
X1088918Y638000D03*
X1088918Y648000D03*
X1047818Y502000D03*
X1037818Y502000D03*
X945618Y640500D03*
X935618Y640500D03*
X925318Y536000D03*
X915318Y536000D03*
X1047818Y492600D03*
X1037818Y492600D03*
X1098918Y617900D03*
X1098918Y627900D03*
X1108918Y617800D03*
X1108918Y627800D03*
X1095418Y536200D03*
X1105418Y536200D03*
X1095418Y498950D03*
X1105418Y498950D03*
X945618Y649800D03*
X935618Y649800D03*
X925318Y545200D03*
X915318Y545200D03*
X1108918Y637900D03*
X1108918Y647900D03*
X1098918Y637900D03*
X1098918Y647900D03*
D11*
X918238Y493890D02*
X918238Y486910D01*
X911258Y486910D01*
X911258Y493890D01*
X918238Y493890D01*
X918238Y491710D02*
X911258Y491710D01*
X935778Y493890D02*
X935778Y486910D01*
X928798Y486910D01*
X928798Y493890D01*
X935778Y493890D01*
X935778Y491710D02*
X928798Y491710D01*
D12*
X917818Y685750D03*
X922818Y685750D03*
X927818Y685750D03*
X932818Y685750D03*
X937818Y685750D03*
X942818Y685750D03*
X947818Y685750D03*
X952818Y685750D03*
X957818Y685750D03*
X962818Y685750D03*
X967818Y685750D03*
X972818Y685750D03*
X997818Y685750D03*
X1002818Y685750D03*
X1007818Y685750D03*
X1012818Y685750D03*
X1017818Y685750D03*
X1022818Y685750D03*
X1027818Y685750D03*
X1032818Y685750D03*
X1037818Y685750D03*
X1042818Y685750D03*
X1047818Y685750D03*
X1052818Y685750D03*
X1057818Y685750D03*
X1062818Y685750D03*
X1067818Y685750D03*
X1072818Y685750D03*
X1077818Y685750D03*
X1082818Y685750D03*
X1087818Y685750D03*
X1092818Y685750D03*
X1097818Y685750D03*
X1102818Y685750D03*
D13*
X991318Y488500D03*
X949318Y488500D03*
X970318Y501500D03*
D10*
X918518Y516000D03*
X928518Y516000D03*
X915318Y563600D03*
X925318Y563600D03*
X915318Y554400D03*
X925318Y554400D03*
X1089018Y618000D03*
X1089018Y628000D03*
D14*
X1067018Y575200D03*
X1067018Y580200D03*
X1067018Y565200D03*
X1067018Y555200D03*
X1067018Y545200D03*
X1067018Y570200D03*
X1067018Y560200D03*
X1067018Y550200D03*
X1067018Y540200D03*
X1067018Y590200D03*
X1067018Y600200D03*
X1067018Y610200D03*
X1067018Y615200D03*
X1067018Y605200D03*
X1067018Y595200D03*
X1067018Y585200D03*
D15*
X1012018Y635200D03*
X1007018Y635200D03*
X1022018Y635200D03*
X1032018Y635200D03*
X1042018Y635200D03*
X1017018Y635200D03*
X1027018Y635200D03*
X1037018Y635200D03*
X1047018Y635200D03*
X997018Y635200D03*
X987018Y635200D03*
X977018Y635200D03*
X972018Y635200D03*
X982018Y635200D03*
X992018Y635200D03*
X1002018Y635200D03*
D14*
X952018Y580200D03*
X952018Y575200D03*
X952018Y590200D03*
X952018Y600200D03*
X952018Y610200D03*
X952018Y585200D03*
X952018Y595200D03*
X952018Y605200D03*
X952018Y615200D03*
X952018Y565200D03*
X952018Y555200D03*
X952018Y545200D03*
X952018Y540200D03*
X952018Y550200D03*
X952018Y560200D03*
X952018Y570200D03*
D15*
X1007018Y520200D03*
X1012018Y520200D03*
X997018Y520200D03*
X987018Y520200D03*
X977018Y520200D03*
X1002018Y520200D03*
X992018Y520200D03*
X982018Y520200D03*
X972018Y520200D03*
X1022018Y520200D03*
X1032018Y520200D03*
X1042018Y520200D03*
X1047018Y520200D03*
X1037018Y520200D03*
X1027018Y520200D03*
X1017018Y520200D03*
D16*
X1111618Y563400D03*
X1088618Y600400D03*
X1088618Y563400D03*
X1111618Y600400D03*
D17*
X1111318Y517800D03*
X1086318Y517800D03*
D18*
X912068Y627730D03*
X1068318Y488100D03*
D19*
X-26238Y635000D03*
X1146556Y635000D03*
D20*
X-35293Y68580D02*
X-35290Y68802D01*
X-35282Y69024D01*
X-35268Y69246D01*
X-35249Y69468D01*
X-35225Y69688D01*
X-35195Y69909D01*
X-35160Y70128D01*
X-35119Y70347D01*
X-35073Y70564D01*
X-35022Y70780D01*
X-34965Y70995D01*
X-34903Y71209D01*
X-34836Y71420D01*
X-34764Y71631D01*
X-34686Y71839D01*
X-34604Y72045D01*
X-34516Y72249D01*
X-34424Y72452D01*
X-34326Y72651D01*
X-34224Y72848D01*
X-34117Y73043D01*
X-34005Y73235D01*
X-33888Y73424D01*
X-33767Y73611D01*
X-33641Y73794D01*
X-33511Y73974D01*
X-33376Y74151D01*
X-33238Y74324D01*
X-33095Y74494D01*
X-32947Y74661D01*
X-32796Y74824D01*
X-32641Y74983D01*
X-32482Y75138D01*
X-32319Y75289D01*
X-32152Y75437D01*
X-31982Y75580D01*
X-31809Y75718D01*
X-31632Y75853D01*
X-31452Y75983D01*
X-31269Y76109D01*
X-31082Y76230D01*
X-30893Y76347D01*
X-30701Y76459D01*
X-30506Y76566D01*
X-30309Y76668D01*
X-30110Y76766D01*
X-29907Y76858D01*
X-29703Y76946D01*
X-29497Y77028D01*
X-29289Y77106D01*
X-29078Y77178D01*
X-28867Y77245D01*
X-28653Y77307D01*
X-28438Y77364D01*
X-28222Y77415D01*
X-28005Y77461D01*
X-27786Y77502D01*
X-27567Y77537D01*
X-27346Y77567D01*
X-27126Y77591D01*
X-26904Y77610D01*
X-26682Y77624D01*
X-26460Y77632D01*
X-26238Y77635D01*
X-26016Y77632D01*
X-25794Y77624D01*
X-25572Y77610D01*
X-25350Y77591D01*
X-25130Y77567D01*
X-24909Y77537D01*
X-24690Y77502D01*
X-24471Y77461D01*
X-24254Y77415D01*
X-24038Y77364D01*
X-23823Y77307D01*
X-23609Y77245D01*
X-23398Y77178D01*
X-23187Y77106D01*
X-22979Y77028D01*
X-22773Y76946D01*
X-22569Y76858D01*
X-22366Y76766D01*
X-22167Y76668D01*
X-21970Y76566D01*
X-21775Y76459D01*
X-21583Y76347D01*
X-21394Y76230D01*
X-21207Y76109D01*
X-21024Y75983D01*
X-20844Y75853D01*
X-20667Y75718D01*
X-20494Y75580D01*
X-20324Y75437D01*
X-20157Y75289D01*
X-19994Y75138D01*
X-19835Y74983D01*
X-19680Y74824D01*
X-19529Y74661D01*
X-19381Y74494D01*
X-19238Y74324D01*
X-19100Y74151D01*
X-18965Y73974D01*
X-18835Y73794D01*
X-18709Y73611D01*
X-18588Y73424D01*
X-18471Y73235D01*
X-18359Y73043D01*
X-18252Y72848D01*
X-18150Y72651D01*
X-18052Y72452D01*
X-17960Y72249D01*
X-17872Y72045D01*
X-17790Y71839D01*
X-17712Y71631D01*
X-17640Y71420D01*
X-17573Y71209D01*
X-17511Y70995D01*
X-17454Y70780D01*
X-17403Y70564D01*
X-17357Y70347D01*
X-17316Y70128D01*
X-17281Y69909D01*
X-17251Y69688D01*
X-17227Y69468D01*
X-17208Y69246D01*
X-17194Y69024D01*
X-17186Y68802D01*
X-17183Y68580D01*
X-17186Y68358D01*
X-17194Y68136D01*
X-17208Y67914D01*
X-17227Y67692D01*
X-17251Y67472D01*
X-17281Y67251D01*
X-17316Y67032D01*
X-17357Y66813D01*
X-17403Y66596D01*
X-17454Y66380D01*
X-17511Y66165D01*
X-17573Y65951D01*
X-17640Y65740D01*
X-17712Y65529D01*
X-17790Y65321D01*
X-17872Y65115D01*
X-17960Y64911D01*
X-18052Y64708D01*
X-18150Y64509D01*
X-18252Y64312D01*
X-18359Y64117D01*
X-18471Y63925D01*
X-18588Y63736D01*
X-18709Y63549D01*
X-18835Y63366D01*
X-18965Y63186D01*
X-19100Y63009D01*
X-19238Y62836D01*
X-19381Y62666D01*
X-19529Y62499D01*
X-19680Y62336D01*
X-19835Y62177D01*
X-19994Y62022D01*
X-20157Y61871D01*
X-20324Y61723D01*
X-20494Y61580D01*
X-20667Y61442D01*
X-20844Y61307D01*
X-21024Y61177D01*
X-21207Y61051D01*
X-21394Y60930D01*
X-21583Y60813D01*
X-21775Y60701D01*
X-21970Y60594D01*
X-22167Y60492D01*
X-22366Y60394D01*
X-22569Y60302D01*
X-22773Y60214D01*
X-22979Y60132D01*
X-23187Y60054D01*
X-23398Y59982D01*
X-23609Y59915D01*
X-23823Y59853D01*
X-24038Y59796D01*
X-24254Y59745D01*
X-24471Y59699D01*
X-24690Y59658D01*
X-24909Y59623D01*
X-25130Y59593D01*
X-25350Y59569D01*
X-25572Y59550D01*
X-25794Y59536D01*
X-26016Y59528D01*
X-26238Y59525D01*
X-26460Y59528D01*
X-26682Y59536D01*
X-26904Y59550D01*
X-27126Y59569D01*
X-27346Y59593D01*
X-27567Y59623D01*
X-27786Y59658D01*
X-28005Y59699D01*
X-28222Y59745D01*
X-28438Y59796D01*
X-28653Y59853D01*
X-28867Y59915D01*
X-29078Y59982D01*
X-29289Y60054D01*
X-29497Y60132D01*
X-29703Y60214D01*
X-29907Y60302D01*
X-30110Y60394D01*
X-30309Y60492D01*
X-30506Y60594D01*
X-30701Y60701D01*
X-30893Y60813D01*
X-31082Y60930D01*
X-31269Y61051D01*
X-31452Y61177D01*
X-31632Y61307D01*
X-31809Y61442D01*
X-31982Y61580D01*
X-32152Y61723D01*
X-32319Y61871D01*
X-32482Y62022D01*
X-32641Y62177D01*
X-32796Y62336D01*
X-32947Y62499D01*
X-33095Y62666D01*
X-33238Y62836D01*
X-33376Y63009D01*
X-33511Y63186D01*
X-33641Y63366D01*
X-33767Y63549D01*
X-33888Y63736D01*
X-34005Y63925D01*
X-34117Y64117D01*
X-34224Y64312D01*
X-34326Y64509D01*
X-34424Y64708D01*
X-34516Y64911D01*
X-34604Y65115D01*
X-34686Y65321D01*
X-34764Y65529D01*
X-34836Y65740D01*
X-34903Y65951D01*
X-34965Y66165D01*
X-35022Y66380D01*
X-35073Y66596D01*
X-35119Y66813D01*
X-35160Y67032D01*
X-35195Y67251D01*
X-35225Y67472D01*
X-35249Y67692D01*
X-35268Y67914D01*
X-35282Y68136D01*
X-35290Y68358D01*
X-35293Y68580D01*
D21*
X-26238Y68580D03*
M02*
